<?xml version="1.0" encoding="UTF-8"?><svg id="Layer_2" xmlns="http://www.w3.org/2000/svg" xmlns:xlink="http://www.w3.org/1999/xlink" viewBox="0 0 211.8 152.3"><defs><linearGradient id="linear-gradient" x1="38.3" y1="-29" x2="118" y2="176.8" gradientUnits="userSpaceOnUse"><stop offset="0" stop-color="#d8f2ff" stop-opacity="0"/><stop offset=".1" stop-color="#cef0ff" stop-opacity=".2"/><stop offset=".2" stop-color="#c4eeff" stop-opacity=".4"/><stop offset=".4" stop-color="#bcedff" stop-opacity=".6"/><stop offset=".5" stop-color="#b5ecff" stop-opacity=".7"/><stop offset=".6" stop-color="#afebff" stop-opacity=".9"/><stop offset=".8" stop-color="#aceaff" stop-opacity=".9"/><stop offset=".9" stop-color="#a9eaff" stop-opacity="1"/><stop offset="1" stop-color="#a9eaff"/></linearGradient><linearGradient id="linear-gradient-2" x1="118.3" y1="-15.6" x2="145.3" y2="28.2" gradientUnits="userSpaceOnUse"><stop offset="0" stop-color="#aaa0ff"/><stop offset="1" stop-color="#6b55ff"/></linearGradient><linearGradient id="linear-gradient-3" x1="125.3" y1="49.8" x2="144.9" y2="48.8" xlink:href="#linear-gradient-2"/><linearGradient id="linear-gradient-4" x1="-2922.6" y1="25.5" x2="-2946.4" y2="78.7" gradientTransform="translate(-2798.1) rotate(-180) scale(1 -1)" xlink:href="#linear-gradient-2"/><linearGradient id="linear-gradient-5" x1="120.4" y1="12.3" x2="129.7" y2="25" gradientUnits="userSpaceOnUse"><stop offset="0" stop-color="#fee18e"/><stop offset="1" stop-color="#fb8e31"/></linearGradient><linearGradient id="linear-gradient-6" x1="-3109.6" y1="20.9" x2="-3094.1" y2="48.6" gradientTransform="translate(-2976.1) rotate(-180) scale(1 -1)" gradientUnits="userSpaceOnUse"><stop offset="0" stop-color="#fee18e"/><stop offset="1" stop-color="#fec800"/></linearGradient><linearGradient id="linear-gradient-7" x1="-3105.9" y1="13.2" x2="-3107.7" y2="9.5" gradientTransform="translate(-2976.1) rotate(-180) scale(1 -1)" gradientUnits="userSpaceOnUse"><stop offset="0" stop-color="#fcc198"/><stop offset=".2" stop-color="#fbbd96"/><stop offset=".4" stop-color="#f8b192"/><stop offset=".6" stop-color="#f39d8a"/><stop offset=".8" stop-color="#ec8280"/><stop offset="1" stop-color="#e66776"/></linearGradient><linearGradient id="linear-gradient-8" x1="-3107.7" y1="5.3" x2="-3102.7" y2="14.1" xlink:href="#linear-gradient-7"/><linearGradient id="linear-gradient-9" x1="130.6" y1="11" x2="161.7" y2="9.4" xlink:href="#linear-gradient-2"/><linearGradient id="linear-gradient-10" x1="111" y1="4.9" x2="115.4" y2="12" gradientTransform="matrix(1, 0, 0, 1, 0, 0)" xlink:href="#linear-gradient-7"/><linearGradient id="linear-gradient-11" x1="112" y1="-.7" x2="116.4" y2="6.5" gradientTransform="matrix(1, 0, 0, 1, 0, 0)" xlink:href="#linear-gradient-7"/><linearGradient id="linear-gradient-12" x1="125.8" y1="8" x2="129.7" y2="34.2" xlink:href="#linear-gradient-5"/><linearGradient id="linear-gradient-13" x1="29.2" y1="53.7" x2="140.1" y2="116.1" gradientUnits="userSpaceOnUse"><stop offset="0" stop-color="#86ddcf"/><stop offset="1" stop-color="#00b68e"/></linearGradient><linearGradient id="linear-gradient-14" x1="99.8" y1="23.5" x2="117.4" y2="76" gradientUnits="userSpaceOnUse"><stop offset="0" stop-color="#5cf79f"/><stop offset=".2" stop-color="#5bf298"/><stop offset=".4" stop-color="#58e587"/><stop offset=".7" stop-color="#54d06a"/><stop offset="1" stop-color="#50b848"/></linearGradient><linearGradient id="linear-gradient-15" x1="98" y1="15.2" x2="109.4" y2="29" gradientTransform="matrix(1, 0, 0, 1, 0, 0)" xlink:href="#linear-gradient-6"/><linearGradient id="linear-gradient-16" x1="-2490.6" y1="1061.8" x2="-2479.3" y2="1075.5" gradientTransform="translate(-1094.4 -1672) rotate(-94.4) scale(.7 1)" xlink:href="#linear-gradient-2"/><linearGradient id="linear-gradient-17" x1="110.4" y1="24.6" x2="114.8" y2="30" gradientTransform="matrix(1, 0, 0, 1, 0, 0)" xlink:href="#linear-gradient-6"/><linearGradient id="linear-gradient-18" x1="100.7" y1="23.9" x2="107.8" y2="37.7" xlink:href="#linear-gradient-14"/><linearGradient id="linear-gradient-19" x1="-249.6" y1="625.4" x2="-237.3" y2="649.2" gradientTransform="translate(82.3 -648.8) rotate(-23.2)" xlink:href="#linear-gradient-2"/><linearGradient id="linear-gradient-20" x1="-99.7" y1="-1505" x2="-91.7" y2="-1489.4" gradientTransform="translate(-1020.3 1016) rotate(52.8)" xlink:href="#linear-gradient-6"/><linearGradient id="linear-gradient-21" x1="167.9" y1="96.9" x2="131.6" y2="203.4" xlink:href="#linear-gradient-14"/><linearGradient id="linear-gradient-22" x1="89.2" y1="96.9" x2="52.8" y2="203.4" xlink:href="#linear-gradient-14"/><linearGradient id="linear-gradient-23" x1="62.8" y1="81.6" x2="67.8" y2="107.9" gradientTransform="translate(132.5 199.1) rotate(-180)" xlink:href="#linear-gradient-6"/><linearGradient id="linear-gradient-24" x1="237.7" y1="97.8" x2="226.2" y2="136.4" gradientTransform="translate(-179.3)" xlink:href="#linear-gradient-2"/><linearGradient id="linear-gradient-25" x1="235.8" y1="103.2" x2="212" y2="156.3" gradientTransform="translate(-179.3)" xlink:href="#linear-gradient-2"/><linearGradient id="linear-gradient-26" x1="223.1" y1="88.9" x2="226.3" y2="85.2" gradientTransform="translate(-179.3)" xlink:href="#linear-gradient-7"/><linearGradient id="linear-gradient-27" x1="49.1" y1="81.5" x2="44.3" y2="85.7" gradientTransform="matrix(1, 0, 0, 1, 0, 0)" xlink:href="#linear-gradient-7"/><linearGradient id="linear-gradient-28" x1="39" y1="89.2" x2="52.8" y2="117.8" xlink:href="#linear-gradient-13"/><linearGradient id="linear-gradient-29" x1="51.6" y1="97.4" x2="34.3" y2="111.8" gradientTransform="matrix(1, 0, 0, 1, 0, 0)" xlink:href="#linear-gradient-7"/><linearGradient id="linear-gradient-30" x1="176.3" y1="127.1" x2="196" y2="174.9" gradientTransform="matrix(1, 0, 0, 1, 0, 0)" xlink:href="#linear-gradient-6"/><linearGradient id="linear-gradient-31" x1="181.4" y1="113.7" x2="197.1" y2="154.3" xlink:href="#linear-gradient-2"/><linearGradient id="linear-gradient-32" x1="192.3" y1="115.7" x2="206.9" y2="153.4" xlink:href="#linear-gradient-14"/><linearGradient id="linear-gradient-33" x1="-3247.9" y1="133" x2="-3228.3" y2="180.7" gradientTransform="translate(-3213.2) rotate(-180) scale(1 -1)" xlink:href="#linear-gradient-6"/><linearGradient id="linear-gradient-34" x1="-3242" y1="119.4" x2="-3226.3" y2="159.9" gradientTransform="translate(-3213.2) rotate(-180) scale(1 -1)" xlink:href="#linear-gradient-2"/><linearGradient id="linear-gradient-35" x1="-3230.8" y1="121.2" x2="-3216.2" y2="159" gradientTransform="translate(-3213.2) rotate(-180) scale(1 -1)" xlink:href="#linear-gradient-14"/></defs><g><path d="m203,152.2c-3.2-22.7-21.8-25.4-40.4-38.2-20.1-13.8-15.9-48-41.6-75.5-25.8-27.5-61.5-16.6-75,4.4-13.4,21.1-2.4,56.6-22,73-19.5,16.4-11,36.2-11,36.2h190Z" fill="url(#linear-gradient)"/><g><path d="m162,150.6l1.2-.3-28.5-112.7-1.2.3,2.7,10.8h-13.4l-2.8-11.1-1.2.3,28.5,112.7,1.2-.3-.8-3.1h13.4l.9,3.4Zm-18-18.1h13.4l1.6,6.1h-13.4l-1.6-6.1Zm-3.8-67.8h-13.4l-1.6-6.4h13.4l1.6,6.4Zm.3,1.3l1.6,6.1h-13.4l-1.6-6.1h13.4Zm1.9,7.5l1.7,6.7h-13.4l-1.7-6.7h13.4Zm2,8l1.6,6.3h-13.4l-1.6-6.3h13.4Zm1.9,7.6l1.6,6.1h-13.4l-1.6-6.1h13.4Zm1.9,7.5l1.6,6.1h-13.4l-1.6-6.1h13.4Zm1.9,7.5h0c0-.1,1.5,5.9,1.5,5.9h-13.4l-1.5-5.9h13.4Zm1.8,7.2h0c0-.1,1.3,5,1.3,5h-13.4l-1.3-5h13.4Zm1.6,6.3l1.6,6.2h-13.4s-1.6-6.2-1.6-6.2h13.4Zm1.9,7.6l1.6,6.1h-13.4l-1.6-6.1h13.4Zm-19-75.1h0c0-.1,1.8,7,1.8,7h-13.4l-1.8-7h13.4Zm10.9,95.9l-1.5-5.9h13.4l1.5,5.9h-13.4Z" fill="#404a69"/><g><g><path d="m128.2,2.6s-1.4-.4-2.2,2.1c-.8,2.5.3,2.5.8,4.5.5,2.1-1.5,3.9.5,6.2,2,2.3,4.5-1.1,5.4.9,1,2.1,2.1,5.5,4.9,5.9,2.7.4,7.8-1.2,9.8-5,2-3.8-12.7-13-12.7-13l-6.6-1.8Z" fill="url(#linear-gradient-2)"/><g><path d="m136,68.9s.9,2,.4,3.6c-.5,1.5-8.3,2.5-8.3,1.4,0-1.1,4.4-3.2,4.4-3.2l.5-1.3s.2-1.1,3.1-.4Z" fill="#32326b"/><path d="m131.4,34.7s1,16.9,5.8,32.5c.1.5,0,1-.4,1.3-.7.6-2.3,1.5-5.2,1.2-.4,0-.7-.2-.9-.6-2.1-3.8-8.1-26.6-7.8-38.1.5-5.5,8.4,3.5,8.4,3.5Z" fill="url(#linear-gradient-3)"/></g><g><path d="m141.4,68.9s.9,2,.4,3.6c-.5,1.5-8.3,2.5-8.3,1.4,0-1.1,4.4-3.2,4.4-3.2l.5-1.3s.2-1.1,3.1-.4Z" fill="#32326b"/><path d="m136.7,34.7s1,16.9,5.8,32.5c.1.5,0,1-.4,1.3-.7.6-2.3,1.5-5.2,1.2-.4,0-.7-.2-.9-.6-2.1-3.8-8.1-26.6-7.8-38.1.5-5.5,8.4,3.5,8.4,3.5Z" fill="url(#linear-gradient-4)"/></g><path d="m127.3,13s-1.7,2.9-5.8,3.7c-4.2.8-6-6.7-6-6.7,0,0-.8-.1-1.5.7-.8,1.1-.2,7.2,5.2,10.7,5.4,3.5,9.9-1.2,10.9-3,1-1.8.8-7.5-2.8-5.4Z" fill="url(#linear-gradient-5)"/><path d="m134.8,13s2.2,2.7,1.8,5.8c-.4,3.1-.5,4.6.2,9.1.7,4.5,1.3,6.6.5,8.1-.7,1.5-10.1,2.7-14.2-.2-1.4-1.9.7-20.9,2.7-22.8,2-1.9,5.6-2.3,9,0Z" fill="url(#linear-gradient-6)"/><path d="m131.8,10.7s-.6.1-.3,1c0,0,.3.2.7.3,0,0-.2,1.2-1.8,1.2-1.6,0-1.7-.7-1.9-1.2.1-.2.4-.3,1.2-.5.8-.2,0-.9,0-.9l2.1.2Z" fill="url(#linear-gradient-7)"/><path d="m126.9,6.8c0,2.3,1.7,4.2,3.9,4.2s3.9-1.9,3.9-4.2-1.7-4.2-3.9-4.2-3.9,1.9-3.9,4.2Z" fill="url(#linear-gradient-8)"/><path d="m128.3,2.1s-1,1.3.2,3.4c1.1,2.1,2.7.5,3.6,2.7.9,2.2-.4,3.1,1.4,4.4,1.8,1.3,3.1.5,4.6,2.5,1.5,2,1.8,5.8,4.9,5.6,3.1-.2,7.4-4.2,4.3-10-3.1-5.8-4.7-2.9-8.5-6.5-3.8-3.6-8.5-4.7-10.4-2.1Z" fill="url(#linear-gradient-9)"/><path d="m115.3,10.4s-.9-2.1-1.7-2.9c-.8-.7-1.1,1.3-.8,2.4.3,1.1,1.7,1.3,1.7,1.3l.8-.8Z" fill="url(#linear-gradient-10)"/></g><path d="m112,.9s2.3-1.3,4.6.5c1.8,2,1.7,4.4,4.3,5.6,2.6,1.2,2.6,2.3,1.7,3.1-.9.8-1.5,1.6-1.4,3.9.2,2.3,0,3.3-1.1,4.8-1.1,1.5-1.7,2.8-1.5,4.3.2,1.5-.9,2.6-1.8,1.8-.9-.8.5-.8-.6-2-1.1-1.2-2.3-.7-4.4-1.8-2.1-1.2-4.1-2.3-5.8-2.5s-1.8,1-2.3.2c-.5-.8.6-1.3,1.1-2.3.5-1,0-1.5,1.5-4.9,1.5-3.5,3.1-5.1,3.4-6.9.3-1.8,1.4-3.8,2.4-3.8Z" fill="#404a69"/><g><path d="m116.4,4.9s-.9-2.1-1.7-2.9c-.8-.7-1.1,1.3-.8,2.4s1.7,1.3,1.7,1.3l.8-.8Z" fill="url(#linear-gradient-11)"/><path d="m134.4,20.7s-13.9-3.5-19.8-15.1l2-1.3s5.2,4.6,10.2,6.9c5,2.3,9.3,1.3,10.8,4.8,1.5,3.5-1.7,5.4-3.2,4.8Z" fill="url(#linear-gradient-12)"/></g></g><g><g><path d="m71.5,48.3l2.2,97.9c0,3.4,2.7,6.1,5.8,6.1h58.3c3.2,0,5.7-2.7,5.8-6.1l2.2-97.9h-74.3Z" fill="url(#linear-gradient-13)"/><rect x="65.3" y="41.5" width="85.7" height="13.6" rx="1.5" ry="1.5" fill="url(#linear-gradient-14)"/></g><g><path d="m93.6,96.7l-2.4-1.5h7.8c0-.1,4,7.3,4,7.3l-2.4-1.4-3.2,6.1c-.8,1.5-1.2,3.2-1.3,4.9,0,0,0,.1,0,.2l-4.4-8.2s-1.9-3.5,1.9-7.5Z" fill="#f7f7f7"/><path d="m115.2,116.7v3s-3.9-7.3-3.9-7.3l4.1-7.4v3s6.6.1,6.6.1c1.6,0,3.2-.4,4.6-1.2,0,0,.1,0,.2,0l-4.5,8.1s-2,3.5-7,1.8Z" fill="#f7f7f7"/><path d="m120.8,86.7l2.2-1.3-3.8,7.3h-8s2.3-1.5,2.3-1.5l-3.2-5.8s1.2-3.3,4.4-4c3.4-.7,6,5.3,6,5.3Z" fill="#f7f7f7"/><path d="m108.2,107.9v8.7h-7.1s-3.1,0-3.6-3.9c-.4-3.1,1.2-4.8,1.2-4.8h9.4Z" fill="#f7f7f7"/><path d="m117.1,98l6.9-4.4,3.6,6.5s.9,3.2-2,5.5c-2.3,1.9-3.8,1.1-3.8,1.1l-4.8-8.7Z" fill="#f7f7f7"/><path d="m97.1,89.8l3.6-6.8s1.2-2.1,3-2.1h8.5s-1.8,1.4-3.5,4.5c-1.8,3.1-4.6,8.7-4.6,8.7l-7-4.3Z" fill="#f7f7f7"/></g></g><g><path d="m105.2,26.5h0c-.6,0-1.1-.5-1.1-1.1v-3c0-.6.5-1.1,1.1-1.1h0c.6,0,1.1.5,1.1,1.1v3c0,.6-.5,1.1-1.1,1.1Z" fill="url(#linear-gradient-15)"/><path d="m112.8,24.4h0c0,.5-.3.8-.7.9l-3.4.3c-.4,0-.8-.3-.8-.8h0c0-.5.3-.8.7-.9l3.4-.3c.4,0,.8.3.8.8Z" fill="url(#linear-gradient-16)"/><path d="m114,28c0,.5-.4.9-.8.9s-.8-.4-.8-.9.4-.9.8-.9.8.4.8.9Z" fill="url(#linear-gradient-17)"/><path d="m105,30.6c0,.5-.4.9-.8.9s-.8-.4-.8-.9.4-.9.8-.9.8.4.8.9Z" fill="url(#linear-gradient-18)"/><polygon points="110.8 33.3 108.8 34.2 107.9 32 109.9 31 110.8 33.3" fill="url(#linear-gradient-19)"/><polygon points="113.8 34.7 112.9 33.5 114.1 32.6 114.9 33.8 113.8 34.7" fill="url(#linear-gradient-20)"/></g></g><path d="m179.9,152.3c.2-1-1.5-4.8-4.2-4.8-5.8,0-3.7,2.6-8.2,3-4.6.3-5.8-11.2-11.9-11.8-6.1-.7-7.3,7.6-10.7,9.2-3.4,1.6-6.7-5.6-9.9-3-3.2,2.7-2.3,5.9-5.9,5.3-3.7-.7-6.4-1.6-8.5-.3-1.2.7-1.9,1.7-2.3,2.5h61.7Z" fill="url(#linear-gradient-21)"/><path d="m101.2,152.3c.2-1-1.5-4.8-4.2-4.8-5.8,0-3.7,2.6-8.2,3-4.6.3-5.8-11.2-11.9-11.8-6.1-.7-7.3,7.6-10.7,9.2-3.4,1.6-6.7-5.6-9.9-3-3.2,2.7-2.3,5.9-5.9,5.3-3.7-.7-6.4-1.6-8.5-.3-1.2.7-1.9,1.7-2.3,2.5h61.7Z" fill="url(#linear-gradient-22)"/><g><path d="m52.9,88.7s.7.6,1.4,1c.7.5,2.2,1.4,2.9,3.1.7,1.7-.3,4.3-2.4,4.9-2.2.6-3.7-.5-4.2-1.7-.5-1.2-.2-3.3.5-4.6.7-1.3,1-2,.8-2.4-.1-.4-.4-.7-.4-.7,0,0-.6-.5-.5-.8.1-.3,1.5-.7,1.8-.5.2.2-.2,1.1,0,1.3.2.2.3.4.3.4Z" fill="#00b68e"/><path d="m61,90.1s.1.6.3,1.2c.2.6.6,1.8.2,2.9-.3,1.2-1.9,2.1-3.2,1.4-1.3-.7-1.7-2-1.5-2.9.2-.9,1.2-1.8,2.1-2.2.9-.3,1.3-.6,1.4-.9,0-.3,0-.5,0-.5,0,0,0-.5,0-.6.2,0,1.1.4,1.1.6,0,.2-.5.5-.5.7,0,.2,0,.3,0,.3Z" fill="#86ddcf"/><path d="m61.1,92.3l-1-1-1.4-.5-1.4-.2-1.3-.3-1.1.4-1.1.5-.9.3-.5.7-.5,1.2,5.8.8s2.5-.5,2.6-.6c0-.1.7-1.3.7-1.3Z" fill="#254da1"/><path d="m68.7,92.8s-1.1-1.6-2.1-2.1c-1-.5-2.2.2-2.2.2l-1.4-.5-1.4.3c-.6.5-2.1.7-2.1.7l-1.1.7-1.3,1.4h10.5l1.1-.7Z" fill="#404a69"/><g><rect x="44.6" y="92" width="18.1" height="15.2" fill="#feb700"/><rect x="62.7" y="92" width="7.1" height="15.2" transform="translate(132.5 199.1) rotate(180)" fill="url(#linear-gradient-23)"/></g><g><g><path d="m56.6,145.1s.4,1.8,1.5,2.6c1,.7,6.6-3,6.1-3.8-.5-.8-4.4.3-4.4.3l-1-.6s-.7-.6-2.2,1.5Z" fill="#32326b"/><path d="m39.5,111.2s8.4,13.6,14.8,33.6c.3.8,1,1.2,1.8,1,1-.3,2.4-.9,3.4-2.4.2-.3.3-.8.2-1.2-.7-3.8-4.6-23.1-10.5-31.3-3.4-3.3-9.4-3.1-9.8.2Z" fill="url(#linear-gradient-24)"/><g><path d="m39.9,146.3s-1,1.9-.6,3.6c.4,1.5,8.1,3.2,8.2,2.1.1-1.1-4.1-3.6-4.1-3.6l-.4-1.4s-.1-1.1-3.1-.7Z" fill="#32326b"/><path d="m44.3,112.3s-1,16.8-5.8,32.5c-.1.5,0,1,.4,1.3.7.6,2.3,1.5,5.2,1.2.4,0,.7-.2.9-.6,2.1-3.8,8.1-26.6,7.8-38.1-.5-5.5-8.4,3.5-8.4,3.5Z" fill="url(#linear-gradient-25)"/></g><g><g><polygon points="44.8 84 44.7 87.6 48 87.6 47.4 85 44.8 84" fill="url(#linear-gradient-26)"/><path d="m44,81.4c.3-1,1-1.8,1.9-2.1,1.8-.5,3.4.8,3.6,2.6,0,0,0,0,0,0,0,0,.2,2.1,0,3.8,0,.8-.7,1.4-1.5,1.3-.5,0-1-.3-1.6-.6-.7-.4-1.1-1.1-1.4-1.7-.9-.7-1.4-2-1.1-3.3Z" fill="url(#linear-gradient-27)"/></g><path d="m44.3,86.7s4,.6,4.5,1c.2.3.3.8.3.8h-5.4l.6-1.8Z" fill="#f1f2f2"/><path d="m50.1,79.5c0-.7-1.1-.9-1.5-.7-.2,0-.3,0-.7,0-.9-.4-1.8-.5-2.7,0-.7.4-1,.9-1.2,1.3-.7.3-.2.6-.7,1.2-.5.6-.3,1,0,2.3.4,1.3,1,2.2,1.3,2.5.2.3.7.2,1,.3.3.2,1-.2,1.3-.7.4-.6.6-1.4.6-1.9s0-.4-.2-.7c0-.2.2-.4.3-.4.3,0,.4.4.6.8.2.4,0,.9,0,.9h.4s0-.6,0-1c0-.4-.2-.7-.7-1.4-.2-.2-.3-.4-.3-.6.3,0,.5,0,.7,0,.2,0,.4,0,.5-.1,0,0,0,0,.1,0,1.2-.3,1.1-1.2,1-1.9Z" fill="#254da1"/></g><path d="m41.8,88.9s6-2.8,9.1,2.4c2.6,4.8,2.4,18.8,1.9,20.5-.9,1.7-10.6,3-13.2.9-2.6-2-1.2-22.5,2.2-23.8Z" fill="url(#linear-gradient-28)"/></g><path d="m44.6,94.4s4.7,8.3,7.6,9.7c2.9,1.4,11.1-5.9,11.1-5.9,0,0,1.5-.1,2-1.2.5-1.2-2.3-.4-2.3-.4,0,0,.4-1.4,0-1.2-.5.2-.7,1.2-.7,1.2,0,0-6.2,2.6-7.4,2.8-1.4.1-3.6-6.6-5.6-8.3-2-1.7-5.4.6-4.6,3.2Z" fill="url(#linear-gradient-29)"/><path d="m45.6,90.5s-2.8,1.4-.9,5.4c1.5,3.5,3.6,5.4,3.6,5.4,0,0,4.5-1.5,5-4.7,0,0-2.7-5.4-4.1-6.3-1.4-.9-3.6.2-3.6.2Z" fill="#f1f2f2"/></g></g></g><g><path d="m181.7,152.2h8.9c0-2.1-.7-5.2-3.3-9.9-4.6-8.2-7.9-12.2-11-11.8-3.1.3,1.2,1.6,3.4,10.2,1,3.9,1.6,8.1,2.1,11.5Z" fill="url(#linear-gradient-30)"/><path d="m194.3,152.2c-.4-7.3-.5-21.4,2.8-29.9,0-4.3-6.1,2.6-8.5,11.2-2.1,7.3-4.2,11.7-4.7,18.7h10.5Z" fill="url(#linear-gradient-31)"/><path d="m201.1,152.2c1.3-15.9,12.8-31.3,10.3-31.9-14.2,5.8-20.2,22.5-22.5,31.9h12.2Z" fill="url(#linear-gradient-32)"/></g><g><path d="m31,152.2c.3-1.7.7-3.5,1.1-5.3,2.1-8.6,6.4-9.9,3.4-10.2-3.1-.3-6.4,3.6-11,11.8-.7,1.3-1.3,2.5-1.8,3.6h8.3Z" fill="url(#linear-gradient-33)"/><path d="m17.6,152.2h9.3c-.9-4-2.3-7.6-3.7-12.5-2.4-8.6-8.5-15.5-8.5-11.2,2.5,6.5,3,16.2,2.9,23.7Z" fill="url(#linear-gradient-34)"/><path d="m21,152.2c-3.2-9.3-9.3-21-20.7-25.7-2.2.5,6.2,12.2,9.3,25.7h11.3Z" fill="url(#linear-gradient-35)"/></g></svg>