<?xml version="1.0" encoding="UTF-8"?><svg id="Layer_2" xmlns="http://www.w3.org/2000/svg" xmlns:xlink="http://www.w3.org/1999/xlink" viewBox="0 0 211.8 152.3"><defs><linearGradient id="linear-gradient" x1="110.2" y1="-59.4" x2="110.2" y2="310.3" gradientUnits="userSpaceOnUse"><stop offset="0" stop-color="#86ddcf"/><stop offset="1" stop-color="#00b68e"/></linearGradient><linearGradient id="linear-gradient-2" x1="-8.5" y1="41.1" x2="97.1" y2="210.8" gradientUnits="userSpaceOnUse"><stop offset="0" stop-color="#fee18e"/><stop offset="1" stop-color="#fec800"/></linearGradient><linearGradient id="linear-gradient-3" x1="185.5" y1="65.1" x2="128.3" y2="232.5" gradientUnits="userSpaceOnUse"><stop offset="0" stop-color="#5cf79f"/><stop offset=".2" stop-color="#5bf298"/><stop offset=".4" stop-color="#58e587"/><stop offset=".7" stop-color="#54d06a"/><stop offset="1" stop-color="#50b848"/></linearGradient></defs><g><path d="m165.1,151.9H55.3c-3.6,0-6.5-3.2-6.5-7l1.6-137.3c0-3.9,2.9-7,6.5-7h106.6c3.6,0,6.5,3.2,6.5,7l1.6,137.3c0,3.9-2.9,7-6.5,7Z" fill="url(#linear-gradient)"/><g><path d="m79.4,71.9l-4.9-3,15.8-.3,8.1,15.2-4.9-2.9-6.5,12.5c-1.6,3.1-2.5,6.5-2.6,10.1,0,.1,0,.3,0,.4l-8.9-16.7s-3.9-7.2,3.9-15.3Z" fill="#fff"/><path d="m123,112.9v6.1c0,0-7.9-14.9-7.9-14.9l8.3-15.1v6s13.3.2,13.3.2c3.2,0,6.5-.7,9.3-2.4.1,0,.2-.1.3-.2l-9.2,16.5s-4,7.2-14.2,3.7Z" fill="#fff"/><path d="m134.3,51.4l4.4-2.8-7.7,15h-16.2s4.7-3.1,4.7-3.1l-6.4-11.9s2.4-6.7,9-8.1c6.8-1.4,12.2,10.9,12.2,10.9Z" fill="#fff"/><path d="m108.8,94.8v17.8h-14.3s-6.2-.2-7.2-7.9c-.8-6.4,2.5-9.9,2.5-9.9h19Z" fill="#fff"/><path d="m126.9,74.7l14-9.1,7.3,13.4s1.8,6.6-4,11.4c-4.7,3.9-7.7,2.2-7.7,2.2l-9.7-17.8Z" fill="#fff"/><path d="m86.5,57.8l7.3-14s2.3-4.2,6-4.2h17.2s-3.6,3-7.1,9.1c-3.6,6.3-9.2,17.8-9.2,17.8l-14.2-8.7Z" fill="#fff"/></g></g><g><g><g><path d="m43.7,153c-.2,0-.4.2-.5.3h28.5c-1.3-4-2.7-12,2-23.3,6.8-16.5-2.7-12-5-5.2-4.3,2.1-3.4-22-8.5-21.7s-2.7,11.3-5.2,10.7-4.4-22.3-12.9-26c-8.5-3.6-.4,16.6-5.4,15.3-4.9-1.2-6.2-18.9-10.8-19.1-4.6-.2,2,11.3-1.9,11.1-4-.2-6.6-9.5-11.8-8.4-5.2,1.1-7.2-1.3-7.2-1.3,0,0,2.3,2.1,1.4,7.8-.8,5.7,7.8,8.2,8.2,12.5.4,4.3-10.5-2.5-10.1,2.6.4,5,16.6,5.7,18,11,1.3,5.3-17.5-2.6-13.8,6.4,3.7,9.1,23.6,10.4,24.3,13,.7,2.7-9.5.5-9.6,6.1,0,5.5,22,3.7,20.2,8.4Z" fill="url(#linear-gradient-2)"/><path d="m46.9,128.6c2.6,2.8,5.3,5.6,7.9,8.5,1.1,1.2,2.2,2.4,3.2,3.6-1.4-.4-2.8-.7-4.2-1.1-1.6-.4-3.2-1-4.8-1-1.4,0-3,.8-4.4,1.2-2,.5-4.1.8-6.2,1.1-.2,0-.2.4,0,.4,3.3-.3,6.6-1,9.8-2,1.7-.5,3.8.4,5.5.9l4.9,1.2c2.1,2.4,4.3,4.7,6.4,7.1-3.9.2-7.9,1.5-11.3,3.5-.2.1,0,.4.2.3,3.7-2,7.5-3,11.5-3.4,1.4,1.5,2.7,3,4.1,4.5h1.5c-1.2-1.4-2.5-2.8-3.7-4.2-.4-2.2-1.3-4.5-.9-6.8.4-2.6,1-5.3,1.5-7.9,0-.2-.3-.3-.3,0-.6,2.8-1.2,5.5-1.7,8.4-.3,1.7.2,3.8.8,5.6-1.8-2-3.6-4-5.4-5.9-.4-1.4-.6-2.8-.6-4.2,0-1.7.5-3.3.6-5,.1-1.7-.6-3.4-.6-5.2,0-2,0-4.1,0-6.1,0-.2-.3-.2-.3,0,0,2-.1,4.1-.1,6.1,0,1.8.5,3.4.6,5.2,0,1.7-.6,3.3-.6,5,0,1.2.1,2.4.4,3.5-1.5-1.7-3.1-3.3-4.7-4.9-3.7-3.8-7.4-7.6-11-11.5-1-6.7,1.2-13.5,0-20.2,0-.3-.5-.2-.4.1,1.2,6.4-.9,13.1,0,19.6-4.5-4.8-8.8-9.7-12.9-14.9-.2-.3-.6.1-.4.5,4.7,6.2,10,12,15.3,17.6-2.7-.4-5.1-1.7-7.9-1.8-3.4-.1-6.9.3-10.3.6-.2,0-.2.4,0,.4,3.3-.2,6.5-.4,9.8-.5,3.1,0,5.8,1.6,8.9,1.9Z" fill="#fff"/></g><g><path d="m33.5,27.6s-5.3,17.2,4,40.4c9.3,23.3,26.7,25.7,26.7,25.7,0,0,8.5-16.7-3.2-38.7-11.7-22-27.5-27.4-27.5-27.4Z" fill="#7cd161"/><path d="m56.9,80.4c-4.1-3.4-8.5-6.3-13-9.1-.1,0,0-.3.1-.2,4.3,2.5,8.4,5.4,12.4,8.3-1.3-2.8-2.6-5.7-3.9-8.6-.9-2-1.8-4.1-2.6-6.1-2-1.3-3.9-2.6-5.9-3.9-1-.6-1.9-1.3-2.9-1.9-.3-.2-3.7-2.6-3.9-2.2,0,.1-.2,0-.2,0v-.2s0,0,.1,0c.5-.1.7,0,1.2.4,1.1.7,2.3,1.5,3.4,2.2,2.3,1.5,4.5,3,6.8,4.5.4.2.7.5,1.1.7-1.5-3.5-3-6.9-4.6-10.4-.5-1.2-1.1-2.4-1.6-3.6-2.9-1.9-5.9-3.7-8.8-5.6-.1,0,0-.2,0-.2,2.6,1.7,5.2,3.3,7.8,5,.3.2.5.4.8.5-2.1-4.5-4.2-9-6-13.6-.1-.3.3-.6.5-.3,2.3,4.4,4.2,9.1,6.3,13.7,0-.1.1-.3.2-.5.2-.7.4-1.5.7-2.2.5-1.7,1.2-3.3,1.8-4.9,0,0,.2,0,.1,0-1,2.6-1.9,5.2-2.7,7.8.4,1,.8,1.9,1.3,2.9,1.7,3.7,3.4,7.3,5.1,11,.2-.5.3-1.2.3-1.4.3-1.3.7-2.7,1-4,.7-2.7,1.5-5.3,2.5-7.8,0,0,.2,0,.1,0-1.5,4.5-2.7,9-3.7,13.6.8,1.8,1.7,3.6,2.5,5.4,1.4,2.9,2.7,5.8,4,8.7.9-4.9,2.1-9.9,4-14.5,0,0,.2,0,.1,0-1.9,4.9-2.6,10.1-3.7,15.3,1.1,2.4,2.2,4.8,3.4,7.2.3.6.5,1.1.8,1.7.3-.7.4-1.7.5-2.3.3-1.3.6-2.6,1-3.9,0,0,.1,0,.1,0-.4,2.2-1,4.3-1.5,6.4,1,2.1,2.1,4.2,3.2,6.2,1.4,2.7,3.1,5.3,4.4,8,.2.3-.3.7-.5.4-1.7-2.3-3.1-4.9-4.4-7.4-1.1-2.1-2.2-4.2-3.3-6.3-2.5-1.1-5.1-2.1-7.4-3.7,0,0,0-.2,0-.2,2.2.9,4.4,2.2,6.6,3.2.1,0,.3,0,.4.1-.2-.4-.4-.9-.7-1.3-1.2-2.4-2.4-4.8-3.5-7.2Z" fill="#cce5b5"/></g><g><path d="m200.9,88.6s.4,17.5-14.4,36.1-31.5,15.4-31.5,15.4c0,0-3.4-18.1,13.2-34.8,16.6-16.6,32.7-16.7,32.7-16.7Z" fill="#7cd161"/><path d="m165.3,130c4.7-1.8,9.5-3.2,14.4-4.3.1,0,0-.3,0-.2-4.6,1-9.1,2.3-13.6,3.8,2-2.2,3.9-4.5,5.8-6.7,1.3-1.6,2.7-3.2,4-4.8,2.2-.6,4.3-1.2,6.5-1.8,1.1-.3,2.1-.6,3.2-.9.3,0,4.1-1.3,4.2-.8,0,.1.2.1.2,0v-.2s0,0,0,0c-.4-.3-.7-.2-1.2,0-1.2.3-2.5.7-3.7,1-2.5.7-5,1.3-7.4,2-.4.1-.8.2-1.2.3,2.3-2.7,4.6-5.5,7-8.2.8-.9,1.6-1.9,2.5-2.8,3.2-.8,6.4-1.6,9.6-2.4.1,0,0-.2,0-.2-2.8.7-5.7,1.4-8.5,2.1-.3,0-.6.2-.9.2,3.1-3.5,6.3-7,9.2-10.7.2-.3-.1-.6-.4-.4-3.3,3.4-6.3,7.1-9.4,10.7,0-.1,0-.3,0-.5,0-.8,0-1.5,0-2.3,0-1.7-.2-3.4-.4-5.1,0,0-.1,0-.1,0,.3,2.7.4,5.4.4,8.1-.6.8-1.3,1.5-1.9,2.3-2.5,2.9-5,5.7-7.6,8.6,0-.5,0-1.2,0-1.4,0-1.3.1-2.7.1-4,0-2.7,0-5.4-.2-8,0,0-.1,0-.1,0,.2,4.6.2,9.2-.2,13.7-1.3,1.4-2.5,2.8-3.8,4.2-2,2.2-4,4.5-6,6.8.5-4.8.7-9.9.1-14.6,0,0-.2,0-.1,0,.5,5.2-.3,10.2-.6,15.3-1.7,1.9-3.3,3.8-5,5.6-.4.4-.8.9-1.2,1.3,0-.7,0-1.7.1-2.3,0-1.3.1-2.6,0-3.9,0,0-.1,0-.1,0-.2,2.1-.2,4.3-.3,6.4-1.5,1.6-3,3.2-4.6,4.7-2,2-4.3,3.9-6.2,6-.2.3,0,.7.4.5,2.2-1.5,4.1-3.6,6.1-5.5,1.6-1.6,3.2-3.2,4.7-4.8,2.6-.2,5.3-.4,7.8-1.1.1,0,0-.2,0-.2-2.3.2-4.6.7-6.9.9-.2,0-.3,0-.4,0,.3-.3.6-.7.9-1,1.8-1.8,3.5-3.7,5.2-5.5Z" fill="#cce5b5"/></g><path d="m32.4,91.9c-1.3-3.2,3.4-4.1,6.6-4.2-.4-.3-.8-.7-1.2-1-1.4-1.3-2.8-2.7-4.1-4.1,0,0,0,0-.1,0-1.9.6-8.2,1.2-8.1-2.3,0-2.6,3.2-1.9,5.6-1-1.3-1.6-2.4-3.4-3.4-5.2-1.8.2-6.4-.2-6.1-2.9.3-2.2,3-1,4.8,0-.7-1.9-1.2-4-1.3-6.1-1.8-.4-6-2.4-4.9-4.8,1-2.2,3.7.5,5,2.2,0,0,0-.1.2-.1.6-2.1,1.9-5.6,3.5-4.1.8.7.2,2.3-.2,3.1-.6,1.4-1.5,2.5-2.6,3.3,0,1.9.4,3.7,1,5.5.1-2.1.5-4.6,2.2-3.9,1,.4.8,2.1.7,3-.2,1.5-.7,2.9-1.6,4.1,1,2.1,2.3,4,3.7,5.9-.4-2.7-.6-7.1,1.9-6.5,1.3.3,1.4,2.4,1.4,3.5,0,1.9-.4,3.7-1.3,5.3,1.7,1.9,3.5,3.6,5.3,5.1-1.6-2.9-3.7-7.4-.7-8.1,1.6-.3,2.7,2,3.2,3.3,1,2.2,1.3,4.6.9,7.1,0,.2.1.3.1.5,0,0,0,0,.1.1,1.7,1.2,3.5,2,5.3,2.9-2-2.7-4.6-6.9-1.7-8,1.5-.6,2.9,1.6,3.6,2.8,1.2,2.1,1.8,4.4,1.8,6.8,1.4.6,2.7,1.3,4,2,1.1.6,2.1,1.3,3.1,2.1-1.8-3.9-3.9-9.7-.1-10.2,2-.3,3.2,2.8,3.8,4.5,1.1,2.9,1.2,6,.6,9.1,0,.2.1.4,0,.6,1.2,1.2,2.3,2.5,3.3,3.9.4.6-.4,1.3-.8.7-1-1.4-2-2.6-3.2-3.8-2.8,2.1-11.4,6.1-13,1.1-1.4-4.4,5-4.8,9-4.7-2.2-1.7-4.5-3.1-7-4.2-1.7,2-7.9,6.9-9.9,3.3-1.7-3,2.8-4.5,5.9-5.1-1.9-.9-3.8-1.9-5.5-3.1-2.2,1.8-8.5,5.4-10,1.6Z" fill="#00b68e"/></g><path d="m199.4,131.8c1.3-3.3-3.4-4.1-6.6-4.2.4-.3.8-.7,1.2-1,1.4-1.3,2.8-2.7,4.1-4.1,0,0,0,0,.1,0,1.9.6,8.2,1.2,8.1-2.3,0-2.6-3.2-1.9-5.6-1,1.3-1.6,2.4-3.4,3.4-5.2,1.8.2,6.4-.2,6.1-2.9-.3-2.2-3-1-4.8,0,.7-1.9,1.2-4,1.3-6.1,1.8-.4,6-2.4,4.9-4.8-1-2.2-3.7.5-5,2.2,0,0,0-.1-.2-.1-.6-2.1-1.9-5.6-3.5-4.1-.8.7-.2,2.3.2,3.1.6,1.4,1.5,2.5,2.6,3.3,0,1.9-.4,3.7-1,5.5-.1-2.1-.5-4.6-2.2-3.9-1,.4-.8,2.1-.7,3,.2,1.5.7,2.9,1.6,4.1-1,2.1-2.3,4-3.7,5.9.3-2.7.6-7.1-1.9-6.5-1.3.3-1.4,2.4-1.4,3.5,0,1.9.4,3.7,1.3,5.3-1.7,1.9-3.5,3.6-5.3,5.1,1.6-2.9,3.7-7.4.7-8.1-1.6-.3-2.7,2-3.2,3.3-1,2.2-1.3,4.6-.9,7.1,0,.2-.1.3-.1.5,0,0,0,0-.1.1-1.7,1.2-3.5,2-5.3,2.9,2-2.7,4.6-6.9,1.7-8-1.5-.6-2.9,1.6-3.6,2.8-1.2,2.1-1.8,4.4-1.8,6.8-1.4.6-2.7,1.3-4,2-1.1.6-2.1,1.3-3.1,2.1,1.8-3.9,3.9-9.7.1-10.2-2-.3-3.2,2.8-3.8,4.5-1.1,2.9-1.2,6-.6,9.1,0,.2-.1.4,0,.6-1.2,1.2-2.3,2.5-3.3,3.9-.4.6.4,1.3.8.7,1-1.4,2-2.6,3.2-3.8,2.8,2.1,11.4,6.1,13,1.1,1.4-4.4-5-4.8-9-4.7,2.2-1.7,4.5-3.1,7-4.2,1.7,2,7.9,6.9,9.9,3.3,1.7-3-2.8-4.5-5.9-5.1,1.9-.9,3.8-1.9,5.5-3.1,2.2,1.8,8.5,5.4,10,1.6Z" fill="#00b68e"/><path d="m204,152.3c.3-1.5-2.3-7.5-6.6-7.5-9.1,0-5.7,4.2-12.9,4.7-7.2.5-9.1-17.7-18.6-18.7-9.5-1-11.5,12-16.7,14.6-5.3,2.6-10.5-8.9-15.5-4.7-5,4.2-3.6,9.4-9.3,8.4-5.7-1-10-2.6-13.4-.5-1.8,1.1-2.9,2.7-3.5,3.9h96.6Z" fill="url(#linear-gradient-3)"/></g></svg>