<?xml version="1.0" encoding="UTF-8"?>
<svg id="Layer_2" data-name="Layer 2" xmlns="http://www.w3.org/2000/svg" xmlns:xlink="http://www.w3.org/1999/xlink" viewBox="0 0 154.16 130.76">
  <defs>
    <linearGradient id="linear-gradient" x1="22.56" y1="-15.28" x2="92.87" y2="165.17" gradientUnits="userSpaceOnUse">
      <stop offset="0" stop-color="#86ddcf"/>
      <stop offset="1" stop-color="#00b68e"/>
    </linearGradient>
    <linearGradient id="linear-gradient-2" x1="127.46" y1="17.52" x2="65.63" y2="187.78" xlink:href="#linear-gradient"/>
    <linearGradient id="linear-gradient-3" x1="108.3" y1="-.62" x2="127.9" y2="60.19" gradientUnits="userSpaceOnUse">
      <stop offset="0" stop-color="#fee18e"/>
      <stop offset="1" stop-color="#fec800"/>
    </linearGradient>
    <linearGradient id="linear-gradient-4" x1="115.09" y1="73.01" x2="139.33" y2="148.21" xlink:href="#linear-gradient-3"/>
    <linearGradient id="linear-gradient-5" x1="-.66" y1="23.91" x2="10.97" y2="59.99" xlink:href="#linear-gradient-3"/>
    <linearGradient id="linear-gradient-6" x1="17.89" y1="1.41" x2="47.11" y2="54.23" xlink:href="#linear-gradient"/>
    <linearGradient id="linear-gradient-7" x1="120.63" y1="20.86" x2="138.94" y2="53.97" xlink:href="#linear-gradient"/>
    <linearGradient id="linear-gradient-8" x1="3" y1="76.59" x2="21.31" y2="109.69" xlink:href="#linear-gradient"/>
    <linearGradient id="linear-gradient-9" x1="135.85" y1="58.88" x2="154.16" y2="91.98" xlink:href="#linear-gradient"/>
    <linearGradient id="linear-gradient-10" x1="4.44" y1="17.79" x2="40.97" y2="131.1" xlink:href="#linear-gradient-3"/>
  </defs>
  <g>
    <ellipse cx="73.07" cy="69.65" rx="50.51" ry="48.83" fill="#a9eaff" stroke-width="0"/>
    <path d="m72.51,94l-6.91-4.45-2.69-7.05-6.14-1.48-6.91,1.48-2.69,5.57-4.61-.74-5.38-2.97-1.92-4.83s3.07-5.57,5.76-4.45c1.06.44,0,3.34,1.15,4.08,1.15.74,1.92-3.34,1.92-3.34l3.46-4.08s7.3-3.34,8.06-5.57c.77-2.23,1.15-8.54-1.15-12.25-2.3-3.71-6.53-4.83-8.45-3.34-1.92,1.48-8.06,7.05-9.22,5.2-1.15-1.86-4.22-4.08-3.46-5.94.77-1.86,3.46-4.83,5.38-3.34,1.92,1.48,5.38-1.11,6.14-3.34.77-2.23-1.92-4.45-1.54-6.68.38-2.23,3.46-3.71,7.3-2.23,3.84,1.48,1.15,6.68,1.15,8.54s3.07,5.94,4.99,6.68c1.92.74,3.84-2.6,5.38-5.2,1.54-2.6,7.3-2.23,8.45-4.45,1.15-2.23,2.3-8.54.77-12.25-1.54-3.71-8.06-5.57-8.06-5.57l-.05-.24c-22.41,4.27-39.5,22.88-40.62,45.53,1.34,2.54,2.68,5.05,3.04,5.56.77,1.11,2.69,6.68,2.69,6.68l4.99,7.42,5.76,1.86,5.38,1.11v6.31c0,1.48,6.91,4.45,8.06,5.94,1.15,1.48,3.84,7.8,5.76,10.39,1.92,2.6,4.61,3.71,5.76,4.45s1.92-1.86,2.3-2.97c.38-1.11.77-6.31.77-6.31l2.69-4.83,5.76-.74s1.92-3.34,1.92-4.45-4.99-3.71-4.99-3.71Z" fill="url(#linear-gradient)" stroke-width="0"/>
    <path d="m103.61,34.61l-1.92,4.08,3.84,4.08-.77,6.31,2.3,3.71c2.69,0,1.92,2.97,1.92,2.97l-7.3,3.71-.77,4.83,1.92,3.34c3.84-.37,8.45-2.6,8.45-2.6l4.22-1.48,3.07,4.08,1.54,4.08-4.22-.74c-3.46-2.23-8.06,0-8.06,0l-2.3,3.34-8.83,2.23-3.07,4.45-.38,7.8,3.84,4.08,6.91,1.48,4.22-2.97c0,2.97-2.3,7.42-2.3,7.42l-3.07,4.45-1.92,3.71v2.6h1.2c12.98-8.84,21.46-23.43,21.46-39.95,0-13.46-5.63-25.64-14.74-34.48l-5.22-.56Z" fill="url(#linear-gradient-2)" stroke-width="0"/>
  </g>
  <g>
    <path d="m118.16,27.73l-.7,2.51c-.14.52-.91.52-1.05,0l-.7-2.51c-.05-.18-.2-.32-.38-.37l-2.59-.68c-.54-.14-.54-.88,0-1.02l2.59-.68c.19-.05.33-.19.38-.37l.7-2.51c.14-.52.91-.52,1.05,0l.7,2.51c.05.18.2.32.38.37l2.59.68c.54.14.54.88,0,1.02l-2.59.68c-.19.05-.33.19-.38.37Z" fill="url(#linear-gradient-3)" stroke-width="0"/>
    <path d="m127.28,108.07l-.86,3.1c-.18.64-1.12.64-1.3,0l-.86-3.1c-.06-.22-.24-.4-.47-.46l-3.21-.84c-.66-.17-.66-1.08,0-1.26l3.21-.84c.23-.06.41-.23.47-.46l.86-3.1c.18-.64,1.12-.64,1.3,0l.86,3.1c.06.22.24.4.47.46l3.21.84c.66.17.66,1.08,0,1.26l-3.21.84c-.23.06-.41.23-.47.46Z" fill="url(#linear-gradient-4)" stroke-width="0"/>
    <path d="m5.19,40.73l-.41,1.49c-.09.31-.54.31-.62,0l-.41-1.49c-.03-.11-.12-.19-.23-.22l-1.54-.4c-.32-.08-.32-.52,0-.6l1.54-.4c.11-.03.2-.11.23-.22l.41-1.49c.09-.31.54-.31.62,0l.41,1.49c.03.11.12.19.23.22l1.54.4c.32.08.32.52,0,.6l-1.54.4c-.11.03-.2.11-.23.22Z" fill="url(#linear-gradient-5)" stroke-width="0"/>
    <path d="m32,26.45l-.51,1.82c-.11.38-.66.38-.76,0l-.51-1.82c-.04-.13-.14-.23-.28-.27l-1.89-.49c-.39-.1-.39-.64,0-.74l1.89-.49c.14-.04.24-.14.28-.27l.51-1.82c.11-.38.66-.38.76,0l.51,1.82c.04.13.14.23.28.27l1.89.49c.39.1.39.64,0,.74l-1.89.49c-.14.04-.24.14-.28.27Z" fill="url(#linear-gradient-6)" stroke-width="0"/>
    <path d="m129.48,36.55l-.32,1.14c-.07.24-.41.24-.48,0l-.32-1.14c-.02-.08-.09-.15-.17-.17l-1.18-.31c-.24-.06-.24-.4,0-.46l1.18-.31c.09-.02.15-.09.17-.17l.32-1.14c.07-.24.41-.24.48,0l.32,1.14c.02.08.09.15.17.17l1.18.31c.24.06.24.4,0,.46l-1.18.31c-.09.02-.15.09-.17.17Z" fill="url(#linear-gradient-7)" stroke-width="0"/>
    <path d="m11.84,92.28l-.32,1.14c-.07.24-.41.24-.48,0l-.32-1.14c-.02-.08-.09-.15-.17-.17l-1.18-.31c-.24-.06-.24-.4,0-.46l1.18-.31c.09-.02.15-.09.17-.17l.32-1.14c.07-.24.41-.24.48,0l.32,1.14c.02.08.09.15.17.17l1.18.31c.24.06.24.4,0,.46l-1.18.31c-.09.02-.15.09-.17.17Z" fill="url(#linear-gradient-8)" stroke-width="0"/>
    <path d="m144.7,74.57l-.32,1.14c-.07.24-.41.24-.48,0l-.32-1.14c-.02-.08-.09-.15-.17-.17l-1.18-.31c-.24-.06-.24-.4,0-.46l1.18-.31c.09-.02.15-.09.17-.17l.32-1.14c.07-.24.41-.24.48,0l.32,1.14c.02.08.09.15.17.17l1.18.31c.24.06.24.4,0,.46l-1.18.31c-.09.02-.15.09-.17.17Z" fill="url(#linear-gradient-9)" stroke-width="0"/>
    <path d="m22.82,70.62l-1.3,4.67c-.27.97-1.69.97-1.96,0l-1.3-4.67c-.09-.34-.37-.6-.71-.69l-4.83-1.26c-1-.26-1-1.63,0-1.89l4.83-1.26c.35-.09.62-.35.71-.69l1.3-4.67c.27-.97,1.69-.97,1.96,0l1.3,4.67c.09.34.37.6.71.69l4.83,1.26c1,.26,1,1.63,0,1.89l-4.83,1.26c-.35.09-.62.35-.71.69Z" fill="url(#linear-gradient-10)" stroke-width="0"/>
  </g>
  <path d="m63.56,11c.16-.78-1.32-3.83-3.78-3.83-5.19,0-3.28,2.11-7.38,2.38-4.1.26-5.2-8.99-10.67-9.52s-6.56,6.08-9.57,7.4c-3.01,1.32-6.04-4.54-8.9-2.4s-2.04,4.78-5.32,4.25c-3.28-.53-5.74-1.32-7.66-.26-1.03.57-1.66,1.37-2.02,1.98h55.31Z" fill="#a9eaff" stroke-width="0"/>
  <path d="m154.15,130.76c.16-.78-1.32-3.83-3.78-3.83-5.19,0-3.28,2.11-7.38,2.38-4.1.26-5.2-8.99-10.67-9.52-5.47-.53-6.56,6.08-9.57,7.4-3.01,1.32-6.04-4.54-8.9-2.4-2.86,2.14-2.04,4.78-5.32,4.25-3.28-.53-5.74-1.32-7.66-.26-1.03.57-1.66,1.37-2.02,1.98h55.31Z" fill="#a9eaff" stroke-width="0"/>
</svg>