<?xml version="1.0" encoding="UTF-8"?>
<svg id="Layer_2" data-name="Layer 2" xmlns="http://www.w3.org/2000/svg" xmlns:xlink="http://www.w3.org/1999/xlink" viewBox="0 0 139.32 137.43">
  <defs>
    <linearGradient id="linear-gradient" x1="48.52" y1="-1880.28" x2="66.59" y2="-1803.56" gradientTransform="translate(-1426.77 1117.1) rotate(55.1)" gradientUnits="userSpaceOnUse">
      <stop offset=".11" stop-color="#f7f7f7"/>
      <stop offset=".24" stop-color="#f0f5f0"/>
      <stop offset=".43" stop-color="#dfefdf"/>
      <stop offset=".64" stop-color="#c2e6c2"/>
      <stop offset=".87" stop-color="#9ad99a"/>
      <stop offset="1" stop-color="#81d281"/>
    </linearGradient>
    <linearGradient id="linear-gradient-2" x1="90.55" y1="-1882.91" x2="59.12" y2="-1823.71" xlink:href="#linear-gradient"/>
    <linearGradient id="linear-gradient-3" x1="-.19" y1="64.12" x2="68.64" y2="174.77" gradientUnits="userSpaceOnUse">
      <stop offset="0" stop-color="#fee18e"/>
      <stop offset="1" stop-color="#fec800"/>
    </linearGradient>
    <linearGradient id="linear-gradient-4" x1="224.11" y1="46.93" x2="205.05" y2="110.89" gradientTransform="translate(-179.33)" gradientUnits="userSpaceOnUse">
      <stop offset="0" stop-color="#aaa0ff"/>
      <stop offset="1" stop-color="#6b55ff"/>
    </linearGradient>
    <linearGradient id="linear-gradient-5" x1="220.78" y1="55.36" x2="180.9" y2="144.27" xlink:href="#linear-gradient-4"/>
    <linearGradient id="linear-gradient-6" x1="199.47" y1="32.06" x2="204.92" y2="25.71" gradientTransform="translate(-179.33)" gradientUnits="userSpaceOnUse">
      <stop offset="0" stop-color="#fcc198"/>
      <stop offset=".21" stop-color="#fbbd96"/>
      <stop offset=".42" stop-color="#f8b192"/>
      <stop offset=".63" stop-color="#f39d8a"/>
      <stop offset=".84" stop-color="#ec8280"/>
      <stop offset="1" stop-color="#e66776"/>
    </linearGradient>
    <linearGradient id="linear-gradient-7" x1="-3200.43" y1="13.25" x2="-3191.7" y2="28.78" gradientTransform="translate(-3169.18) rotate(-180) scale(1 -1)" xlink:href="#linear-gradient-6"/>
    <linearGradient id="linear-gradient-8" x1="12.23" y1="32.34" x2="35.29" y2="80.32" xlink:href="#linear-gradient-3"/>
    <linearGradient id="linear-gradient-9" x1="50.49" y1="36.84" x2="23.17" y2="47.52" gradientTransform="matrix(1,0,0,1,0,0)" xlink:href="#linear-gradient-6"/>
    <linearGradient id="linear-gradient-10" x1="12.13" y1="60.99" x2="99.84" y2="110.37" gradientUnits="userSpaceOnUse">
      <stop offset="0" stop-color="#86ddcf"/>
      <stop offset="1" stop-color="#00b68e"/>
    </linearGradient>
    <linearGradient id="linear-gradient-11" x1="67.91" y1="38.27" x2="81.89" y2="79.83" gradientUnits="userSpaceOnUse">
      <stop offset="0" stop-color="#5cf79f"/>
      <stop offset=".18" stop-color="#5bf298"/>
      <stop offset=".43" stop-color="#58e587"/>
      <stop offset=".72" stop-color="#54d06a"/>
      <stop offset="1" stop-color="#50b848"/>
    </linearGradient>
    <linearGradient id="linear-gradient-12" x1="126.17" y1="89.65" x2="94.43" y2="182.65" xlink:href="#linear-gradient-11"/>
  </defs>
  <g>
    <g>
      <g>
        <path d="m131.06,106.58s-.04-.08-.07-.12c-3.42-5.01-13.82-3.62-23.24,3.11-9.42,6.73-14.29,16.24-10.87,21.25.03.04.06.07.09.11l34.09-24.35Z" fill="url(#linear-gradient)" stroke-width="0"/>
        <path d="m130.98,106.46s.06.07.09.11c3.42,5.01-1.45,14.53-10.87,21.25-9.42,6.73-19.83,8.12-23.24,3.11-.03-.04-.04-.08-.07-.12l34.09-24.35Z" fill="url(#linear-gradient-2)" stroke-width="0"/>
      </g>
      <line x1="95.83" y1="131.73" x2="128.04" y2="108.73" fill="none" stroke="#f7f7f7" stroke-miterlimit="10" stroke-width=".5"/>
      <line x1="100.89" y1="127.89" x2="101.95" y2="119.17" fill="none" stroke="#f7f7f7" stroke-miterlimit="10" stroke-width=".5"/>
      <line x1="106.8" y1="123.67" x2="115.58" y2="124.8" fill="none" stroke="#f7f7f7" stroke-miterlimit="10" stroke-width=".5"/>
      <line x1="114.73" y1="118.01" x2="116.35" y2="110.59" fill="none" stroke="#f7f7f7" stroke-miterlimit="10" stroke-width=".5"/>
      <line x1="121.49" y1="113.41" x2="126.75" y2="114.43" fill="none" stroke="#f7f7f7" stroke-miterlimit="10" stroke-width=".5"/>
    </g>
    <g>
      <path d="m19.54,115.03c.89,3.38-11.87-1.68-9.39,4.1s16.03,6.61,16.47,8.3c.45,1.69-6.43.34-6.49,3.87s14.91,2.34,13.72,5.34c-.48.21-.93.48-1.35.79h13.08c1.18-.11,2.23-.09,3.17,0h4.3c-.92-2.23-2.3-7.62,1.12-15.47,4.58-10.51-1.81-7.62-3.39-3.33-2.88,1.33-2.31-14.02-5.75-13.83-3.44.19-1.85,7.17-3.52,6.78-1.67-.39-3-14.21-8.74-16.53-5.74-2.31-.3,10.54-3.64,9.76-3.34-.78-4.17-12.03-7.29-12.18-3.12-.15,1.38,7.2-1.32,7.04-2.7-.16-4.48-6.07-7.99-5.37-3.52.71-4.88-.83-4.88-.83,0,0,1.53,1.36.98,4.98-.55,3.62,5.29,5.21,5.55,7.97.26,2.76-7.09-1.56-6.82,1.62.27,3.18,11.28,3.6,12.18,6.98Z" fill="url(#linear-gradient-3)" stroke-width="0"/>
      <path d="m23.37,120.2c2.21-.11,4.43-.28,6.64-.3,2.12-.02,3.96,1,6.02,1.21,1.78,1.79,3.57,3.57,5.33,5.38.73.76,1.46,1.51,2.19,2.27-.95-.23-1.9-.45-2.85-.68-1.06-.25-2.17-.66-3.26-.66-.96,0-2.04.54-2.97.76-1.38.33-2.79.54-4.2.67-.15.01-.15.25,0,.24,2.26-.18,4.45-.63,6.62-1.28,1.15-.35,2.61.28,3.73.55l3.29.79c1.45,1.5,2.9,3,4.34,4.5-2.66.1-5.33.98-7.65,2.25-.13.07-.01.27.12.2,2.5-1.3,5.06-1.9,7.81-2.16,1.12,1.16,2.26,2.32,3.38,3.48h1c-1.03-1.09-2.06-2.18-3.11-3.26-.3-1.42-.89-2.86-.64-4.31.28-1.68.68-3.35.99-5.03.03-.15-.19-.21-.23-.06-.4,1.76-.82,3.53-1.13,5.31-.19,1.11.16,2.43.52,3.59-1.22-1.26-2.45-2.52-3.69-3.76-.27-.87-.4-1.76-.41-2.68,0-1.07.34-2.1.41-3.17.07-1.09-.37-2.19-.4-3.29-.03-1.29.02-2.59.02-3.89,0-.13-.2-.13-.2,0-.04,1.3-.08,2.59-.09,3.89,0,1.13.36,2.18.37,3.3,0,1.06-.38,2.1-.41,3.17-.02.75.08,1.51.27,2.24-1.05-1.05-2.1-2.1-3.17-3.14-2.5-2.43-5.01-4.85-7.47-7.32-.69-4.24.8-8.6,0-12.83-.03-.18-.31-.1-.27.08.78,4.1-.62,8.33-.03,12.45-3.03-3.05-5.98-6.17-8.73-9.48-.16-.2-.43.09-.27.29,3.22,3.98,6.78,7.62,10.38,11.23-1.8-.25-3.47-1.07-5.33-1.13-2.31-.07-4.67.22-6.97.35-.15,0-.14.24,0,.23Z" fill="#fff" stroke-width="0"/>
    </g>
    <g>
      <path d="m123.81,84.31s.27,11.52-10.08,23.74c-10.35,12.21-22.06,10.11-22.06,10.11,0,0-2.38-11.92,9.25-22.86,11.63-10.94,22.9-10.99,22.9-10.99Z" fill="#7cd161" stroke-width="0"/>
      <path d="m98.86,111.56c3.28-1.21,6.65-2.09,10.06-2.82.1-.02.06-.17-.04-.15-3.23.64-6.4,1.53-9.55,2.49,1.39-1.46,2.75-2.94,4.09-4.43.95-1.05,1.89-2.11,2.83-3.16,1.51-.38,3.01-.77,4.52-1.17.74-.19,1.49-.39,2.23-.59.24-.06,2.9-.82,2.91-.51,0,.09.12.08.13,0l.02-.15s-.02-.05-.04-.06c-.31-.18-.48-.11-.83-.02-.87.22-1.74.44-2.61.66-1.74.44-3.48.88-5.22,1.32-.28.07-.56.15-.85.22,1.61-1.8,3.23-3.6,4.87-5.38.57-.62,1.15-1.23,1.73-1.85,2.25-.53,4.5-1.06,6.75-1.59.08-.02.04-.14-.03-.12-1.99.47-3.97.93-5.96,1.4-.22.05-.43.12-.6.13,2.19-2.3,4.41-4.59,6.43-7.03.14-.17-.09-.41-.25-.25-2.29,2.23-4.43,4.66-6.58,7.04-.03-.08-.04-.18-.04-.32,0-.5-.02-.99-.03-1.49-.04-1.11-.15-2.23-.28-3.33,0-.05-.09-.05-.08,0,.19,1.77.28,3.54.27,5.32-.45.5-.9.99-1.36,1.48-1.76,1.89-3.53,3.76-5.32,5.62-.01-.35.06-.81.06-.89.05-.88.07-1.76.09-2.64.04-1.76,0-3.52-.14-5.28,0-.06-.09-.06-.09,0,.14,3.02.12,6.02-.13,9.03-.88.92-1.77,1.85-2.65,2.77-1.41,1.48-2.81,2.96-4.21,4.45.32-3.17.47-6.48.09-9.62,0-.06-.11-.06-.1,0,.33,3.39-.2,6.69-.4,10.05-1.17,1.24-2.34,2.48-3.52,3.71-.28.29-.56.57-.84.86-.07-.46.06-1.09.07-1.5.03-.85.08-1.71.06-2.56,0-.06-.08-.05-.08,0-.14,1.4-.17,2.82-.22,4.22-1.05,1.06-2.13,2.09-3.21,3.11-1.43,1.34-3,2.56-4.36,3.97-.17.18.06.48.26.34,1.54-1.01,2.89-2.36,4.25-3.6,1.13-1.03,2.22-2.09,3.32-3.16,1.8-.13,3.7-.24,5.44-.71.08-.02.06-.14-.02-.14-1.62.11-3.24.44-4.86.59-.11.01-.2,0-.28-.02.22-.21.44-.43.66-.64,1.23-1.19,2.43-2.41,3.62-3.65Z" fill="#cce5b5" stroke-width="0"/>
    </g>
    <g>
      <path d="m139.32,124.77s-3.23,1.58-8.04.09c-4.81-1.49-5.74-5.24-5.74-5.24,0,0,3.07-2.26,7.69-.22,4.62,2.03,6.09,5.37,6.09,5.37Z" fill="#7cd161" stroke-width="0"/>
      <path d="m128.35,120.9c.77.82,1.46,1.71,2.11,2.62.02.03.06,0,.04-.03-.6-.88-1.26-1.7-1.95-2.51.59.22,1.19.43,1.79.64.42.14.84.29,1.27.43.3.4.61.79.92,1.19.15.2.3.39.46.59.05.06.61.76.52.8-.02.01,0,.05.02.04h.04s.01-.03.01-.03c.01-.11-.03-.16-.1-.25-.18-.23-.35-.46-.53-.69-.35-.46-.7-.92-1.05-1.38-.06-.07-.11-.15-.17-.22.72.25,1.44.49,2.16.75.25.09.5.18.75.27.44.6.89,1.2,1.33,1.8.02.02.04,0,.03-.03-.39-.53-.78-1.06-1.17-1.59-.04-.06-.09-.11-.12-.16.94.35,1.88.71,2.83,1,.07.02.1-.08.04-.11-.93-.39-1.9-.71-2.85-1.04.02-.02.05-.04.09-.05.14-.06.28-.13.42-.2.31-.16.61-.33.91-.52.01,0,0-.03-.01-.02-.48.29-.97.54-1.47.77-.2-.07-.4-.14-.6-.21-.76-.28-1.53-.56-2.29-.85.1-.05.24-.09.26-.1.26-.1.51-.21.76-.32.5-.22,1-.46,1.48-.73.02,0,0-.03-.01-.03-.84.44-1.69.82-2.58,1.13-.38-.14-.75-.29-1.13-.43-.6-.23-1.21-.45-1.81-.67.94-.32,1.9-.7,2.74-1.22.02-.01,0-.04-.01-.03-.92.54-1.92.81-2.9,1.19-.5-.19-1.01-.37-1.51-.56-.12-.04-.24-.09-.35-.14.12-.08.32-.12.43-.17.24-.1.49-.2.73-.31.02,0,0-.03-.01-.02-.41.14-.82.32-1.23.48-.44-.17-.87-.36-1.3-.55-.57-.25-1.12-.56-1.69-.78-.07-.03-.13.08-.06.12.49.32,1.05.55,1.58.79.44.2.88.39,1.33.58.27.52.55,1.07.91,1.53.02.02.05,0,.04-.02-.24-.47-.54-.9-.8-1.37-.02-.03-.03-.06-.03-.09.09.04.18.08.27.11.5.21,1,.41,1.5.6Z" fill="#cce5b5" stroke-width="0"/>
    </g>
    <g>
      <path d="m.49,102.25s3.35,1.31,5.61,5.9c2.26,4.59.25,7.87.25,7.87,0,0-3.72-.72-5.46-5.55-1.74-4.82-.4-8.22-.4-8.22Z" fill="#7cd161" stroke-width="0"/>
      <path d="m5.32,113.05c.05-1.13.2-2.26.4-3.37,0-.03-.04-.04-.05,0-.21,1.05-.33,2.11-.44,3.18-.25-.59-.51-1.18-.78-1.77-.19-.41-.38-.82-.57-1.24.07-.5.14-1,.21-1.5.03-.25.07-.49.1-.74.01-.08.11-.97.2-.94.02,0,.04-.03.01-.04l-.04-.02s-.02,0-.02,0c-.09.07-.09.13-.11.25-.04.29-.08.58-.13.87-.08.58-.17,1.15-.25,1.73-.01.09-.03.19-.04.28-.32-.7-.65-1.41-.96-2.12-.11-.25-.22-.5-.32-.74.12-.74.24-1.48.36-2.23,0-.03-.03-.03-.04,0-.11.65-.21,1.31-.31,1.96-.01.07-.02.14-.03.2-.4-.94-.79-1.88-1.24-2.79-.03-.06-.13-.02-.1.05.36.96.81,1.9,1.23,2.83-.03,0-.06,0-.1-.03-.14-.06-.29-.11-.43-.17-.33-.12-.66-.22-.99-.32-.02,0-.03.02,0,.03.53.16,1.05.34,1.56.56.09.2.18.39.26.59.33.76.65,1.52.98,2.28-.1-.04-.23-.11-.25-.13-.25-.12-.5-.23-.75-.35-.5-.22-1.01-.42-1.53-.59-.02,0-.03.02-.01.03.89.32,1.74.69,2.58,1.13.16.38.32.76.48,1.13.25.6.51,1.2.77,1.81-.87-.48-1.81-.92-2.75-1.19-.02,0-.03.02-.01.03,1.01.31,1.9.87,2.84,1.33.22.5.43,1,.64,1.51.05.12.1.24.15.36-.14-.03-.31-.15-.42-.2-.24-.11-.48-.23-.73-.33-.02,0-.02.02,0,.02.39.21.79.39,1.19.58.18.44.34.89.51,1.34.21.59.37,1.21.62,1.79.03.07.14.04.13-.04-.11-.58-.33-1.16-.52-1.72-.16-.46-.33-.92-.51-1.38.18-.56.38-1.14.45-1.73,0-.03-.03-.04-.04-.01-.16.5-.26,1.03-.42,1.53-.01.03-.02.06-.04.08l-.1-.28c-.19-.51-.4-1.02-.61-1.53Z" fill="#cce5b5" stroke-width="0"/>
    </g>
    <g>
      <path d="m20,78.78s11.19-1.26,23.97,8.25c12.77,9.51,11.73,21.63,11.73,21.63,0,0-11.4,3.45-23.04-7.48-11.64-10.93-12.66-22.41-12.66-22.41Z" fill="#7cd161" stroke-width="0"/>
      <path d="m48.66,101.89c-1.45-3.24-2.6-6.61-3.61-10.02-.03-.1-.17-.04-.15.06.9,3.24,2.03,6.39,3.24,9.52-1.54-1.29-3.09-2.55-4.66-3.79-1.11-.87-2.21-1.75-3.32-2.62-.5-1.51-1.01-3.01-1.52-4.51-.25-.74-.51-1.48-.76-2.22-.08-.24-1.05-2.89-.75-2.93.08,0,.07-.13-.01-.13h-.14s-.05.02-.06.04c-.15.33-.06.5.05.85.29.87.58,1.74.86,2.6.57,1.74,1.15,3.47,1.73,5.21.09.28.19.56.29.84-1.89-1.49-3.78-2.99-5.65-4.51-.65-.53-1.3-1.07-1.95-1.61-.71-2.25-1.42-4.5-2.13-6.75-.02-.08-.14-.03-.11.04.62,1.99,1.25,3.97,1.88,5.96.07.22.15.42.18.6-2.43-2.03-4.85-4.1-7.39-5.96-.18-.13-.39.12-.22.28,2.36,2.15,4.91,4.12,7.42,6.11-.08.03-.18.06-.31.07-.48.04-.96.1-1.44.16-1.08.14-2.15.34-3.22.57-.05.01-.05.1,0,.09,1.7-.35,3.42-.59,5.15-.73.52.42,1.04.84,1.56,1.26,1.99,1.63,3.96,3.28,5.93,4.94-.34.04-.79.01-.88.01-.86.03-1.72.08-2.57.13-1.71.11-3.43.31-5.12.6-.06,0-.05.1,0,.09,2.93-.4,5.85-.64,8.8-.64.98.82,1.95,1.65,2.93,2.47,1.56,1.31,3.12,2.61,4.69,3.91-3.11-.05-6.35.07-9.37.73-.06.01-.05.11,0,.1,3.27-.62,6.53-.37,9.82-.45,1.31,1.09,2.61,2.17,3.91,3.27.3.26.61.52.91.78-.44.11-1.07.03-1.46.05-.83.05-1.67.07-2.49.15-.05,0-.04.08,0,.08,1.37.02,2.75-.07,4.13-.14,1.12.98,2.22,1.99,3.3,3.01,1.43,1.34,2.74,2.84,4.24,4.1.18.16.46-.1.31-.3-1.12-1.48-2.55-2.75-3.87-4.03-1.1-1.06-2.23-2.09-3.36-3.11-.28-1.82-.55-3.75-1.16-5.49-.03-.08-.15-.05-.13.03.24,1.64.7,3.26.99,4.9.02.11.02.2,0,.29-.23-.21-.45-.41-.68-.62-1.26-1.15-2.55-2.28-3.86-3.38Z" fill="#cce5b5" stroke-width="0"/>
    </g>
    <path d="m122.88,120.7c.88-2.07-2.3-2.6-4.48-2.69.26-.21.52-.42.78-.64.93-.81,1.89-1.69,2.81-2.63.03.01.05.03.08.04,1.25.39,5.53.77,5.52-1.44,0-1.69-2.18-1.22-3.79-.61.86-1.04,1.64-2.14,2.28-3.3,1.19.12,4.36-.15,4.1-1.84-.21-1.4-2.02-.65-3.25.05.49-1.23.8-2.52.88-3.87,1.2-.28,4.06-1.52,3.32-3.04-.69-1.42-2.48.34-3.39,1.42-.03-.04-.06-.07-.11-.09-.42-1.33-1.29-3.56-2.4-2.64-.55.46-.13,1.46.1,1.98.39.88,1.01,1.58,1.79,2.1-.04,1.19-.28,2.36-.68,3.5-.07-1.35-.36-2.95-1.47-2.5-.66.26-.56,1.35-.5,1.91.11.97.5,1.83,1.1,2.58-.68,1.31-1.55,2.57-2.54,3.74.24-1.72.42-4.52-1.26-4.13-.86.2-.92,1.54-.94,2.24-.04,1.21.28,2.34.88,3.36-1.14,1.18-2.37,2.27-3.59,3.22,1.11-1.86,2.5-4.74.47-5.14-1.07-.22-1.81,1.28-2.19,2.07-.67,1.42-.86,2.95-.64,4.49-.06.1-.08.21-.07.32-.03.02-.07.04-.1.06-1.13.74-2.34,1.3-3.56,1.82,1.34-1.69,3.12-4.38,1.16-5.06-1.04-.36-1.96,1.02-2.44,1.75-.84,1.31-1.23,2.79-1.21,4.35-.93.39-1.84.8-2.73,1.29-.74.41-1.45.86-2.13,1.34,1.23-2.46,2.68-6.2.09-6.51-1.38-.17-2.18,1.8-2.58,2.84-.72,1.86-.81,3.82-.39,5.76-.06.13-.09.27-.07.4-.79.78-1.53,1.61-2.22,2.5-.28.36.26.81.54.45.67-.86,1.39-1.66,2.14-2.4,1.91,1.33,7.71,3.91,8.8.72.95-2.78-3.36-3.08-6.13-2.97,1.46-1.06,3.05-1.95,4.76-2.68,1.18,1.3,5.35,4.4,6.72,2.09,1.13-1.91-1.87-2.86-4.02-3.26,1.31-.6,2.55-1.24,3.76-1.99,1.48,1.17,5.77,3.44,6.8,1.05Z" fill="#00b68e" stroke-width="0"/>
    <path d="m56.9,32.77s1.37,1.77,2.92,3.36c1.55,1.59,4.93,4.86,5.66,9.34.73,4.48-3.19,10.46-9.12,10.46s-9.3-3.55-9.94-6.91c-.64-3.36,1.37-8.31,3.83-11.02,2.46-2.71,3.63-4.34,3.46-5.35s-.54-1.94-.54-1.94c0,0-1.19-1.59-.73-2.15.46-.56,4.38-.65,4.83-.09.46.56-1.09,2.52-.82,3.17.27.65.46,1.12.46,1.12Z" fill="#254da1" stroke-width="0"/>
    <g>
      <g>
        <path d="m42.57,125.45s.7,3,2.64,4.29c1.82,1.15,11.55-5.03,10.66-6.28-.89-1.25-7.7.55-7.7.55l-1.69-1.01s-1.16-.99-3.92,2.44Z" fill="#32326b" stroke-width="0"/>
        <path d="m12.6,69.07s14.68,22.68,25.99,55.92c.45,1.31,1.79,2.06,3.1,1.72,1.8-.46,4.24-1.52,6-3.94.42-.57.52-1.32.38-2.01-1.28-6.33-8.13-38.47-18.37-52-6-5.52-16.49-5.22-17.09.31Z" fill="url(#linear-gradient-4)" stroke-width="0"/>
        <g>
          <path d="m13.28,127.38s-1.8,3.22-1.12,5.98c.67,2.53,14.17,5.29,14.39,3.45.22-1.84-7.2-5.98-7.2-5.98l-.67-2.3s-.22-1.84-5.4-1.15Z" fill="#32326b" stroke-width="0"/>
          <path d="m21,70.91s-1.75,28.02-10.12,54.09c-.26.81-.02,1.69.63,2.21,1.3,1.06,4.02,2.47,9.04,2.08.62-.05,1.21-.4,1.53-.94,3.73-6.25,14.16-44.3,13.6-63.27-.9-9.21-14.69,5.83-14.69,5.83Z" fill="url(#linear-gradient-5)" stroke-width="0"/>
        </g>
        <g>
          <g>
            <polygon points="21.93 23.77 21.62 29.8 27.4 29.8 26.45 25.5 21.93 23.77" fill="url(#linear-gradient-6)" stroke-width="0"/>
            <path d="m20.31,20.91c0-2.79,2.21-5.06,4.94-5.06,2.53,0,4.61,1.94,4.9,4.45.01.04.03.07.04.1,0,0,.41,5.14-.08,8-.66.84-2.72.76-5.27-.51-1.19-.59-1.96-1.78-2.45-2.88-1.25-.92-2.08-2.42-2.08-4.11Z" fill="url(#linear-gradient-7)" stroke-width="0"/>
          </g>
          <path d="m20.94,28.32s7.07,1.03,7.84,1.68c.33.52.44,1.29.44,1.29h-9.38l1.1-2.97Z" fill="#f1f2f2" stroke-width="0"/>
          <path d="m31.15,16.31c-.17-1.17-1.86-1.51-2.66-1.22-.43.16-.45.14-1.19,0-1.61-.63-3.18-.85-4.67-.05-1.21.66-1.84,1.47-2.16,2.17-1.23.53-.38,1.03-1.16,1.96-.84,1-.49,1.65.14,3.8.63,2.15,1.82,3.73,2.24,4.23.42.5,1.26.29,1.75.57.49.29,1.68-.29,2.31-1.22.63-.93,1.05-2.3,1.05-3.08,0-.31-.15-.73-.33-1.19.11-.32.29-.64.54-.6.49.07.63.72.98,1.36.35.65.14,1.51.14,1.51h.63s.07-1,0-1.65c-.07-.65-.42-1.22-1.19-2.3-.28-.39-.46-.73-.59-1.02.46.09.9.14,1.28.1.32-.04.63-.11.92-.21.07,0,.13-.01.2-.02,2.11-.47,1.94-1.98,1.76-3.15Z" fill="#254da1" stroke-width="0"/>
        </g>
        <path d="m16.65,31.94s10.49-4.6,15.89,3.99c4.5,7.98,4.2,31.3,3.3,34.07-1.5,2.76-18.59,4.91-23.09,1.53-4.5-3.38-2.1-37.44,3.9-39.59Z" fill="url(#linear-gradient-8)" stroke-width="0"/>
      </g>
      <path d="m22.97,42.87s13.06,9.12,18.59,9.12,13.68-17.14,13.68-17.14c0,0,2.3-1.26,2.3-3.3,0-2.2-3.84,1.1-3.84,1.1,0,0-.31-2.36-.92-1.73-.61.63-.31,2.36-.31,2.36,0,0-8.14,8.49-9.83,9.75-2.15,1.26-10.14-7.39-14.44-8.49-4.3-1.1-8.3,4.88-5.22,8.34Z" fill="url(#linear-gradient-9)" stroke-width="0"/>
      <path d="m21.99,36.21s-3.53,4.25,2.15,8.81c4.76,4.09,9.37,5.51,9.37,5.51,0,0,6.15-5.51,4.76-10.85,0,0-7.99-6.13-10.76-6.45-2.77-.31-5.53,2.99-5.53,2.99Z" fill="#f1f2f2" stroke-width="0"/>
    </g>
    <g>
      <path d="m44.9,57.88l1.77,75.22c.06,2.61,2.15,4.7,4.7,4.7h47.19c2.55,0,4.64-2.09,4.7-4.7l1.77-75.22h-60.13Z" fill="url(#linear-gradient-10)" stroke-width="0"/>
      <rect x="39.84" y="52.65" width="69.32" height="10.46" rx="1.5" ry="1.5" fill="url(#linear-gradient-11)" stroke-width="0"/>
      <g>
        <path d="m63.64,96.33l-1.67-.97,5.39-.09,2.79,4.89-1.67-.92-2.23,4.03c-.55.99-.86,2.1-.89,3.23,0,.04,0,.09,0,.13l-3.04-5.38s-1.32-2.32,1.32-4.92Z" fill="#f7f7f7" stroke-width="0"/>
        <path d="m78.56,109.49l-.03,1.97-2.67-4.8,2.85-4.85v1.94s4.54.07,4.54.07c1.11.02,2.21-.23,3.2-.76.04-.02.08-.04.11-.06l-3.14,5.31s-1.36,2.3-4.85,1.18Z" fill="#f7f7f7" stroke-width="0"/>
        <path d="m82.44,89.72l1.49-.89-2.64,4.82h-5.53s1.62-1,1.62-1l-2.19-3.82s.82-2.16,3.08-2.6c2.33-.46,4.17,3.49,4.17,3.49Z" fill="#f7f7f7" stroke-width="0"/>
        <path d="m73.71,103.69v5.72h-4.89s-2.14-.05-2.48-2.54c-.28-2.07.85-3.18.85-3.18h6.51Z" fill="#f7f7f7" stroke-width="0"/>
        <path d="m79.89,97.21l4.81-2.91,2.49,4.3s.6,2.14-1.36,3.65c-1.6,1.24-2.62.7-2.62.7l-3.32-5.74Z" fill="#f7f7f7" stroke-width="0"/>
        <path d="m66.06,91.78l2.51-4.5s.8-1.36,2.05-1.36h5.9s-1.22.95-2.45,2.93c-1.25,2.02-3.16,5.74-3.16,5.74l-4.87-2.8Z" fill="#f7f7f7" stroke-width="0"/>
      </g>
    </g>
    <path d="m137.4,137.81c.16-.83-1.32-4.06-3.79-4.06-5.19,0-3.28,2.24-7.39,2.52-4.1.28-5.2-9.52-10.67-10.08s-6.57,6.44-9.58,7.84c-3.01,1.4-6.04-4.81-8.91-2.55-2.86,2.27-2.04,5.07-5.32,4.51s-5.75-1.4-7.66-.28c-1.03.6-1.66,1.45-2.03,2.1h55.34Z" fill="url(#linear-gradient-12)" stroke-width="0"/>
    <g>
      <path d="m15.18,85.25s1.86-1.27,4.97-.8c3.11.48,4.01,2.72,4.01,2.72,0,0-1.7,1.68-4.74.85-3.04-.83-4.24-2.77-4.24-2.77Z" fill="#7cd161" stroke-width="0"/>
      <path d="m22.31,86.63c-.55-.43-1.05-.92-1.54-1.43-.01-.01-.03,0-.02.02.45.49.93.94,1.43,1.38-.39-.08-.77-.16-1.16-.23-.27-.05-.55-.1-.82-.15-.22-.22-.45-.44-.67-.65-.11-.11-.22-.21-.33-.32-.04-.04-.44-.41-.39-.45.01,0,0-.03-.01-.02h-.03s0,.02,0,.03c0,.07.03.09.08.14.13.13.26.25.39.38.26.25.51.5.77.76.04.04.08.08.13.12-.47-.09-.94-.17-1.4-.26-.16-.03-.32-.07-.49-.1-.33-.33-.65-.66-.98-.99-.01-.01-.03,0-.02.02.29.29.58.58.87.87.03.03.06.06.09.09-.61-.13-1.22-.27-1.84-.36-.04,0-.06.06-.01.07.61.16,1.24.26,1.86.38-.01.01-.03.03-.05.04-.08.05-.16.11-.24.16-.18.13-.35.26-.52.4,0,0,0,.02,0,.01.27-.22.55-.43.84-.61.13.02.26.05.39.08.5.1.99.21,1.49.31-.06.04-.14.08-.15.08-.15.09-.3.17-.44.27-.29.18-.58.38-.85.59,0,0,0,.02,0,.02.48-.35.98-.66,1.5-.94.25.05.49.11.74.16.39.09.79.17,1.18.25-.55.28-1.11.61-1.59,1.01,0,0,0,.02.01.02.52-.42,1.12-.68,1.69-1,.33.07.66.14.98.21.08.02.15.03.23.05-.07.06-.19.11-.25.15-.14.09-.29.17-.43.26,0,0,0,.02,0,.01.24-.13.48-.27.72-.41.29.07.57.14.85.22.37.1.74.24,1.12.33.05.01.07-.06.03-.08-.33-.16-.7-.25-1.04-.35-.29-.08-.58-.16-.87-.23-.21-.3-.43-.61-.7-.86-.01-.01-.03,0-.02.02.19.27.42.51.61.77.01.02.02.03.03.05-.06-.02-.12-.03-.18-.05-.33-.08-.65-.16-.98-.23Z" fill="#cce5b5" stroke-width="0"/>
    </g>
  </g>
  <path d="m42.03,7.75c.1-.55-.88-2.7-2.52-2.7-3.45,0-2.18,1.49-4.91,1.68-2.73.19-3.46-6.33-7.1-6.71-3.64-.37-4.37,4.28-6.37,5.22-2,.93-4.02-3.2-5.92-1.69-1.9,1.51-1.36,3.37-3.54,3s-3.82-.93-5.1-.19c-.69.4-1.1.96-1.35,1.4h36.81Z" fill="#a9eaff" stroke-width="0"/>
  <path d="m138.71,41.48c.15-.78-1.25-3.83-3.57-3.83-4.89,0-3.09,2.11-6.96,2.37-3.87.26-4.9-8.97-10.05-9.5-5.16-.53-6.19,6.07-9.02,7.39-2.84,1.32-5.69-4.53-8.39-2.4-2.69,2.13-1.92,4.77-5.01,4.24-3.09-.53-5.41-1.32-7.22-.26-.97.57-1.56,1.36-1.91,1.98h52.13Z" fill="#a9eaff" stroke-width="0"/>
</svg>