<?xml version="1.0" encoding="UTF-8"?>
<svg id="Layer_2" data-name="Layer 2" xmlns="http://www.w3.org/2000/svg" xmlns:xlink="http://www.w3.org/1999/xlink" viewBox="0 0 100.96 98.94">
  <defs>
    <linearGradient id="linear-gradient" x1="-.06" y1="-36.1" x2="70.26" y2="144.35" gradientUnits="userSpaceOnUse">
      <stop offset="0" stop-color="#86ddcf"/>
      <stop offset="1" stop-color="#00b68e"/>
    </linearGradient>
    <linearGradient id="linear-gradient-2" x1="104.85" y1="-3.3" x2="43.01" y2="166.96" xlink:href="#linear-gradient"/>
  </defs>
  <ellipse cx="50.45" cy="48.83" rx="50.51" ry="48.83" fill="#a9eaff" stroke-width="0"/>
  <path d="m49.89,73.18l-6.91-4.45-2.69-7.05-6.14-1.48-6.91,1.48-2.69,5.57-4.61-.74-5.38-2.97-1.92-4.83s3.07-5.57,5.76-4.45c1.06.44,0,3.34,1.15,4.08,1.15.74,1.92-3.34,1.92-3.34l3.46-4.08s7.3-3.34,8.06-5.57c.77-2.23,1.15-8.54-1.15-12.25-2.3-3.71-6.53-4.83-8.45-3.34-1.92,1.48-8.06,7.05-9.22,5.2-1.15-1.86-4.22-4.08-3.46-5.94.77-1.86,3.46-4.83,5.38-3.34,1.92,1.48,5.38-1.11,6.14-3.34.77-2.23-1.92-4.45-1.54-6.68.38-2.23,3.46-3.71,7.3-2.23,3.84,1.48,1.15,6.68,1.15,8.54s3.07,5.94,4.99,6.68c1.92.74,3.84-2.6,5.38-5.2,1.54-2.6,7.3-2.23,8.45-4.45,1.15-2.23,2.3-8.54.77-12.25-1.54-3.71-8.06-5.57-8.06-5.57l-.05-.24C18.21,5.2,1.12,23.81,0,46.46c1.34,2.54,2.68,5.05,3.04,5.56.77,1.11,2.69,6.68,2.69,6.68l4.99,7.42,5.76,1.86,5.38,1.11v6.31c0,1.48,6.91,4.45,8.06,5.94,1.15,1.48,3.84,7.8,5.76,10.39,1.92,2.6,4.61,3.71,5.76,4.45s1.92-1.86,2.3-2.97c.38-1.11.77-6.31.77-6.31l2.69-4.83,5.76-.74s1.92-3.34,1.92-4.45-4.99-3.71-4.99-3.71Z" fill="url(#linear-gradient)" stroke-width="0"/>
  <path d="m80.99,13.79l-1.92,4.08,3.84,4.08-.77,6.31,2.3,3.71c2.69,0,1.92,2.97,1.92,2.97l-7.3,3.71-.77,4.83,1.92,3.34c3.84-.37,8.45-2.6,8.45-2.6l4.22-1.48,3.07,4.08,1.54,4.08-4.22-.74c-3.46-2.23-8.06,0-8.06,0l-2.3,3.34-8.83,2.23-3.07,4.45-.38,7.8,3.84,4.08,6.91,1.48,4.22-2.97c0,2.97-2.3,7.42-2.3,7.42l-3.07,4.45-1.92,3.71v2.6h1.2c12.98-8.84,21.46-23.43,21.46-39.95,0-13.46-5.63-25.64-14.74-34.48l-5.22-.56Z" fill="url(#linear-gradient-2)" stroke-width="0"/>
</svg>