<?xml version="1.0" encoding="UTF-8"?>
<svg id="Layer_2" data-name="Layer 2" xmlns="http://www.w3.org/2000/svg" xmlns:xlink="http://www.w3.org/1999/xlink" viewBox="0 0 154.16 92.07">
  <defs>
    <clipPath id="clippath">
      <path d="m147.83-3.8H6.33C2.83-3.8,0-.88,0,2.71v89.35h154.16V2.71c0-3.6-2.83-6.51-6.33-6.51Z" fill="none" stroke-width="0"/>
    </clipPath>
  </defs>
  <path d="m147.83-3.8H6.33C2.83-3.8,0-.88,0,2.71v89.35h154.16V2.71c0-3.6-2.83-6.51-6.33-6.51Z" fill="#669411" stroke-width="0"/>
  <g opacity=".1">
    <g clip-path="url(#clippath)">
      <g>
        <path d="m0,109.47s40.22-27.38,51.99-17.61c11.77,9.77,27.1,25.32,36.73,10.64,9.63-14.68-31.03-45.14-12.84-59.08,18.19-13.94,39.59-2.94,49.93-23.49C136.15-.63,107.35-3.8,107.35-3.8H0v113.27Z" fill="#80ab1e" stroke-width="0"/>
        <path d="m80.16,234.52s14.98-7.27,13.2-21.99c-1.78-14.71-33.52-43.41-17.47-55.55,16.05-12.14,36.37,10.23,47.79-.74,11.42-10.97-17.47-48.93-4.28-60.34,13.2-11.4,34.77-8.46,34.77-8.46v147.07h-74Z" fill="#80ab1e" stroke-width="0"/>
        <path d="m0,234.52s63.21-15.76,64.41-37.73c1.21-21.98-35.86-14.51-29.01-38.15,6.85-23.64,42.71-36.07,29.82-61.78-12.89-25.71-45.88-5.35-55.21-17-2.12-2.64-.52-9.17-.3-11.35C10.92,56.53,0,62.03,0,62.03v172.5Z" fill="#24781f" stroke-width="0"/>
        <path d="m107.35-3.8s-38.22,25.13-27.52,56.92c10.7,31.79,39.37,8.15,48.54,27.71,9.17,19.56-23.7,38.72-5.73,61.13,17.96,22.42,31.53-5.7,31.53-5.7V-3.8h-46.82Z" fill="#cfd332" stroke-width="0"/>
        <path d="m0,33.14s23.81-11.38,38.79-1.1c14.98,10.28,25.02,22.97,33.17,9.54,8.15-13.43-11.05-30.83-3.21-35.6,7.85-4.77,18.19,2.09,22.47-9.78H0v36.94Z" fill="#24781f" stroke-width="0"/>
        <ellipse cx="112.76" cy="30.63" rx="10.85" ry="11.16" fill="#24781f" stroke-width="0"/>
        <polygon points="144.36 69.33 130.47 64.48 140.9 54 144.36 69.33" fill="#24781f" stroke-width="0"/>
        <polygon points="105.15 103.14 92.5 102.09 99.1 91.03 105.15 103.14" fill="#cfd332" stroke-width="0"/>
        <polygon points="30.96 68.16 18.41 51.39 38.51 47.51 30.96 68.16" fill="#cfd332" stroke-width="0"/>
        <rect x="31.94" y="7.59" width="9.09" height="8.83" transform="translate(24.48 48.49) rotate(-90)" fill="#ffd250" stroke-width="0"/>
        <rect x="66.15" y="74.99" width="10.44" height="10.14" transform="translate(-8.7 151.42) rotate(-90)" fill="#24781f" stroke-width="0"/>
      </g>
    </g>
  </g>
</svg>