<svg viewBox="0 30 323 395" xmlns="http://www.w3.org/2000/svg" xmlns:xlink="http://www.w3.org/1999/xlink"><filter id="a" filterUnits="userSpaceOnUse"><feOffset dx="8" dy="7"/><feGaussianBlur result="blur" stdDeviation="5"/><feFlood flood-opacity=".42"/><feComposite in2="blur" operator="in"/><feComposite in="SourceGraphic"/></filter><path d="m70.285 21.809h185.9c9.271 0 16.798 7.527 16.798 16.798v375.518c0 9.271-7.527 16.799-16.799 16.799h-185.899c-9.271 0-16.799-7.527-16.799-16.799v-375.518c0-9.271 7.527-16.799 16.799-16.799z" fill="#f7f7f7" filter="url(#a)" opacity=".22"/><path d="m70.285 22.931h185.9c9.271 0 16.798 7.527 16.798 16.798v375.518c0 9.271-7.527 16.799-16.799 16.799h-185.899c-9.271 0-16.799-7.527-16.799-16.799v-375.517c0-9.271 7.527-16.799 16.799-16.799z" fill="#f7f7f7"/><ellipse cx="143.921" cy="191.739" fill="#fff" rx="2.984" ry="3.129"/><ellipse cx="188.727" cy="191.739" fill="#fff" rx="2.984" ry="3.129"/><text fill="#fff" font-family="Montserrat-ExtraBold, Montserrat" font-size="30" font-weight="700" transform="matrix(.954 0 0 1 115.12 143.889)"><tspan letter-spacing="-.011em" x="0" y="0">L</tspan><tspan x="17.97" y="0">OGIN</tspan></text><path d="m53.302 235.492c-.021-.016-.043-.033-.064-.049v6.672c.022-.013.042-.029.064-.042z" fill="none"/><path d="m53.302 234.903c-.018-.05-.036-.099-.054-.149-.003-.003-.007-.005-.01-.008v.696c.021.016.043.033.064.049v-.589z" fill="#fff"/><path d="m53.302 214.665c-.022-.013-.042-.028-.064-.041v5.267c.021.008.043.016.064.025v-5.25z" fill="#fff"/><path d="m53.302 209.532c-.021-.007-.042-.016-.064-.023v4.139c.021.013.043.025.064.038v-4.153z" fill="#fff"/><path d="m53.238 234.747s.007.005.01.008c-.003-.009-.007-.018-.01-.027z" fill="#fff"/><path d="m53.302 175.762c-.022.005-.043.012-.064.016v32.768c.021.007.043.016.064.023z" fill="#fff"/><path d="m53.302 220.887c-.021-.008-.043-.015-.064-.023v8.627c.021-.013.043-.026.064-.039z" fill="#fff"/><path d="m53.302 234.903v.589c.105.08.209.162.315.241-.112-.286-.216-.562-.315-.831z" fill="#74c785"/><path d="m70.288 245.037c-.019.224-.032.449-.05.673 2.106.984 4.255 1.891 6.443 2.718.108-.191.217-.382.328-.572-2.284-.854-4.526-1.796-6.721-2.82z" fill="#74c785"/><path d="m67.298 243.584c-.653-.333-1.301-.674-1.945-1.022.125.297.254.591.372.893" fill="#74c785"/><path d="m273.168 234.747v.696c.021-.016.043-.033.064-.049v-.696c-.021.016-.043.033-.064.049z" fill="#74c785"/><path d="m69.349 245.295c.018-.224.033-.448.051-.672-.572-.274-1.139-.556-1.704-.841" fill="#74c785"/><path d="m216.641 253.758h-106.875c-8.722 0-17.163-1.198-25.173-3.431-.149.191-.299.382-.45.574 2.629.747 5.307 1.375 8.025 1.893.427-.021.815.056 1.163.22 5.336.946 10.828 1.441 16.436 1.441h106.875c2.825 0 5.619-.133 8.381-.378-.043-.229-.096-.455-.135-.684-2.717.237-5.466.366-8.245.366z" fill="#74c785"/><path d="m59.016 232.242c.121-.743.196-1.479.222-2.192.072-1.987-.09-4.242-1.019-6.023-.616-1.183-2.01-1.782-3.117-2.339-.581-.292-1.183-.562-1.8-.802v8.565c1.298-.763 3.227-.063 5.714 2.791z" fill="#74c785"/><path d="m237.745 217.074c4.207-3.463 9.202-6.023 13.472-9.335.378-.293.492-.812.295-1.248-.33-.731-.637-1.473-.911-2.223-2.429-6.665-2.953-14.12-1.26-21.046 1.345-5.505 4.179-10.611 9.088-13.35.42-.234.849-.442 1.285-.633.391-.171.639-.559.615-.985-.075-1.347-.125-2.689-.136-4.023-.237.508-.602.896-1.023 1.052-2.039.754-3.084-.703-3.786-3.068-.703-2.366 3.34-2.74 4.507-1.107.138.194.246.395.333.598.024-.701.058-1.399.112-2.093.2-2.547.67-5.087 1.388-7.549.111-.379.235-.754.358-1.129-1.071-.451-1.997-1.865-1.147-3.422.469-.86 1.329-1.148 2.111-1.007.443.08.874-.157 1.074-.56 2.116-4.255 5.044-8.018 8.654-10.834.248-.194.396-.487.396-.802v-34.735c0-.472-.318-.881-.777-.994-12.932-3.19-27.296-7.538-27.72-10.065-.597-3.564 3.918-5.617 16.583-2.46 3.558.887 7.108 2.515 10.379 4.394.684.393 1.534-.102 1.534-.89v-6.085c0-.229-.077-.451-.218-.632-.659-.845-1.314-1.692-1.988-2.528-.188-.233-.462-.37-.761-.376-12.113-.268-35.847-2.124-36.827-4.988-1.02-2.98 2.613-5.435 14.06-4.64 6.004.417 12.359 3.05 17.047 5.461 1.017.523 1.988-.764 1.222-1.612-4.716-5.222-9.812-10.084-15.351-14.313-.251-.191-.569-.257-.874-.176-10.143 2.696-29.295 6.71-30.709 4.671-1.499-2.161.931-5.016 10.482-7.125 6.778-1.496 14.987.13 19.185 1.201-1.319-.954-2.661-1.876-4.03-2.753-3.669-2.35-7.562-4.371-11.625-5.916-.083-.031-.166-.052-.254-.062-10.045-1.127-25.929-3.726-26.502-5.879-.65-2.439 2.374-4.186 11.439-2.88 9.064 1.306 18.717 9.127 18.717 9.127-.015-.001-.031-.003-.046-.004 1.025.458 1.929-.813 1.17-1.641-1.461-1.595-2.802-3.326-3.853-5.151-4.933-8.571-4.507-12.32-1.926-12.661 2.535-.335 13.321 18.151 17.967 27.251.068.133.163.244.283.333.425.318.846.642 1.266.967.104.033.162.052.162.052-.022.006-.047.013-.069.019 3.059 2.375 5.973 4.931 8.724 7.573 1.638 1.573 3.225 3.204 4.788 4.86-3.109-4.279-6.641-10.073-8.122-15.925-2.905-11.479-1.257-15.632 1.765-15.155 2.941.464 9.282 24.82 11.749 36.93.033.161.104.305.21.431.371.441.739.884 1.104 1.329.611.744 1.816.308 1.816-.654v-54.79c0-.568-.46-1.028-1.028-1.028h-156.843c-.577 0-1.03.474-1.02 1.051.128 7.331-1.685 14.713-5.125 21.107.025.304.065.601.084.909.812 13.033-4.71 26.328-14.365 34.584-5.32 4.55-11.75 7.629-17.21 11.913-.291.229-.438.599-.385.965.763 5.259 1.838 10.598 1.535 15.829-.482 8.34-4.838 15.625-10.997 20.486-.334.263-.479.699-.355 1.106 1.832 6.001 4.204 11.875 4.571 18.138.598 10.198-4.872 20.664-13.65 25.106-1.372.694-2.812 1.222-4.29 1.592-.462.116-.791.519-.791.995v31.266c0 .437.278.816.689.962 3.996 1.409 7.82 3.82 10.591 7.068.49.574.926 1.182 1.338 1.804-1.457-7.19-2.305-13.472-1.24-14.339 2.055-1.672 4.885.664 7.179 10.38 1.081 4.577.844 9.885.292 14.221.665-2.525 1.461-5.008 2.393-7.431-.01.012-.02.025-.03.037 0 0 1.549-12.684 7.078-20.326 5.528-7.642 8.845-8.648 10.031-6.442 1.047 1.948-8.439 15.568-14.781 23.809-.051.066-.092.135-.126.211-1.834 4.106-3.225 8.425-4.235 12.811-.377 1.635-.703 3.281-.992 4.933 2.246-3.869 6.953-11.102 12.755-15.068 8.176-5.588 11.821-5.37 12.219-2.731.376 2.492-15.911 13.872-24.896 19.476-.253.158-.418.413-.462.708-.318 2.117-.565 4.246-.756 6.381-.039.438.204.857.603 1.04 1.722.786 3.471 1.522 5.246 2.205.466.179.991-.01 1.251-.436.846-1.385 1.766-2.707 2.77-3.908 3.936-4.71 6.967-7.226 9.151-8.152.282-.119.508-.343.591-.638.119-.42.308-.819.594-1.136.366-.406.905-.631 1.449-.696.247-.03.496-.026.73.008.681.1 1.475.641 1.773 1.304.509 1.131.096 2.85-1.128 3.248-.047.015-.098.026-.148.038-.647 2.236-3.765 6.81-7.697 11.925-.447.581-.158 1.44.551 1.625 7.562 1.973 15.496 3.027 23.676 3.027h106.875c2.405 0 4.787-.096 7.146-.276.595-.045 1.013-.59.928-1.18-1.815-12.652 2.116-26.243 13.03-35.227zm29.231-81.533c-.538 1.854-3.578.35-3.58-2.143 0-2.493 4.971-2.645 3.58 2.143zm-13.029-3.044c1.319-2.416 5.742-.353 2.779 3.151-1.143 1.351-4.098-.735-2.779-3.151zm-3.098 13.834c-.441 1.519-2.93.286-2.931-1.758-.001-2.042 4.071-2.165 2.931 1.758zm-72.966-103.251c-.388 1.278-1.329 2.355-2.442 3.092-.506.335-1.047.6-1.588.781-1.573.527-3.829.227-5.134-.881-2.227-1.892-3.044-6.061-.793-8.259 2.469-2.411 8.517-3.515 9.785.679.44 1.458.621 3.108.171 4.589zm39.689 193.717c-1.749-.065-4.353-1.985-3.351-4.01.349-.704.86-1.378 1.543-1.749.589-.319 1.311-.352 1.977-.195.303.071.594.183.855.324.761.411 1.484 1.388 1.574 2.296.155 1.55-1.004 3.393-2.599 3.333zm3.727-94.5c-1.342.436-3.801-.297-3.552-2.109.086-.63.303-1.283.728-1.753.366-.406.905-.631 1.449-.696.247-.03.496-.026.73.008.681.1 1.475.641 1.773 1.304.509 1.131.096 2.85-1.128 3.248z" fill="#74c785"/><path d="m70.063 238.145s.028-.056.08-.157c.089-.618.18-1.236.28-1.853-.235-.81-.486-1.705-.745-2.655-.124 2.836-.564 5.646-1.227 8.259-.048.191-.098.382-.153.571-.007.023-.017.039-.024.059-.005.019-.006.038-.013.056-.169.465-.365.912-.564 1.357.565.285 1.132.567 1.704.841.181-2.169.416-4.345.724-6.515-.02.012-.042.026-.062.038z" fill="#74c785"/><path d="m56.951 221.71c.51.314 1.024.617 1.379 1.125 1.13 1.618 1.357 3.988 1.387 5.924.021 1.312-.098 2.627-.338 3.917 1.299 1.566 2.744 3.707 4.325 6.515 3.134-6.934-.91-15.77-5.893-20.857-1.328-1.356-2.852-2.657-4.51-3.669v5.25c.426.163.848.336 1.262.525.819.373 1.618.795 2.387 1.27z" fill="#74c785"/><path d="m259.369 194.909c.121.415.279.823.453 1.226 1.251-3.76 1.598-7.805 1.543-11.99-.475.827-.949 1.813-1.284 2.661-1.006 2.545-1.495 5.417-.712 8.104z" fill="#74c785"/><path d="m100.325 22.791h172.844v211.956c.021-.016.043-.033.064-.049v-212.664h-219.931v.757h47.022z" fill="#74c785"/><path d="m63.672 225.956c1.703 4.256 2.356 9.143.449 13.451-.042.094-.096.179-.139.272.506.918.953 1.89 1.372 2.883.644.348 1.292.689 1.945 1.022.216-.477.422-.96.603-1.455.687-2.354 1.026-4.862 1.2-7.308.075-1.055.098-2.121.082-3.188-.943-3.588-1.958-7.794-2.826-11.86-2.532-4.598-6.999-7.856-11.66-9.734-.459-.185-.926-.349-1.396-.507v4.153c.896.528 1.758 1.124 2.573 1.775 3.392 2.713 6.145 6.366 7.797 10.495z" fill="#74c785"/><path d="m249.943 200.11c.583 2.304 1.398 4.556 2.447 6.677 1.706-1.435 3.258-3.029 4.559-4.893-1.818-2.558-3.144-5.555-3.977-8.485-.038-.134-.076-.267-.109-.402-.712-3.954.157-7.89 2.39-11.154 1.518-2.221 3.508-4.048 5.684-5.555-.174-2.168-.365-4.348-.512-6.52-11.115 4.356-13.231 19.46-10.481 30.333z" fill="#74c785"/><path d="m253.078 189.322c-.043 1.056.049 2.105.236 3.142.401 1.632 1.052 3.226 1.764 4.731.661 1.398 1.441 2.754 2.339 4.012.86-1.342 1.548-2.736 2.091-4.177-2.085-4.357-.672-9.888 1.836-13.818-.053-2.022-.186-4.073-.347-6.137-4.153 2.855-7.703 6.934-7.919 12.247z" fill="#74c785"/><path d="m114.248 21.791h-4.132c-.452.868-1.25 1.53-2.213 1.494-.959-.036-2.173-.631-2.911-1.494h-4.667c4.862 5.98 8.1 13.362 8.83 22.158 3.605-6.7 5.423-14.485 5.094-22.158z" fill="#ceffb9"/><path d="m72.954 96.729c-6.127 6.944-8.724 16.981-7.331 26.326.354 2.379.95 4.706 1.636 7.012 6.453-4.856 11.059-12.326 11.555-20.917.314-5.428-.855-10.972-1.62-16.422-1.508 1.216-2.94 2.525-4.241 4z" fill="#ceffb9"/><path d="m248.794 248.086c-7.56 2.767-15.578 4.579-23.908 5.306.039.229.093.456.135.684 8.299-.737 16.289-2.551 23.822-5.313-.015-.226-.032-.452-.05-.678z" fill="#ceffb9"/><path d="m246.166 226.114c-.163-6.613 1.821-13.775 5.851-18.541-.056-.113-.106-.228-.16-.341-4.404 3.563-9.693 6.204-14.112 9.841-11.229 9.243-15.066 23.362-12.859 36.318 8.329-.728 16.348-2.54 23.908-5.306-.024-.31-.048-.62-.077-.929-.665-7.041-2.375-13.97-2.55-21.043z" fill="#ceffb9"/><path d="m263.73 146.757c1.035.586 1.567 2.038-.017 3.91-.406.481-1.041.521-1.632.272-.122.375-.247.75-.358 1.129-.718 2.462-1.188 5.002-1.388 7.549-.055.693-.088 1.392-.112 2.093.376.88.299 1.818-.031 2.524.014 1.568.08 3.148.178 4.734 2.66-1.059 5.533-1.428 8.377-1.229-.068-1.848.53-4.36 2.811-3.904.74.148 1.265.685 1.61 1.405v-9.328c-.386.024-.768-.011-1.126-.124-2.042-.64-2.419-7.705.288-8.42.288-.076.567-.108.839-.115v-12.437c-4.021 3.018-7.225 7.201-9.438 11.944z" fill="#ceffb9"/><path d="m268.332 173.358c-.948.312-1.874.701-2.781 1.124-1.513.706-3.071 1.573-4.554 2.592.161 2.064.294 4.115.347 6.137.148-.232.299-.461.454-.681 1.789-2.195 4.253-3.381 7.003-3.424 1.478-.023 2.947.232 4.368.667v-5.51c-.73-.36-1.482-.657-2.252-.87-.879-.243-1.712-.323-2.585-.036z" fill="#ceffb9"/><path d="m272.253 171.363c-1.912.9-3.047-1.133-3.368-2.51-.015-.065-.027-.139-.041-.21-2.334-.198-4.69-.02-6.957.63-.507.145-.99.319-1.464.504.147 2.173.338 4.352.512 6.52.724-.501 1.469-.967 2.224-1.401 1.213-.696 2.468-1.318 3.755-1.849.773-.319 1.627-.729 2.468-.774 1.168-.062 2.355.37 3.411.848.127.058.249.126.375.187v-3.001c-.233.496-.54.878-.915 1.055z" fill="#ceffb9"/><path d="m261.931 183.238c-.183.259-.374.573-.565.906.055 4.186-.292 8.231-1.543 11.99 1.094 2.534 3.177 4.767 5.629 6.105.4.051.804.114 1.216.194 1.109.216 2.151.595 3.135 1.097.465.025.93.025 1.391-.028.699-.081 1.356-.256 1.976-.501v-22.251c-3.969-1.239-8.315-1.099-11.238 2.489z" fill="#ceffb9"/><path d="m259.51 197.034s-.001-.003-.002-.005c-.543 1.441-1.231 2.835-2.091 4.177.409.573.843 1.125 1.305 1.648 1.526-.519 3.191-.778 4.988-.739-1.78-1.341-3.268-3.137-4.2-5.082z" fill="#ceffb9"/><path d="m252.389 206.787c.037.075.078.148.115.223 1.533-1.671 3.343-2.997 5.418-3.85-.339-.408-.664-.83-.975-1.266-1.301 1.863-2.854 3.458-4.559 4.893z" fill="#ceffb9"/><path d="m271.208 204.359c.689.467 1.343 1.001 1.961 1.591v-2.122c-.145.059-.282.131-.432.182-.507.173-1.018.278-1.529.348z" fill="#ceffb9"/><path d="m248.794 248.086c.018.226.035.451.05.678 8.806-3.229 16.988-7.747 24.325-13.32v-.696c-7.351 5.584-15.55 10.109-24.375 13.339z" fill="#ceffb9"/><path d="m264.197 207.854c-2.467-.946-4.555-2.623-6.274-4.693-2.075.853-3.885 2.18-5.418 3.85.204.404.401.813.624 1.206.973 1.718 2.174 3.519 3.787 4.644.918.64 2.074.821 3.138 1.035 1.514.305 3.045.517 4.581.649 2.751.237 5.677.209 8.534-.216v-5.834c-2.999.549-6.182.427-8.971-.642z" fill="#ceffb9"/><path d="m263.71 202.117c-1.797-.04-3.461.219-4.988.739.784.888 1.642 1.703 2.59 2.402 3.292 2.428 7.425 3.002 11.35 2.449.169-.024.337-.063.506-.091v-1.665c-.618-.591-1.272-1.124-1.961-1.591-2.64.363-5.294-.582-7.497-2.242z" fill="#ceffb9"/><path d="m267.199 215.576c-3.074-.058-6.226-.395-9.205-1.227-1.544-.431-2.719-1.716-3.683-2.99-.886-1.171-1.637-2.453-2.295-3.785-4.03 4.766-6.014 11.927-5.851 18.541.175 7.073 1.886 14.002 2.55 21.043.029.308.053.619.077.929 8.825-3.23 17.023-7.755 24.375-13.339v-19.541c-1.978.299-3.986.407-5.969.37z" fill="#ceffb9"/><path d="m266.667 202.433c-.411-.08-.816-.143-1.216-.194 1.374.75 2.859 1.21 4.35 1.291-.983-.502-2.026-.881-3.135-1.097z" fill="#ceffb9"/><path d="m53.302 135.757c-.021.003-.043.006-.064.008v40.013c.022-.004.043-.012.064-.016z" fill="#fff"/><path d="m72.034 148.881c-.381-6.498-2.919-12.577-4.775-18.814-.625.47-1.265.919-1.923 1.338.193.41.33.834.372 1.252.235 2.352-1.524 5.15-3.945 5.06-1.597-.059-3.656-1.141-4.718-2.659-1.23.323-2.482.553-3.743.699v40.005c1.754-.371 3.466-.958 5.081-1.775 8.779-4.441 14.249-14.908 13.65-25.106z" fill="#74c785"/><path d="m100.965 55.44c-7.949 7.059-19.142 11.331-22.986 21.48-1.908 5.038-1.547 10.377-.784 15.81 5.558-4.481 12.205-7.606 17.679-12.287 9.655-8.257 15.177-21.552 14.365-34.584-.019-.308-.058-.604-.084-.909-2.13 3.959-4.873 7.545-8.189 10.49z" fill="#74c785"/><path d="m53.302 37.107v-12.202c-.022-.007-.042-.017-.064-.025v12.285s.005-.007.008-.01c.018-.02.038-.03.056-.048z" fill="#ceffb9"/><path d="m53.302 41.18c-.022-.009-.043-.019-.064-.029v94.614c.021-.002.043-.005.064-.008z" fill="#ceffb9"/><path d="m56.676 130.631c.529-1.069 1.305-2.093 2.342-2.655.895-.485 1.991-.535 3.001-.296.459.109.901.277 1.298.492.806.435 1.575 1.291 2.019 2.234.658-.42 1.298-.868 1.923-1.338-.686-2.306-1.282-4.633-1.636-7.012-1.393-9.345 1.204-19.382 7.331-26.326 1.301-1.475 2.733-2.784 4.241-4-.763-5.433-1.124-10.772.784-15.81 3.844-10.149 15.037-14.421 22.986-21.48 3.316-2.945 6.059-6.531 8.189-10.49-.729-8.796-3.968-16.178-8.83-22.158h-43.679c-.778 1.404-1.922 2.495-3.068 2.22-.101-.024-.18-.075-.275-.106v12.202c1.193-1.16 3.028 1.371 2.041 3.403-.399.819-1.295.978-2.041.67v94.577c1.261-.146 2.512-.376 3.743-.699-.704-1.006-.975-2.203-.369-3.428zm14.246-96.266c.976-1.062 2.538 1.058 1.716 2.748-.82 1.69-4.238-.01-1.716-2.748zm-8.892-9.272c1.489-.612 3.093 2.419 1.031 3.832-2.062 1.415-4.89-2.247-1.031-3.832zm-.266 15.505c1.489-.61 3.093 2.42 1.03 3.835-2.063 1.414-4.89-2.247-1.03-3.835z" fill="#ceffb9"/><g fill="#3d7449"><path d="m72.638 38.112c.822-1.69-.74-3.81-1.716-2.748-2.522 2.738.896 4.438 1.716 2.748z"/><path d="m62.794 45.432c2.062-1.415.459-4.445-1.03-3.835-3.86 1.588-1.032 5.249 1.03 3.835z"/><path d="m53.302 22.791h-.064v2.089c.022.008.042.017.064.025z"/><path d="m53.577 25.012c1.147.275 2.29-.816 3.068-2.22h-3.343v2.114c.095.031.174.082.275.106z"/><path d="m53.302 37.107c-.018.018-.038.029-.056.048-.003.003-.005.007-.008.01v3.986c.021.01.043.02.064.029z"/><path d="m55.343 40.51c.988-2.031-.847-4.563-2.041-3.403v4.073c.745.307 1.642.149 2.041-.67z"/><path d="m63.06 29.924c2.062-1.414.459-4.445-1.031-3.832-3.859 1.586-1.032 5.248 1.031 3.832z"/><path d="m250.848 146.332c1.14-3.923-2.932-3.799-2.931-1.758 0 2.044 2.49 3.277 2.931 1.758z"/><path d="m256.725 135.65c2.963-3.504-1.46-5.568-2.779-3.151-1.319 2.416 1.636 4.502 2.779 3.151z"/><path d="m260.223 161.709c-.087-.204-.194-.405-.333-.598-1.167-1.633-5.209-1.259-4.507 1.107.702 2.365 1.747 3.822 3.786 3.068.42-.156.785-.544 1.023-1.052-.007-.845.002-1.687.031-2.524z"/><path d="m260.223 161.709c-.029.837-.038 1.678-.031 2.524.33-.706.407-1.643.031-2.524z"/><path d="m271.559 163.833c-2.281-.456-2.879 2.056-2.811 3.904 1.205.084 2.405.266 3.58.539.28.065.56.154.841.229v-3.267c-.345-.72-.87-1.257-1.61-1.405z"/><path d="m268.885 168.852c.321 1.377 1.457 3.411 3.368 2.51.375-.177.682-.558.915-1.055v-.86c-1.416-.398-2.864-.682-4.324-.806.013.071.025.145.041.21z"/><path d="m272.042 155.785c.359.113.74.148 1.126.124v-8.659c-.272.006-.551.039-.839.115-2.707.715-2.33 7.78-.288 8.42z"/><path d="m266.976 135.542c1.391-4.788-3.579-4.636-3.58-2.143.002 2.493 3.042 3.997 3.58 2.143z"/><path d="m260.934 147.517c-.85 1.556.076 2.971 1.147 3.422.466-1.43 1.017-2.828 1.649-4.182-.901-.51-2.183-.365-2.796.76z"/><path d="m263.713 150.667c1.584-1.872 1.052-3.324.017-3.91-.632 1.354-1.183 2.752-1.649 4.182.591.249 1.226.209 1.632-.272z"/><path d="m53.248 234.754c.018.049.036.099.054.149v-.107c-.018-.014-.036-.028-.054-.042z"/><path d="m53.302 229.452c-.021.013-.043.025-.064.039v5.237c.003.009.007.018.01.027.018.014.036.028.054.042v-5.344z"/><path d="m63.077 241.29c-.109.168-.216.338-.332.5.982.572 1.976 1.127 2.981 1.664-.118-.302-.247-.596-.372-.893-.765-.414-1.525-.837-2.277-1.271z"/><path d="m69.4 244.623c-.019.224-.034.448-.051.672.295.141.593.277.889.415.017-.224.031-.449.05-.673-.296-.138-.594-.273-.888-.414z"/><path d="m57.612 237.88c-.089.172-.177.344-.271.514 1.618 1.096 3.274 2.139 4.962 3.135.123-.161.238-.324.351-.489-1.715-1.002-3.398-2.054-5.042-3.16z"/><path d="m92.167 252.794c.387.074.774.151 1.163.22-.348-.164-.736-.24-1.163-.22z"/><path d="m76.682 248.429c2.441.923 4.927 1.753 7.46 2.473.151-.192.301-.383.45-.574-2.574-.718-5.103-1.543-7.583-2.471-.111.19-.22.38-.328.572z"/><path d="m56.964 238.133c.095-.166.191-.331.28-.502-1.34-.911-2.653-1.857-3.942-2.835v.107c.099.269.203.545.315.831 1.097.824 2.214 1.622 3.347 2.399z"/><path d="m65.354 242.562c-.419-.993-.866-1.965-1.372-2.883-.266.565-.571 1.099-.905 1.612.752.434 1.512.858 2.277 1.271z"/><path d="m89.831 235.034c.008-.055.022-.11.032-.166-2.212.738-5.401 3.265-9.64 8.338-1.182 1.415-2.247 2.996-3.213 4.65 2.48.927 5.009 1.753 7.583 2.471 4.37-5.6 7.945-10.733 8.643-13.146-1.366.342-3.644-.398-3.404-2.148z"/><path d="m53.302 229.452v5.344c1.289.977 2.602 1.924 3.942 2.835.879-1.674 1.472-3.55 1.772-5.388-2.487-2.854-4.416-3.554-5.714-2.791z"/><path d="m63.705 239.191c-1.581-2.808-3.026-4.949-4.325-6.515-.313 1.686-.838 3.329-1.584 4.856-.057.118-.124.232-.184.349 1.644 1.106 3.326 2.158 5.042 3.16.412-.598.765-1.215 1.051-1.85z"/><path d="m66.358 219.773c.868 4.066 1.882 8.272 2.826 11.86-.057-4.014-.798-8.043-2.653-11.572-.052-.1-.119-.189-.173-.288z"/><path d="m69.678 233.48c.259.95.51 1.845.745 2.655-.101.617-.192 1.235-.28 1.853-.052.101-.08.157-.08.157.02-.012.042-.026.062-.038-.308 2.17-.543 4.346-.724 6.515.294.141.592.276.888.414.213-2.537.501-5.065.891-7.577 8.893-5.511 25.669-17.19 25.287-19.719-.398-2.639-4.043-2.857-12.219 2.731-5.802 3.965-10.51 11.199-12.755 15.068.289-1.652.616-3.298.992-4.933 1.019-4.426 2.427-8.784 4.286-12.925 6.342-8.23 15.907-21.95 14.856-23.906-1.186-2.207-4.503-1.2-10.031 6.442-5.529 7.642-7.078 20.326-7.078 20.326.01-.012.02-.025.03-.037-.932 2.423-1.728 4.905-2.393 7.431.552-4.336.788-9.645-.292-14.221-2.294-9.717-5.125-12.052-7.179-10.38-1.066.867-.217 7.149 1.24 14.339 2.993 4.519 4.001 10.212 3.757 15.806z"/><path d="m244.672 88.521c.432 2.577 15.37 7.05 28.496 10.255v-7.41c-3.68-2.255-7.791-4.278-11.913-5.305-12.665-3.157-17.18-1.104-16.583 2.46z"/><path d="m258.289 40.579c-3.022-.477-4.67 3.676-1.765 15.155 1.481 5.851 5.013 11.646 8.122 15.925-1.563-1.656-3.15-3.287-4.788-4.86-2.751-2.642-5.665-5.199-8.724-7.573.022-.006.047-.013.069-.019 0 0-.058-.019-.162-.052-.48-.372-.961-.741-1.448-1.103-4.589-9.027-15.514-27.786-18.068-27.449-2.581.341-3.007 4.09 1.926 12.661 2.324 4.037 6.072 7.615 9.388 10.272-2.174-1.293-4.411-2.458-6.705-3.481.015.001.031.003.046.004 0 0-9.653-7.821-18.717-9.127s-12.089.441-11.439 2.88c.576 2.162 16.595 4.774 26.632 5.893 4.108 1.55 8.043 3.588 11.749 5.963 1.37.877 2.711 1.799 4.03 2.753-4.198-1.071-12.407-2.697-19.185-1.201-9.551 2.109-11.981 4.964-10.482 7.125 1.436 2.071 21.177-2.103 31.184-4.798 7.266 5.486 13.772 12.065 19.662 19.126-4.027-2.488-13.474-7.755-22.181-8.36-11.447-.795-15.08 1.66-14.06 4.64.993 2.901 25.331 4.767 37.291 4.997.854 1.045 1.673 2.112 2.503 3.173v-1.607c-1.011-1.272-2.035-2.532-3.082-3.771-2.431-12.025-8.837-36.703-11.797-37.17z"/><path d="m249.943 200.11c-2.75-10.873-.634-25.977 10.481-30.333-.018-.27-.037-.54-.053-.81-.66.263-1.312.555-1.942.907-4.908 2.739-7.742 7.845-9.088 13.35-1.693 6.926-1.169 14.381 1.26 21.046.367 1.006.792 1.995 1.255 2.964.18-.146.356-.297.533-.446-1.049-2.121-1.864-4.373-2.447-6.677z"/><path d="m252.389 206.787c-.177.149-.353.3-.533.446.054.113.105.228.16.341.161-.19.321-.381.488-.564-.038-.075-.078-.148-.115-.223z"/><path d="m261.887 169.273c2.267-.651 4.623-.828 6.957-.63-.049-.268-.084-.573-.097-.905-2.845-.199-5.717.171-8.377 1.229.017.27.035.54.053.81.473-.186.957-.359 1.464-.504z"/><path d="m264.635 214.545c-1.536-.133-3.067-.344-4.581-.649-1.064-.215-2.22-.395-3.138-1.035-1.613-1.125-2.814-2.926-3.787-4.644-.223-.393-.42-.802-.624-1.206-.167.182-.327.373-.488.564.658 1.332 1.409 2.614 2.295 3.785.964 1.274 2.139 2.558 3.683 2.99 2.979.832 6.131 1.169 9.205 1.227 1.983.037 3.991-.071 5.969-.37v-.876c-2.857.425-5.783.453-8.534.216z"/><path d="m268.748 167.737c.012.332.047.637.097.905 1.46.124 2.908.408 4.324.806v-.943c-.281-.075-.56-.164-.841-.229-1.175-.273-2.375-.455-3.58-.539z"/><path d="m255.252 181.852c-2.233 3.264-3.102 7.2-2.39 11.154-.068-.277.33-1.036.452-.542-.187-1.037-.279-2.087-.236-3.142.217-5.313 3.766-9.392 7.919-12.247-.02-.259-.041-.518-.061-.778-2.176 1.507-4.166 3.334-5.684 5.555z"/><path d="m253.314 192.464c-.121-.494-.52.266-.452.542.089.495.501-.266.452-.542z"/><path d="m257.417 201.207c-.898-1.258-1.678-2.613-2.339-4.012-.712-1.505-1.363-3.099-1.764-4.731.05.277-.363 1.038-.452.542.033.135.071.269.109.402.833 2.93 2.159 5.928 3.977 8.485.109-.157.226-.305.332-.466.048-.073.089-.148.136-.222z"/><path d="m269.382 172.273c-.841.045-1.695.455-2.468.774-1.287.531-2.542 1.153-3.755 1.849-.755.433-1.5.899-2.224 1.401.021.259.041.519.061.778 1.483-1.019 3.04-1.886 4.554-2.592.907-.423 1.833-.813 2.781-1.124.873-.287 1.705-.208 2.585.036.771.213 1.522.51 2.252.87v-.955c-.126-.061-.248-.13-.375-.187-1.056-.478-2.243-.911-3.411-.848z"/><path d="m257.28 201.428c-.106.161-.223.309-.332.466.31.436.635.858.975 1.266.263-.108.528-.212.799-.305-.463-.524-.896-1.076-1.305-1.648-.047.073-.088.149-.136.222z"/><path d="m261.313 205.258c-.948-.7-1.806-1.514-2.59-2.402-.271.092-.536.197-.799.305 1.72 2.07 3.807 3.748 6.274 4.693 2.789 1.069 5.972 1.191 8.971.642v-.88c-.169.028-.337.067-.506.091-3.925.553-8.058-.02-11.35-2.449z"/><path d="m259.508 197.03c.112-.296.214-.596.314-.896-.174-.403-.332-.81-.453-1.226-.783-2.687-.294-5.559.712-8.104.335-.848.81-1.834 1.284-2.661-.004-.31-.013-.621-.021-.932-2.508 3.93-3.921 9.461-1.836 13.818z"/><path d="m261.931 183.238c.157-.223.148-1.104-.133-.707-.176.216-.179 1.089.133.707z"/><path d="m269.801 203.529c.484.247.953.522 1.406.83.512-.07 1.023-.174 1.529-.348.149-.051.287-.123.432-.182v-.829c-.62.245-1.277.42-1.976.501-.462.054-.927.053-1.391.028z"/><path d="m259.51 197.034c.933 1.946 2.42 3.741 4.2 5.082.568.013 1.146.047 1.741.122-2.452-1.338-4.535-3.57-5.629-6.105-.1.3-.202.599-.314.896 0 .002.001.003.002.005z"/><path d="m261.931 183.238c-.312.382-.308-.491-.133-.707-.155.22-.306.449-.454.681.008.311.017.622.021.932.192-.334.383-.647.565-.906z"/><path d="m261.798 182.531c.28-.397.29.483.133.707 2.923-3.588 7.269-3.728 11.238-2.489v-.974c-1.42-.434-2.889-.69-4.368-.667-2.749.043-5.214 1.229-7.003 3.424z"/><path d="m271.208 204.359c-.453-.307-.923-.583-1.406-.83-1.491-.08-2.976-.541-4.35-1.291-.595-.075-1.173-.11-1.741-.122 2.203 1.66 4.857 2.605 7.497 2.242z"/><path d="m53.302 208.569c-.021-.007-.043-.016-.064-.023v.963c.022.007.043.016.064.023z"/><path d="m67.697 243.782c-.132-.067-.266-.13-.398-.198"/><path d="m68.273 242.369c.008-.021.018-.036.024-.059.056-.189.105-.38.153-.571.663-2.614 1.103-5.423 1.227-8.259-.162-.594-.327-1.21-.494-1.847.015 1.067-.007 2.133-.082 3.188-.174 2.446-.513 4.954-1.2 7.308.006-.017.015-.033.021-.05.199-.55.453-.097.351.291z"/><path d="m66.358 219.773c-.151-.706-.297-1.407-.437-2.1-.412-.622-.848-1.23-1.338-1.804-2.93-3.434-7.038-5.932-11.281-7.3v.963c.469.159.937.323 1.396.507 4.661 1.878 9.128 5.135 11.66 9.734z"/><path d="m68.273 242.369c.102-.388-.152-.841-.351-.291-.006.017-.015.033-.021.05-.006.021-.01.044-.017.065-.149.506.222.617.388.175z"/><path d="m68.273 242.369c-.167.441-.537.33-.388-.175.006-.021.01-.044.017-.065-.181.495-.387.978-.603 1.455.132.067.266.131.398.198.199-.445.395-.891.564-1.357.007-.018.008-.037.013-.056z"/><path d="m66.531 220.061c1.855 3.529 2.596 7.559 2.653 11.572.168.637.333 1.253.494 1.847.244-5.594-.764-11.287-3.757-15.806.14.693.287 1.394.437 2.1.054.098.12.188.173.288z"/><path d="m53.302 213.685c-.021-.013-.043-.025-.064-.038v.977c.022.013.043.028.064.041z"/><path d="m63.705 239.191c.085.151.167.287.253.442.008.015.015.031.023.046.044-.093.098-.178.139-.272 1.907-4.308 1.254-9.195-.449-13.451-1.652-4.129-4.405-7.782-7.797-10.495-.815-.651-1.676-1.247-2.573-1.775v.98c1.659 1.011 3.182 2.312 4.51 3.669 4.982 5.088 9.026 13.923 5.893 20.857z"/><path d="m62.745 241.607c.057-.026.114-.052.17-.078.054.055.108.11.167.163.425.387.936.698 1.492.945-.041.063-.083.127-.124.19-.661-.314-1.248-.723-1.705-1.22z"/><path d="m62.654 241.04c-.113.164-.228.328-.351.489.147.087.294.175.442.261.116-.162.223-.332.332-.5-.142-.082-.281-.167-.423-.25z"/><path d="m63.077 241.29c.334-.513.639-1.047.905-1.612-.008-.015-.015-.031-.023-.046-.086-.155-.168-.291-.253-.442-.287.635-.64 1.251-1.051 1.85.141.083.281.168.423.25z"/><path d="m53.302 219.915c-.021-.008-.043-.017-.064-.025v.973c.021.008.043.015.064.023z"/><path d="m58.219 224.027c.928 1.781 1.09 4.037 1.019 6.023-.026.713-.101 1.449-.222 2.192.12.137.242.286.364.433.24-1.29.358-2.605.338-3.917-.03-1.935-.258-4.306-1.387-5.924-.355-.509-.869-.811-1.379-1.125-.77-.474-1.569-.896-2.387-1.27-.413-.189-.836-.361-1.262-.525v.971c.617.241 1.219.511 1.8.802 1.107.556 2.501 1.156 3.117 2.339z"/><path d="m57.612 237.88c-.123-.083-.245-.166-.368-.25-.089.17-.185.336-.28.502.126.086.25.176.377.261.094-.17.182-.342.271-.514z"/><path d="m57.796 237.532c.746-1.527 1.271-3.17 1.584-4.856-.122-.147-.245-.296-.364-.433-.299 1.838-.893 3.714-1.772 5.388.122.083.245.167.368.25.06-.117.126-.231.184-.349z"/></g><path d="m167.926 37.814c-2.251 2.198-1.434 6.367.793 8.259 1.304 1.108 3.561 1.408 5.134.881.541-.181 1.082-.446 1.588-.781 1.113-.737 2.054-1.814 2.442-3.092.45-1.481.269-3.131-.171-4.589-1.267-4.193-7.316-3.089-9.785-.679z" fill="#ceffb9"/><path d="m93.295 236.067c.111.246.081.628-.06 1.115.05-.012.101-.023.148-.038 1.223-.398 1.636-2.116 1.128-3.248-.298-.663-1.093-1.203-1.773-1.304-.234-.035-.483-.038-.73-.008-.545.065-1.083.291-1.449.696-.387.429-.596 1.01-.696 1.588 1.733-.578 2.866-.059 3.432 1.198z" fill="#ceffb9"/><path d="m93.235 237.181c.141-.487.171-.869.06-1.115-.566-1.258-1.7-1.776-3.432-1.198-.01.055-.024.111-.032.166-.24 1.749 2.038 2.489 3.404 2.148z" fill="#ceffb9"/><path d="m220.652 137.748c-.234-.035-.483-.038-.73-.008-.545.066-1.083.291-1.449.696-.424.47-.641 1.123-.728 1.753-.248 1.813 2.21 2.545 3.552 2.109 1.223-.398 1.636-2.116 1.128-3.248-.298-.663-1.093-1.203-1.773-1.304z" fill="#ceffb9"/><path d="m61.763 137.717c2.421.09 4.18-2.708 3.945-5.06-.042-.417-.179-.842-.372-1.252-2.571 1.641-5.375 2.887-8.292 3.653 1.062 1.518 3.121 2.6 4.718 2.659z" fill="#ceffb9"/><path d="m63.318 129.171c-.397-.215-.839-.383-1.298-.492-1.011-.239-2.107-.189-3.001.296-1.037.562-1.813 1.586-2.342 2.655-.606 1.225-.336 2.421.369 3.428 2.917-.765 5.721-2.012 8.292-3.653-.443-.944-1.213-1.799-2.019-2.234z" fill="#ceffb9"/><path d="m107.903 24.286c.963.036 1.761-.626 2.213-1.494h-5.123c.738.863 1.951 1.459 2.911 1.494z" fill="#ceffb9"/><path d="m218.595 231.169c-.262-.141-.553-.252-.855-.324-.666-.158-1.388-.124-1.977.195-.683.37-1.194 1.045-1.543 1.749-1.002 2.025 1.602 3.945 3.351 4.01 1.594.059 2.753-1.784 2.599-3.333-.091-.908-.813-1.885-1.574-2.296z" fill="#ceffb9"/></svg>