<svg viewBox="0 30 315 395" xmlns="http://www.w3.org/2000/svg" xmlns:xlink="http://www.w3.org/1999/xlink"><filter id="a" filterUnits="userSpaceOnUse"><feOffset dx="8" dy="7"/><feGaussianBlur result="blur" stdDeviation="5"/><feFlood flood-opacity=".42"/><feComposite in2="blur" operator="in"/><feComposite in="SourceGraphic"/></filter><linearGradient id="b" gradientUnits="userSpaceOnUse" x1="208.13" x2="336.13" y1="36.796" y2="270.129"><stop offset="0" stop-color="#fee18e"/><stop offset="1" stop-color="#fec800"/></linearGradient><linearGradient id="c" gradientUnits="userSpaceOnUse" x1="191.924" x2="341.048" y1="-32.846" y2="238.993"><stop offset="0" stop-color="#86ddcf"/><stop offset="1" stop-color="#00b68e"/></linearGradient><linearGradient id="d" x1="96.958" x2="129.141" xlink:href="#c" y1="388.356" y2="526.283"/><linearGradient id="e" gradientTransform="matrix(.57220313 .82011193 -.82011193 .57220313 -379.448 1234.567)" gradientUnits="userSpaceOnUse" x1="-466.65" x2="-448.579" y1="-1080.41" y2="-1003.7"><stop offset=".109" stop-color="#f7f7f7"/><stop offset=".243" stop-color="#f0f5f0"/><stop offset=".427" stop-color="#dfefdf"/><stop offset=".64" stop-color="#c2e6c2"/><stop offset=".872" stop-color="#9ad99a"/><stop offset="1" stop-color="#81d281"/></linearGradient><linearGradient id="f" x1="-424.615" x2="-456.044" xlink:href="#e" y1="-1083.049" y2="-1023.845"/><linearGradient id="g" x1="96.387" x2="165.218" xlink:href="#b" y1="216.775" y2="327.423"/><linearGradient id="h" gradientTransform="translate(-179.333)" gradientUnits="userSpaceOnUse" x1="320.687" x2="301.62" y1="199.583" y2="263.55"><stop offset="0" stop-color="#aaa0ff"/><stop offset="1" stop-color="#6b55ff"/></linearGradient><linearGradient id="i" x1="317.353" x2="277.471" xlink:href="#h" y1="208.013" y2="296.93"/><linearGradient id="j" gradientTransform="translate(-179.333)" gradientUnits="userSpaceOnUse" x1="296.043" x2="301.496" y1="184.718" y2="178.369"><stop offset="0" stop-color="#fcc198"/><stop offset=".214" stop-color="#fbbd96"/><stop offset=".424" stop-color="#f8b192"/><stop offset=".632" stop-color="#f39d8a"/><stop offset=".839" stop-color="#ec8280"/><stop offset="1" stop-color="#e66776"/></linearGradient><linearGradient id="k" gradientTransform="matrix(-1 0 0 1 -2347.018 0)" x1="-2474.834" x2="-2466.109" xlink:href="#j" y1="165.906" y2="181.433"/><linearGradient id="l" x1="108.809" x2="131.866" xlink:href="#b" y1="184.999" y2="232.971"/><linearGradient id="m" x1="147.063" x2="119.748" xlink:href="#j" y1="189.497" y2="200.177"/><linearGradient id="n" x1="108.706" x2="196.415" xlink:href="#c" y1="213.642" y2="263.024"/><linearGradient id="o" gradientUnits="userSpaceOnUse" x1="164.486" x2="178.461" y1="190.922" y2="232.487"><stop offset="0" stop-color="#5cf79f"/><stop offset=".183" stop-color="#5bf298"/><stop offset=".434" stop-color="#58e587"/><stop offset=".723" stop-color="#54d06a"/><stop offset="1" stop-color="#50b848"/></linearGradient><linearGradient id="p" x1="222.74" x2="191.002" xlink:href="#o" y1="242.301" y2="335.301"/><rect fill="#fff" filter="url(#a)" height="409.115" opacity=".22" rx="16.799" width="219.497" x="53.206" y="25.802"/><rect fill="#fff" height="409.115" rx="16.799" width="219.497" x="53.206" y="26.925"/><ellipse cx="143.921" cy="191.739" fill="#fff" rx="2.984" ry="3.129"/><ellipse cx="188.727" cy="191.739" fill="#fff" rx="2.984" ry="3.129"/><path d="m272.623 175.297v-112.188c-1.674-.15-3.366-.239-5.079-.239-31.112 0-56.333 25.221-56.333 56.333s25.221 56.333 56.333 56.333c1.713 0 3.405-.089 5.079-.239z" fill="url(#b)" opacity=".43"/><path d="m255.824 25.802h-63.063c-1.797 8.314-1.377 21.346 10.783 36.401 21 26 41 10 58 37 6.159 9.782 8.774 18.645 11.079 26.257v-82.859c0-9.278-7.521-16.799-16.798-16.799z" fill="url(#c)"/><path d="m101.894 376.073c-20.906-10.224-38.893-1.841-50.664 7.447v34.554c0 10.475 9.164 18.966 20.469 18.966h89.759c-4.035-3.312-8.93-6.393-14.886-9.032-37.368-16.559-15.434-37.634-44.679-51.935z" fill="url(#d)"/><path d="m227.633 259.233c-.025-.039-.041-.084-.067-.123-3.416-5.011-13.821-3.62-23.241 3.107s-14.287 16.243-10.872 21.255c.026.039.062.069.089.107z" fill="url(#e)"/><path d="m227.554 259.118c.027.038.063.068.089.107 3.416 5.011-1.452 14.528-10.872 21.255s-19.825 8.118-23.241 3.107c-.026-.039-.042-.083-.067-.123z" fill="url(#f)"/><path d="m192.409 284.388 32.205-22.999" fill="none" stroke="#f7f7f7" stroke-miterlimit="10" stroke-width=".5"/><path d="m197.466 280.549 1.059-8.726" fill="none" stroke="#f7f7f7" stroke-miterlimit="10" stroke-width=".5"/><path d="m203.376 276.328 8.779 1.131" fill="none" stroke="#f7f7f7" stroke-miterlimit="10" stroke-width=".5"/><path d="m211.306 270.665 1.618-7.417" fill="none" stroke="#f7f7f7" stroke-miterlimit="10" stroke-width=".5"/><path d="m218.068 266.064 5.259 1.025" fill="none" stroke="#f7f7f7" stroke-miterlimit="10" stroke-width=".5"/><path d="m116.11 267.688c.895 3.383-11.867-1.677-9.386 4.102 2.482 5.78 16.025 6.606 16.473 8.297s-6.43.34-6.485 3.866 14.908 2.343 13.719 5.342c-.478.207-.934.481-1.353.793h13.077c1.181-.11 2.234-.09 3.166 0h4.301c-.919-2.231-2.3-7.623 1.117-15.466 4.577-10.505-1.805-7.616-3.385-3.333-2.882 1.332-2.307-14.018-5.747-13.825s-1.854 7.175-3.523 6.783-3-14.213-8.738-16.527-.304 10.543-3.641 9.759-4.173-12.032-7.291-12.183c-3.117-.151 1.382 7.199-1.32 7.04s-4.475-6.075-7.992-5.368-4.876-.835-4.876-.835 1.534 1.356.98 4.981c-.554 3.624 5.29 5.209 5.55 7.966.26 2.758-7.089-1.56-6.821 1.623s11.281 3.602 12.176 6.985z" fill="url(#g)"/><path d="m119.944 272.858c2.209-.106 4.426-.277 6.637-.296 2.121-.017 3.956 1.001 6.022 1.206 1.784 1.789 3.574 3.571 5.332 5.384.733.755 1.463 1.512 2.194 2.269l-2.85-.677c-1.056-.251-2.169-.658-3.26-.661-.957-.002-2.036.539-2.966.76-1.38.327-2.786.538-4.196.673-.148.014-.146.25.005.238 2.258-.184 4.448-.629 6.62-1.281 1.152-.346 2.605.282 3.732.552l3.295.788c1.449 1.499 2.897 3 4.344 4.5-2.659.105-5.326.983-7.652 2.245-.133.072-.014.274.119.205 2.5-1.303 5.06-1.898 7.815-2.158 1.124 1.164 2.256 2.32 3.382 3.483h.998c-1.032-1.09-2.064-2.181-3.106-3.261-.305-1.419-.888-2.865-.644-4.314.284-1.684.678-3.354.994-5.033.028-.15-.192-.206-.226-.056-.397 1.764-.82 3.532-1.132 5.314-.194 1.106.163 2.425.524 3.587-1.222-1.262-2.451-2.518-3.69-3.763-.267-.872-.401-1.756-.407-2.679-.006-1.075.337-2.103.406-3.169.07-1.091-.375-2.194-.398-3.295-.027-1.294.019-2.593.018-3.887 0-.134-.198-.129-.202.004-.04 1.296-.08 2.592-.089 3.888-.007 1.125.363 2.183.373 3.295.01 1.056-.376 2.104-.409 3.169-.023.753.083 1.506.269 2.235-1.05-1.052-2.105-2.099-3.17-3.137-2.495-2.431-5.005-4.852-7.467-7.322-.691-4.24.803-8.602 0-12.829-.035-.183-.305-.102-.271.078.78 4.1-.622 8.33-.026 12.45-3.027-3.047-5.976-6.17-8.729-9.483-.164-.198-.43.093-.271.289 3.217 3.976 6.78 7.62 10.377 11.23-1.804-.252-3.467-1.069-5.326-1.128-2.311-.073-4.666.216-6.972.352-.145.009-.142.239.004.232z" fill="#fff"/><path d="m220.381 236.965s.268 11.524-10.085 23.738-22.063 10.114-22.063 10.114-2.382-11.922 9.252-22.861 22.896-10.991 22.896-10.991z" fill="#7cd161"/><path d="m195.438 264.217c3.275-1.206 6.654-2.087 10.057-2.825.099-.022.056-.174-.042-.154-3.232.64-6.399 1.525-9.549 2.492 1.387-1.455 2.749-2.936 4.09-4.43.946-1.054 1.889-2.109 2.834-3.164 1.508-.38 3.013-.774 4.518-1.166.744-.194 1.487-.39 2.23-.585.244-.064 2.903-.824 2.912-.511.002.086.118.079.127-.002l.016-.146c.003-.026-.017-.053-.038-.065-.306-.176-.478-.109-.829-.02-.869.219-1.739.438-2.609.657-1.739.438-3.478.877-5.216 1.322-.282.072-.564.146-.846.22 1.614-1.801 3.233-3.599 4.872-5.376.571-.619 1.15-1.233 1.732-1.846 2.25-.528 4.5-1.058 6.75-1.59.077-.018.044-.138-.033-.12-1.986.467-3.972.934-5.957 1.404-.219.052-.425.119-.597.133 2.186-2.304 4.409-4.594 6.435-7.028.145-.174-.086-.407-.249-.248-2.293 2.227-4.427 4.659-6.585 7.042-.027-.081-.042-.184-.043-.32 0-.495-.017-.991-.035-1.486-.041-1.114-.146-2.226-.277-3.332-.006-.055-.09-.054-.085.001.192 1.768.28 3.541.273 5.319-.451.497-.903.993-1.358 1.483-1.756 1.89-3.534 3.759-5.317 5.624-.011-.35.057-.807.062-.894.046-.878.073-1.758.09-2.637.035-1.758-.009-3.524-.144-5.277-.004-.058-.092-.058-.089.001.141 3.024.118 6.019-.134 9.033-.885.925-1.77 1.85-2.655 2.775-1.411 1.475-2.81 2.962-4.21 4.448.32-3.172.471-6.48.088-9.618-.008-.064-.106-.064-.099.001.326 3.386-.202 6.69-.402 10.054-1.169 1.24-2.34 2.48-3.52 3.71-.277.289-.558.574-.839.859-.068-.46.061-1.094.074-1.498.026-.851.079-1.706.065-2.558 0-.055-.077-.051-.082.001-.136 1.398-.17 2.815-.221 4.223-1.051 1.059-2.128 2.091-3.213 3.112-1.427 1.341-3.003 2.555-4.356 3.973-.167.175.056.477.262.342 1.536-1.012 2.891-2.362 4.25-3.604 1.127-1.03 2.223-2.094 3.318-3.159 1.798-.13 3.702-.241 5.444-.71.076-.02.06-.145-.02-.14-1.62.106-3.236.437-4.856.588-.108.01-.2.001-.278-.021.22-.214.44-.429.661-.643 1.228-1.191 2.433-2.409 3.621-3.646z" fill="#cce5b5"/><path d="m235.896 277.427s-3.233 1.579-8.043.091-5.738-5.24-5.738-5.24 3.071-2.259 7.686-.225 6.095 5.373 6.095 5.373z" fill="#7cd161"/><path d="m224.924 273.56c.768.816 1.457 1.706 2.109 2.621.019.027.057-.006.038-.032-.602-.877-1.265-1.703-1.949-2.513.593.223 1.19.435 1.788.639.422.144.844.287 1.266.431.304.399.611.795.918 1.191.152.196.304.391.456.586.05.064.611.756.524.799-.024.012-.007.045.017.037l.043-.014c.008-.003.013-.012.013-.02.01-.114-.031-.156-.102-.249-.175-.23-.351-.46-.526-.69-.35-.46-.701-.92-1.053-1.378-.057-.074-.115-.149-.172-.223.721.245 1.441.492 2.158.748.25.089.499.181.749.274.442.6.886 1.2 1.329 1.799.015.021.045-.005.03-.025-.391-.529-.781-1.059-1.173-1.587-.043-.058-.089-.111-.115-.16.938.35 1.876.712 2.83.998.068.02.104-.078.038-.106-.93-.391-1.897-.709-2.853-1.041.019-.018.047-.037.085-.054.14-.065.279-.134.417-.204.311-.157.612-.333.909-.516.015-.009.004-.034-.011-.025-.476.287-.968.544-1.473.773-.2-.069-.399-.139-.597-.211-.764-.276-1.526-.561-2.286-.848.098-.049.236-.088.261-.098.255-.101.508-.207.76-.316.503-.218.998-.461 1.478-.729.016-.009.004-.035-.012-.026-.839.435-1.691.818-2.579 1.135-.377-.143-.755-.285-1.132-.428-.602-.227-1.205-.45-1.809-.672.941-.318 1.899-.703 2.739-1.225.017-.011.004-.04-.013-.029-.918.537-1.924.81-2.904 1.188-.504-.186-1.008-.373-1.51-.563-.118-.045-.235-.091-.353-.138.122-.08.318-.124.434-.173.245-.103.494-.198.734-.313.016-.007.004-.029-.011-.024-.414.141-.821.316-1.226.483-.437-.175-.87-.36-1.3-.55-.566-.25-1.115-.56-1.693-.777-.071-.027-.128.079-.063.122.487.325 1.046.552 1.575.794.439.201.883.388 1.327.575.271.517.55 1.069.909 1.525.016.02.049 0 .037-.024-.241-.467-.545-.905-.798-1.366-.017-.031-.026-.059-.03-.085.089.038.179.075.268.113.497.21 1 .41 1.505.602z" fill="#cce5b5"/><path d="m97.069 254.903s3.346 1.309 5.609 5.902c2.263 4.592.247 7.867.247 7.867s-3.716-.721-5.457-5.545c-1.742-4.825-.398-8.224-.398-8.224z" fill="#7cd161"/><path d="m101.896 265.705c.048-1.132.203-2.256.401-3.371.006-.033-.043-.038-.049-.006-.206 1.051-.333 2.112-.435 3.177-.251-.593-.512-1.182-.78-1.767-.189-.412-.378-.824-.568-1.235.073-.5.141-1.001.21-1.502.034-.247.067-.495.101-.742.011-.081.113-.974.204-.939.025.01.037-.026.015-.038l-.04-.022c-.007-.004-.017-.001-.023.004-.087.071-.089.131-.106.247-.042.288-.084.577-.126.865-.084.577-.168 1.154-.249 1.731-.013.094-.026.188-.039.281-.323-.704-.645-1.408-.958-2.116-.109-.247-.216-.495-.322-.744.12-.742.239-1.483.357-2.225.004-.025-.034-.03-.038-.005-.105.655-.211 1.309-.315 1.964-.011.072-.017.143-.034.196-.399-.937-.789-1.883-1.244-2.786-.033-.065-.127-.023-.101.045.364.959.806 1.896 1.23 2.833-.026-.002-.058-.009-.097-.026-.143-.059-.287-.114-.431-.169-.325-.122-.658-.225-.991-.319-.016-.005-.026.021-.01.026.532.155 1.052.343 1.562.559.089.196.177.392.263.588.332.757.654 1.518.976 2.28-.102-.039-.225-.115-.249-.126-.247-.12-.497-.234-.747-.345-.501-.223-1.014-.423-1.535-.593-.017-.006-.028.021-.01.027.887.322 1.745.69 2.581 1.13.159.378.318.756.478 1.134.254.603.513 1.204.771 1.805-.873-.479-1.806-.924-2.755-1.187-.019-.005-.031.024-.012.03 1.013.31 1.899.868 2.842 1.334.216.502.431 1.004.642 1.508.05.118.098.237.146.356-.141-.035-.307-.15-.422-.203-.242-.111-.481-.23-.728-.328-.016-.006-.024.017-.01.025.386.21.789.391 1.187.576.178.444.345.893.507 1.343.214.592.372 1.213.617 1.791.03.071.144.041.13-.038-.106-.585-.33-1.156-.524-1.715-.16-.464-.334-.922-.508-1.381.18-.557.377-1.144.453-1.726.003-.025-.034-.036-.042-.011-.165.501-.265 1.028-.417 1.534-.01.034-.024.06-.04.081-.035-.092-.07-.184-.105-.277-.194-.514-.399-1.024-.612-1.531z" fill="#cce5b5"/><path d="m116.576 231.436s11.194-1.26 23.969 8.253 11.733 21.635 11.733 21.635-11.401 3.45-23.044-7.478c-11.643-10.929-12.658-22.409-12.658-22.409z" fill="#7cd161"/><path d="m145.237 254.541c-1.454-3.237-2.601-6.607-3.61-10.015-.029-.099-.174-.042-.147.056.899 3.241 2.032 6.395 3.243 9.525-1.535-1.29-3.093-2.552-4.662-3.792-1.107-.874-2.214-1.746-3.322-2.62-.499-1.506-1.011-3.007-1.522-4.508-.253-.742-.507-1.483-.761-2.224-.083-.244-1.051-2.89-.746-2.926.084-.01.067-.127-.013-.129l-.143-.003c-.025 0-.05.022-.06.044-.145.327-.065.497.051.847.288.868.576 1.736.863 2.604.575 1.736 1.151 3.472 1.733 5.206.095.282.19.563.286.844-1.892-1.492-3.78-2.989-5.65-4.509-.651-.529-1.299-1.068-1.945-1.608-.707-2.25-1.415-4.499-2.126-6.748-.024-.077-.138-.033-.114.043.624 1.985 1.249 3.971 1.876 5.955.069.218.152.424.181.597-2.429-2.033-4.849-4.103-7.391-5.961-.182-.133-.389.122-.22.275 2.364 2.148 4.914 4.116 7.418 6.113-.076.035-.176.059-.308.071-.482.043-.963.102-1.443.163-1.081.137-2.154.339-3.219.567-.053.011-.045.097.008.086 1.704-.347 3.422-.589 5.154-.734.523.418 1.044.836 1.56 1.258 1.99 1.629 3.961 3.283 5.929 4.941-.34.041-.791.01-.875.013-.859.028-1.718.076-2.575.134-1.714.115-3.43.311-5.124.599-.056.01-.049.099.009.091 2.931-.403 5.848-.636 8.804-.636.976.823 1.952 1.647 2.928 2.47 1.557 1.313 3.124 2.612 4.69 3.913-3.115-.055-6.347.074-9.369.734-.061.013-.054.113.01.101 3.268-.623 6.529-.366 9.821-.451 1.307 1.086 2.614 2.174 3.912 3.272.305.258.607.52.908.782-.442.109-1.07.031-1.464.053-.831.046-1.667.065-2.495.153-.054.006-.043.083.008.083 1.373.019 2.755-.067 4.129-.136 1.12.981 2.217 1.991 3.304 3.011 1.428 1.34 2.744 2.844 4.24 4.102.185.155.46-.098.31-.296-1.117-1.48-2.547-2.746-3.872-4.026-1.099-1.061-2.228-2.088-3.359-3.114-.281-1.823-.551-3.754-1.157-5.491-.026-.075-.146-.049-.134.032.242 1.643.702 3.262.988 4.902.019.11.018.204.003.285-.227-.206-.455-.412-.682-.619-1.264-1.15-2.553-2.275-3.859-3.381z" fill="#cce5b5"/><path d="m219.459 273.353c.883-2.068-2.3-2.595-4.479-2.69.261-.209.523-.417.781-.642.931-.812 1.887-1.69 2.807-2.63.027.015.05.032.083.042 1.255.392 5.535.768 5.523-1.439-.009-1.686-2.177-1.216-3.79-.614.858-1.039 1.638-2.14 2.278-3.301 1.194.121 4.359-.153 4.103-1.844-.212-1.404-2.025-.655-3.254.052.489-1.233.802-2.524.876-3.871 1.197-.279 4.058-1.524 3.316-3.037-.695-1.416-2.48.342-3.387 1.424-.028-.042-.065-.073-.107-.095-.42-1.327-1.29-3.563-2.4-2.637-.551.46-.128 1.46.103 1.977.391.878 1.011 1.577 1.792 2.099-.04 1.188-.281 2.358-.682 3.496-.068-1.352-.362-2.948-1.474-2.504-.663.265-.559 1.349-.495 1.914.11.969.501 1.834 1.098 2.581-.684 1.311-1.554 2.566-2.535 3.741.237-1.72.417-4.524-1.262-4.132-.856.2-.923 1.543-.944 2.245-.038 1.206.282 2.339.88 3.364-1.14 1.184-2.368 2.265-3.588 3.216 1.106-1.855 2.497-4.738.471-5.145-1.075-.216-1.815 1.282-2.186 2.07-.668 1.417-.856 2.945-.637 4.493-.056.096-.085.205-.074.315-.032.021-.065.044-.098.065-1.134.735-2.339 1.298-3.562 1.818 1.34-1.687 3.12-4.379 1.155-5.061-1.037-.36-1.965 1.024-2.435 1.754-.842 1.307-1.227 2.79-1.215 4.346-.925.39-1.843.8-2.73 1.289-.739.407-1.446.855-2.126 1.339 1.225-2.463 2.677-6.196.09-6.512-1.384-.169-2.183 1.803-2.581 2.838-.716 1.862-.813 3.82-.392 5.763-.062.126-.087.267-.065.404-.787.781-1.529 1.614-2.221 2.5-.278.357.258.806.537.448.673-.861 1.385-1.66 2.138-2.399 1.912 1.329 7.713 3.909 8.805.723.951-2.777-3.361-3.085-6.133-2.97 1.462-1.057 3.047-1.946 4.76-2.676 1.176 1.302 5.353 4.402 6.722 2.091 1.132-1.91-1.874-2.863-4.018-3.261 1.305-.596 2.552-1.241 3.757-1.993 1.484 1.173 5.773 3.444 6.797 1.046z" fill="#00b68e"/><path d="m153.477 185.422s1.368 1.774 2.919 3.361 4.926 4.855 5.655 9.337-3.193 10.457-9.122 10.457-9.304-3.548-9.943-6.909c-.638-3.361 1.368-8.31 3.831-11.018s3.628-4.344 3.456-5.346c-.172-1.003-.537-1.936-.537-1.936s-1.186-1.587-.73-2.147 4.378-.654 4.835-.093-1.095 2.521-.821 3.175.456 1.12.456 1.12z" fill="#254da1"/><path d="m139.145 278.102s.696 3.005 2.64 4.291c1.816 1.146 11.549-5.025 10.663-6.275s-7.696.55-7.696.55l-1.688-1.006s-1.159-.988-3.919 2.441z" fill="#32326b"/><path d="m109.178 221.729s14.677 22.682 25.986 55.924c.446 1.31 1.786 2.059 3.1 1.72 1.796-.462 4.236-1.52 5.998-3.94.415-.57.52-1.316.379-2.013-1.275-6.333-8.127-38.475-18.373-51.999-5.996-5.524-16.49-5.217-17.09.307z" fill="url(#h)"/><path d="m109.853 280.04s-1.799 3.222-1.124 5.985c.675 2.532 14.167 5.294 14.392 3.453s-7.196-5.985-7.196-5.985l-.675-2.302s-.225-1.841-5.397-1.151z" fill="#32326b"/><path d="m117.573 223.57s-1.747 28.017-10.12 54.091c-.259.805-.015 1.686.634 2.212 1.303 1.058 4.024 2.471 9.039 2.077.624-.049 1.207-.395 1.534-.942 3.734-6.251 14.158-44.297 13.604-63.27-.9-9.207-14.691 5.831-14.691 5.831z" fill="url(#i)"/><path d="m118.508 176.429-.315 6.025h5.781l-.946-4.303z" fill="url(#j)"/><path d="m116.886 173.57c0-2.792 2.211-5.055 4.938-5.055 2.526 0 4.606 1.943 4.899 4.447.012.036.027.066.039.102 0 0 .412 5.139-.082 8.004-.659.842-2.716.758-5.268-.506-1.187-.588-1.96-1.775-2.452-2.879-1.255-.917-2.075-2.416-2.075-4.114z" fill="url(#k)"/><path d="m117.518 180.974s7.066 1.034 7.838 1.68c.331.517.442 1.292.442 1.292h-9.384z" fill="#f1f2f2"/><path d="m127.723 168.97c-.171-1.168-1.864-1.511-2.663-1.219-.434.159-.454.14-1.191 0-1.606-.627-3.184-.855-4.672-.046-1.212.659-1.836 1.472-2.157 2.174-1.229.527-.378 1.026-1.16 1.96-.841 1.004-.49 1.65.14 3.801.631 2.152 1.822 3.73 2.242 4.232.421.502 1.261.287 1.752.574.49.287 1.682-.287 2.312-1.219.631-.933 1.051-2.295 1.051-3.084 0-.309-.151-.729-.33-1.193.114-.32.29-.637.54-.6.49.072.631.717.981 1.363.35.645.14 1.506.14 1.506h.631s.07-1.004 0-1.65c-.07-.645-.42-1.219-1.191-2.295-.277-.387-.461-.734-.586-1.023.459.092.903.144 1.283.098.32-.039.631-.109.916-.209.066-.008.13-.01.197-.025 2.111-.467 1.935-1.977 1.764-3.145z" fill="#254da1"/><path d="m113.226 184.594s10.494-4.603 15.891 3.99c4.497 7.979 4.198 31.304 3.298 34.066-1.499 2.762-18.589 4.91-23.086 1.534s-2.099-37.442 3.898-39.59z" fill="url(#l)"/><path d="m119.541 195.527s13.061 9.123 18.593 9.123 13.676-17.144 13.676-17.144 2.305-1.258 2.305-3.303c0-2.202-3.841 1.101-3.841 1.101s-.307-2.359-.922-1.73-.307 2.359-.307 2.359-8.144 8.493-9.834 9.752c-2.151 1.258-10.142-7.392-14.444-8.493s-8.298 4.876-5.224 8.336z" fill="url(#m)"/><path d="m118.568 188.869s-3.534 4.247 2.151 8.808c4.763 4.089 9.373 5.505 9.373 5.505s6.146-5.505 4.763-10.853c0 0-7.99-6.134-10.756-6.449s-5.532 2.989-5.532 2.989z" fill="#f1f2f2"/><path d="m141.47 210.538 1.771 75.225c.062 2.613 2.149 4.699 4.703 4.699h47.188c2.554 0 4.641-2.086 4.703-4.699l1.771-75.225h-60.135z" fill="url(#n)"/><rect fill="url(#o)" height="10.457" rx="1.5" width="69.325" x="136.419" y="205.309"/><g fill="#f7f7f7"><path d="m160.211 248.982-1.67-.974 5.394-.085 2.789 4.889-1.67-.923-2.233 4.03c-.548.988-.862 2.097-.888 3.233 0 .043-.002.087-.002.131l-3.04-5.376s-1.319-2.325 1.319-4.923z"/><path d="m175.138 262.142-.032 1.967-2.667-4.8 2.847-4.854.012 1.943 4.526.067c1.11.016 2.211-.235 3.196-.758.038-.02.075-.04.113-.061l-3.144 5.313s-1.357 2.302-4.852 1.183z"/><path d="m179.016 242.378 1.491-.887-2.637 4.818-5.531.013 1.619-1.015-2.189-3.816s.817-2.155 3.077-2.604c2.328-.462 4.171 3.491 4.171 3.491z"/><path d="m170.282 256.341v5.718h-4.885s-2.138-.05-2.48-2.538c-.284-2.067.852-3.18.852-3.18z"/><path d="m176.469 249.864 4.806-2.914 2.489 4.302s.601 2.136-1.356 3.652c-1.598 1.239-2.621.696-2.621.696l-3.319-5.737z"/><path d="m162.633 244.435 2.514-4.505s.802-1.359 2.054-1.359h5.904s-1.219.949-2.447 2.932c-1.249 2.018-3.156 5.735-3.156 5.735l-4.868-2.804z"/></g><path d="m233.976 290.462c.158-.828-1.323-4.062-3.786-4.062-5.192 0-3.284 2.241-7.389 2.521s-5.199-9.524-10.672-10.084-6.568 6.442-9.578 7.843-6.045-4.811-8.906-2.546-2.04 5.067-5.324 4.506-5.747-1.401-7.662-.28c-1.034.605-1.66 1.447-2.026 2.101h55.342z" fill="url(#p)"/><path d="m111.757 237.904s1.863-1.274 4.97-.796c3.108.478 4.011 2.716 4.011 2.716s-1.703 1.68-4.738.846-4.244-2.765-4.244-2.765z" fill="#7cd161"/><path d="m118.888 239.288c-.547-.435-1.052-.922-1.536-1.428-.014-.015-.034.009-.021.024.449.488.932.938 1.427 1.376-.387-.083-.775-.16-1.163-.231-.274-.05-.548-.1-.821-.15-.223-.219-.448-.436-.673-.653-.111-.107-.222-.214-.334-.321-.037-.035-.445-.411-.394-.446.014-.01 0-.029-.014-.022l-.026.013s-.007.009-.007.013c.004.071.033.094.085.145.129.126.257.252.386.379.257.252.515.505.773.756.042.041.084.081.126.122-.468-.086-.935-.172-1.402-.265-.162-.032-.325-.066-.488-.101-.327-.331-.653-.661-.98-.991-.011-.011-.027.007-.016.018.288.292.577.583.865.875.032.032.065.061.085.088-.611-.13-1.224-.268-1.839-.357-.044-.006-.058.058-.014.069.61.157 1.237.265 1.858.382-.01.013-.026.027-.048.041-.081.053-.161.109-.24.164-.179.126-.35.262-.517.403-.008.007 0 .021.009.014.27-.221.551-.426.844-.614.13.025.259.049.388.075.497.101.994.207 1.49.315-.056.039-.139.076-.153.085-.149.086-.296.175-.442.266-.292.181-.577.377-.851.587-.009.007 0 .022.01.015.481-.347.975-.662 1.497-.94.246.053.492.107.738.161.393.085.786.168 1.179.25-.555.283-1.114.61-1.588 1.01-.01.008 0 .025.011.017.521-.417 1.12-.678 1.693-1.003.328.069.656.138.984.21.077.017.154.035.23.053-.068.061-.186.106-.254.147-.143.086-.288.168-.427.261-.009.006 0 .019.009.014.244-.126.48-.271.717-.412.286.068.57.143.853.221.372.102.74.244 1.116.325.047.01.072-.061.028-.081-.33-.156-.696-.245-1.044-.347-.289-.084-.581-.159-.872-.234-.213-.295-.434-.611-.697-.86-.011-.011-.03.005-.021.018.19.267.417.51.614.772.013.018.022.034.026.05-.059-.015-.117-.03-.176-.045-.326-.084-.655-.162-.984-.234z" fill="#cce5b5"/><path d="m138.601 160.407c.105-.551-.88-2.701-2.518-2.701-3.453 0-2.184 1.49-4.914 1.677-2.73.186-3.458-6.334-7.098-6.706-3.64-.373-4.368 4.285-6.37 5.216s-4.02-3.2-5.923-1.693-1.357 3.369-3.54 2.997c-2.184-.373-3.822-.931-5.096-.186-.688.402-1.104.962-1.347 1.397h36.805z" fill="#a9eaff"/><path d="m235.287 194.14c.149-.78-1.246-3.825-3.566-3.825-4.89 0-3.093 2.111-6.959 2.374-3.866.264-4.897-8.97-10.052-9.498s-6.186 6.068-9.021 7.387-5.694-4.531-8.388-2.398c-2.695 2.134-1.921 4.772-5.014 4.244s-5.413-1.319-7.217-.264c-.974.57-1.563 1.363-1.908 1.979h52.126z" fill="#a9eaff"/><text fill="#00a95e" font-family="CascadiaMonoRoman-SemiBold, 'Cascadia Mono'" font-size="36" font-weight="600" transform="translate(67.128 117.308)"><tspan x="0" y="0">My-WB</tspan></text><text fill="#404a69" font-family="Asap-Regular, Asap" font-size="10" transform="translate(70.854 86.72)"><tspan letter-spacing="-.01em" x="0" y="0">e</tspan><tspan x="5.29" y="0">co lifesty</tspan><tspan letter-spacing="-.01em" x="44.849" y="0">l</tspan><tspan x="47.719" y="0">e</tspan></text></svg>