<svg viewBox="0 30 330 390" xmlns="http://www.w3.org/2000/svg" xmlns:xlink="http://www.w3.org/1999/xlink"><filter id="a" filterUnits="userSpaceOnUse"><feOffset dx="8" dy="7"/><feGaussianBlur result="blur" stdDeviation="5"/><feFlood flood-opacity=".42"/><feComposite in2="blur" operator="in"/><feComposite in="SourceGraphic"/></filter><linearGradient id="b" gradientUnits="userSpaceOnUse" x1="49.798" x2="325.623" y1="-18.648" y2="203.988"><stop offset="0" stop-color="#86ddcf"/><stop offset="1" stop-color="#00b68e"/></linearGradient><linearGradient id="c" x1="163.337" x2="163.337" xlink:href="#b" y1="125.644" y2="375.985"/><linearGradient id="d" gradientUnits="userSpaceOnUse" x1="78.731" x2="151.268" y1="191.845" y2="308.451"><stop offset="0" stop-color="#fee18e"/><stop offset="1" stop-color="#fec800"/></linearGradient><linearGradient id="e" gradientUnits="userSpaceOnUse" x1="213.951" x2="174.502" y1="207.97" y2="323.567"><stop offset="0" stop-color="#5cf79f"/><stop offset=".183" stop-color="#5bf298"/><stop offset=".434" stop-color="#58e587"/><stop offset=".723" stop-color="#54d06a"/><stop offset="1" stop-color="#50b848"/></linearGradient><path d="m70.005 25.802h185.9c9.271 0 16.798 7.527 16.798 16.798v375.518c0 9.271-7.527 16.799-16.799 16.799h-185.899c-9.271 0-16.799-7.527-16.799-16.799v-375.517c0-9.271 7.527-16.799 16.799-16.799z" fill="#fff" filter="url(#a)" opacity=".22"/><path d="m70.005 26.925h185.9c9.271 0 16.798 7.527 16.798 16.798v375.518c0 9.271-7.527 16.799-16.799 16.799h-185.899c-9.271 0-16.799-7.527-16.799-16.799v-375.518c0-9.271 7.527-16.799 16.799-16.799z" fill="#fff"/><path d="m253.13 24.802h-181.057c-10.81 0-19.573 8.222-19.573 18.364v66.788c5.797 5.431 15.511 10.416 31.679 12.944 46.606 7.288 67.579-32.067 110.301-16.033 42.722 16.033 37.285 49.557 73.793 60.489 1.528.458 2.993.879 4.43 1.284v-125.472c0-10.142-8.763-18.364-19.573-18.364z" fill="url(#b)"/><ellipse cx="143.921" cy="191.739" fill="#fff" rx="2.984" ry="3.129"/><ellipse cx="188.727" cy="191.739" fill="#fff" rx="2.984" ry="3.129"/><path d="m201.986 268.684h-77.298c-2.511 0-4.547-2.135-4.547-4.768l1.137-92.976c0-2.633 2.036-4.768 4.547-4.768h75.024c2.511 0 4.547 2.135 4.547 4.768l1.137 92.976c0 2.633-2.036 4.768-4.547 4.768z" fill="url(#c)"/><path d="m141.624 214.546-3.435-2.053 11.094-.18 5.736 10.3-3.435-1.945-4.593 8.49c-1.126 2.081-1.773 4.419-1.826 6.811-.002.091-.003.183-.004.275l-6.251-11.327s-2.713-4.898 2.713-10.372z" fill="#fff"/><path d="m172.321 242.271-.065 4.145-5.485-10.113 5.855-10.227.025 4.093 9.307.14c2.282.034 4.547-.495 6.573-1.596.077-.042.154-.085.232-.129l-6.465 11.194s-2.791 4.85-9.978 2.493z" fill="#fff"/><path d="m180.296 200.633 3.067-1.869-5.424 10.149-11.375.027 3.329-2.137-4.502-8.039s1.681-4.541 6.328-5.486c4.788-.973 8.577 7.355 8.577 7.355z" fill="#fff"/><path d="m162.334 230.051v12.046h-10.046s-4.397-.106-5.1-5.347c-.584-4.354 1.752-6.699 1.752-6.699h13.395z" fill="#fff"/><path d="m175.058 216.406 9.884-6.138 5.119 9.064s1.236 4.499-2.789 7.694c-3.287 2.609-5.389 1.466-5.389 1.466z" fill="#fff"/><path d="m146.604 204.966 5.169-9.49s1.649-2.863 4.225-2.863h12.141s-2.507 1.999-5.032 6.177c-2.569 4.252-6.491 12.083-6.491 12.083z" fill="#fff"/><path d="m114.595 268.462c-.129.057-.252.131-.378.198h20.071c-.916-2.675-1.867-8.136 1.397-15.809 4.753-11.176-1.875-8.102-3.516-3.546-2.993 1.418-2.396-14.913-5.968-14.709s-1.926 7.633-3.658 7.216c-1.733-.417-3.115-15.121-9.075-17.583-5.959-2.462-.315 11.216-3.781 10.382s-4.334-12.801-7.571-12.961 1.435 7.659-1.371 7.49-4.648-6.463-8.3-5.71-5.064-.888-5.064-.888 1.593 1.443 1.018 5.299 5.493 5.541 5.763 8.475-7.362-1.659-7.084 1.727 11.715 3.832 12.644 7.431-12.324-1.785-9.747 4.364 16.642 7.028 17.107 8.827c.464 1.799-6.678.362-6.735 4.113s15.482 2.493 14.247 5.683z" fill="url(#d)"/><path d="m116.85 251.943c1.853 1.903 3.711 3.799 5.537 5.728.761.804 1.519 1.609 2.278 2.414-.987-.24-1.973-.48-2.96-.72-1.096-.267-2.253-.7-3.386-.703-.994-.002-2.115.574-3.081.809-1.433.348-2.894.572-4.357.715-.154.015-.151.266.005.253 2.345-.196 4.619-.669 6.875-1.363 1.196-.368 2.706.3 3.875.587l3.421.838c1.505 1.595 3.008 3.192 4.511 4.788-2.761.112-5.53 1.045-7.947 2.389-.138.077-.014.291.123.218 2.596-1.387 5.255-2.019 8.116-2.296.964 1.023 1.933 2.04 2.9 3.06h1.048c-.873-.944-1.744-1.888-2.625-2.823-.316-1.51-.922-3.048-.668-4.589.295-1.792.704-3.568 1.032-5.354.029-.159-.199-.22-.235-.059-.413 1.877-.851 3.758-1.175 5.654-.201 1.177.169 2.58.544 3.817-1.269-1.343-2.545-2.679-3.832-4.004-.278-.928-.417-1.868-.422-2.85-.006-1.144.35-2.237.422-3.372.073-1.161-.389-2.334-.413-3.505-.028-1.376.02-2.758.019-4.136 0-.143-.205-.137-.21.004-.041 1.379-.083 2.757-.092 4.137-.008 1.197.377 2.322.388 3.506.01 1.123-.391 2.238-.425 3.372-.024.801.086 1.603.28 2.378-1.091-1.119-2.186-2.233-3.292-3.337-2.591-2.587-5.198-5.162-7.754-7.789-.717-4.511.834-9.151-.001-13.648-.036-.195-.317-.109-.281.083.81 4.362-.646 8.862-.027 13.245-3.143-3.241-6.206-6.564-9.065-10.089-.171-.21-.446.099-.282.307 3.341 4.229 7.041 8.106 10.776 11.947-1.874-.268-3.601-1.137-5.531-1.2-2.4-.078-4.845.23-7.24.375-.151.009-.147.254.005.246 2.294-.112 4.596-.295 6.893-.314 2.202-.019 4.108 1.065 6.254 1.283z" fill="#fff"/><path d="m107.405 183.541s-3.745 11.618 2.832 27.378 18.821 17.422 18.821 17.422 5.961-11.337-2.271-26.218c-8.232-14.88-19.382-18.582-19.382-18.582z" fill="#7cd161"/><path d="m123.909 219.303c-2.883-2.286-5.967-4.276-9.119-6.128-.092-.054-.003-.194.088-.143 3.011 1.697 5.883 3.622 8.715 5.626-.936-1.927-1.839-3.872-2.717-5.825-.619-1.377-1.237-2.754-1.855-4.131-1.381-.875-2.754-1.762-4.127-2.649-.679-.438-1.356-.878-2.034-1.317-.223-.144-2.63-1.778-2.733-1.462-.028.087-.141.042-.125-.043l.029-.153c.005-.027.033-.048.057-.053.356-.08.507.045.828.248.796.505 1.592 1.009 2.388 1.513 1.592 1.008 3.184 2.017 4.772 3.033.258.165.515.331.772.497-1.057-2.353-2.119-4.703-3.208-7.039-.379-.813-.768-1.625-1.16-2.436-2.072-1.266-4.142-2.533-6.212-3.802-.071-.043-.002-.154.068-.111 1.828 1.118 3.656 2.235 5.482 3.356.201.123.386.258.551.329-1.472-3.048-2.984-6.095-4.258-9.223-.091-.223.208-.385.322-.171 1.601 3.005 2.983 6.167 4.403 9.286.051-.073.098-.173.139-.311.151-.503.316-1.001.483-1.498.376-1.118.817-2.213 1.28-3.295.023-.053.106-.026.083.029-.724 1.733-1.347 3.506-1.877 5.314.297.651.596 1.301.899 1.947 1.17 2.489 2.37 4.963 3.574 7.435.117-.352.187-.839.208-.928.22-.907.459-1.809.707-2.708.496-1.797 1.072-3.577 1.736-5.313.022-.058.109-.029.088.03-1.053 3.026-1.934 6.075-2.593 9.218.598 1.226 1.197 2.452 1.794 3.678.954 1.956 1.892 3.919 2.832 5.882.64-3.326 1.489-6.734 2.816-9.797.027-.062.124-.031.098.034-1.346 3.334-1.819 6.861-2.637 10.342.785 1.639 1.571 3.277 2.37 4.909.188.383.38.764.572 1.144.207-.445.27-1.131.379-1.545.231-.873.436-1.758.708-2.619.018-.056.092-.027.081.028-.287 1.464-.681 2.915-1.055 4.361.723 1.416 1.478 2.813 2.246 4.202 1.01 1.825 2.206 3.568 3.119 5.446.113.232-.199.467-.363.262-1.217-1.526-2.153-3.336-3.126-5.038-.807-1.412-1.572-2.847-2.336-4.284-1.744-.715-3.597-1.444-5.183-2.485-.069-.045-.016-.167.062-.136 1.574.633 3.076 1.493 4.637 2.171.104.045.198.066.282.068-.154-.289-.307-.578-.461-.867-.858-1.607-1.685-3.235-2.489-4.876z" fill="#cce5b5"/><path d="m225.29 224.82s.27 11.866-10.135 24.441-22.174 10.414-22.174 10.414-2.394-12.275 9.298-23.538c11.693-11.263 23.012-11.317 23.012-11.317z" fill="#7cd161"/><path d="m200.22 252.879c3.292-1.242 6.688-2.149 10.108-2.908.1-.022.056-.179-.042-.159-3.248.659-6.431 1.57-9.597 2.566 1.394-1.498 2.762-3.023 4.11-4.561.95-1.085 1.899-2.171 2.848-3.257 1.516-.391 3.028-.797 4.541-1.201.747-.2 1.494-.402 2.241-.603.246-.066 2.918-.848 2.927-.526.002.088.119.081.127-.002l.016-.15c.003-.027-.017-.054-.038-.066-.307-.181-.48-.112-.833-.021-.874.226-1.748.451-2.622.677-1.748.45-3.496.902-5.242 1.361-.284.075-.567.15-.85.226 1.623-1.855 3.249-3.706 4.897-5.535.574-.637 1.156-1.269 1.741-1.901 2.262-.544 4.523-1.09 6.784-1.637.077-.019.044-.142-.033-.123-1.996.481-3.992.961-5.987 1.445-.22.053-.428.122-.6.137 2.197-2.372 4.431-4.73 6.467-7.236.145-.179-.086-.419-.25-.255-2.304 2.293-4.45 4.797-6.618 7.25-.027-.083-.043-.19-.043-.329 0-.51-.017-1.02-.035-1.53-.041-1.147-.147-2.292-.278-3.431-.006-.056-.091-.056-.085.001.193 1.82.282 3.646.275 5.477-.453.512-.908 1.022-1.365 1.527-1.765 1.946-3.552 3.87-5.344 5.79-.011-.36.058-.831.062-.92.046-.904.073-1.81.091-2.716.036-1.81-.009-3.629-.145-5.434-.005-.06-.093-.06-.09.001.142 3.114.119 6.197-.135 9.3-.889.953-1.779 1.904-2.668 2.857-1.418 1.519-2.825 3.05-4.232 4.58.322-3.266.474-6.672.088-9.903-.008-.066-.106-.066-.1.001.328 3.487-.203 6.888-.404 10.352-1.175 1.277-2.352 2.553-3.538 3.82-.278.297-.561.591-.843.884-.069-.474.062-1.126.074-1.542.026-.877.08-1.756.065-2.633 0-.057-.077-.053-.082.001-.137 1.439-.171 2.899-.222 4.348-1.056 1.09-2.138 2.153-3.229 3.204-1.434 1.381-3.018 2.631-4.378 4.091-.168.18.056.491.263.352 1.544-1.042 2.906-2.432 4.272-3.711 1.133-1.061 2.235-2.156 3.335-3.253 1.807-.134 3.72-.248 5.472-.731.076-.021.06-.149-.02-.144-1.628.109-3.252.45-4.88.606-.109.01-.201.001-.279-.022.221-.221.443-.441.664-.662 1.234-1.226 2.445-2.481 3.639-3.754z" fill="#cce5b5"/><path d="m106.644 227.115c-.917-2.201 2.388-2.761 4.652-2.862-.271-.222-.543-.444-.811-.683-.967-.864-1.959-1.798-2.915-2.798-.028.016-.052.034-.086.045-1.303.417-5.748.818-5.735-1.53.01-1.794 2.261-1.294 3.936-.653-.891-1.106-1.701-2.277-2.366-3.512-1.24.128-4.526-.163-4.261-1.962.22-1.493 2.102-.697 3.379.055-.508-1.312-.833-2.686-.909-4.118-1.243-.296-4.215-1.622-3.444-3.231.721-1.506 2.575.364 3.518 1.515.029-.044.067-.077.111-.101.436-1.412 1.339-3.79 2.492-2.805.573.489.133 1.553-.107 2.103-.406.934-1.05 1.678-1.861 2.233.041 1.264.292 2.508.708 3.719.071-1.438.376-3.137 1.531-2.664.688.281.581 1.435.514 2.036-.114 1.03-.52 1.951-1.14 2.746.711 1.395 1.613 2.73 2.633 3.98-.246-1.83-.433-4.813 1.311-4.396.889.212.958 1.642.981 2.388.039 1.283-.293 2.489-.914 3.579 1.184 1.26 2.459 2.41 3.726 3.421-1.149-1.974-2.593-5.04-.489-5.473 1.116-.23 1.884 1.364 2.27 2.202.694 1.507.889 3.134.662 4.781.059.102.088.219.077.336l.102.069c1.178.782 2.429 1.381 3.699 1.934-1.391-1.795-3.241-4.658-1.2-5.384 1.077-.383 2.041 1.089 2.529 1.866.874 1.391 1.274 2.968 1.262 4.624.961.415 1.914.851 2.835 1.371.767.433 1.502.91 2.208 1.424-1.272-2.62-2.78-6.592-.093-6.928 1.437-.18 2.267 1.918 2.681 3.02.743 1.981.844 4.064.407 6.131.064.134.091.284.068.43.817.831 1.588 1.717 2.307 2.66.289.379-.268.857-.558.477-.699-.916-1.439-1.766-2.22-2.553-1.986 1.414-8.01 4.159-9.144.769-.988-2.954 3.49-3.282 6.369-3.16-1.518-1.125-3.164-2.07-4.944-2.847-1.222 1.385-5.559 4.683-6.981 2.225-1.175-2.032 1.946-3.046 4.173-3.47-1.355-.634-2.65-1.32-3.901-2.121-1.541 1.248-5.995 3.664-7.059 1.113z" fill="#00b68e"/><path d="m224.229 254.133c.917-2.201-2.388-2.761-4.652-2.862.271-.222.543-.444.811-.683.967-.864 1.959-1.798 2.915-2.798.028.016.052.034.086.045 1.303.417 5.748.818 5.735-1.531-.01-1.794-2.261-1.294-3.936-.653.891-1.106 1.701-2.277 2.366-3.511 1.24.128 4.526-.163 4.261-1.962-.22-1.494-2.102-.697-3.379.055.508-1.312.833-2.686.909-4.118 1.243-.296 4.215-1.622 3.444-3.231-.721-1.506-2.575.364-3.518 1.515-.029-.044-.067-.077-.111-.101-.436-1.412-1.339-3.79-2.492-2.805-.573.489-.133 1.553.107 2.103.406.934 1.05 1.678 1.861 2.233-.041 1.264-.292 2.508-.708 3.719-.071-1.438-.376-3.137-1.531-2.664-.688.281-.581 1.435-.514 2.036.114 1.03.52 1.951 1.14 2.746-.711 1.395-1.613 2.73-2.633 3.98.246-1.83.433-4.813-1.311-4.396-.889.212-.958 1.642-.981 2.388-.039 1.282.293 2.489.914 3.579-1.184 1.26-2.459 2.41-3.726 3.421 1.149-1.974 2.593-5.041.489-5.473-1.116-.23-1.884 1.364-2.27 2.202-.694 1.507-.889 3.134-.662 4.781-.059.102-.088.219-.077.336-.034.023-.068.046-.102.069-1.178.782-2.429 1.381-3.699 1.934 1.391-1.795 3.241-4.658 1.2-5.384-1.077-.383-2.041 1.089-2.529 1.866-.874 1.391-1.274 2.968-1.262 4.624-.961.415-1.914.851-2.835 1.371-.767.433-1.502.91-2.208 1.424 1.272-2.62 2.78-6.592.093-6.928-1.437-.18-2.267 1.918-2.681 3.02-.743 1.981-.844 4.064-.407 6.131-.064.134-.091.284-.068.43-.817.831-1.588 1.717-2.307 2.66-.289.379.268.857.558.477.699-.916 1.439-1.766 2.22-2.552 1.986 1.414 8.01 4.159 9.144.769.988-2.954-3.49-3.282-6.369-3.159 1.518-1.125 3.164-2.07 4.944-2.847 1.222 1.385 5.559 4.683 6.981 2.225 1.175-2.032-1.946-3.046-4.173-3.47 1.355-.634 2.65-1.32 3.901-2.121 1.541 1.248 5.995 3.663 7.059 1.113z" fill="#00b68e"/><path d="m227.465 267.957c.194-1.042-1.625-5.11-4.65-5.11-6.377 0-4.033 2.819-9.075 3.172-5.041.352-6.386-11.983-13.108-12.688s-8.066 8.106-11.763 9.868-7.425-6.053-10.938-3.203c-3.514 2.85-2.506 6.375-6.539 5.67s-7.058-1.762-9.411-.352c-1.27.761-2.039 1.821-2.488 2.643z" fill="url(#e)"/><text fill="#00a95e" font-family="Asap-Medium, Asap" font-size="22" font-weight="500" transform="translate(100.262 292.485)"><tspan x="0" y="0">Bank Sampah</tspan></text><text fill="#8e94a6" font-family="Asap-Regular, Asap" font-size="7" transform="translate(94.927 306.949)"><tspan x="0" y="0">Se</tspan><tspan letter-spacing="-.01em" x="7.273" y="0">t</tspan><tspan x="9.597" y="0">orkan sampahmu di Bank Sampah</tspan><tspan letter-spacing="-.01em" x="116.515" y="0">t</tspan><tspan x="118.838" y="0">e</tspan><tspan letter-spacing="-.02em" x="122.611" y="0">r</tspan><tspan x="125.034" y="0">dekat</tspan><tspan x="40.008" y="8.4">mulai dari seka</tspan><tspan letter-spacing="-.02em" x="87.265" y="8.4">r</tspan><tspan x="89.687" y="8.4">ang.</tspan><tspan x="23.401" y="16.801">Jika bukan kita, lalu siapa lagi?</tspan></text><g fill="#fff"><path d="m80.98 67.517c-.396 0-.594-.198-.594-.594v-11.592c0-.144.065-.255.198-.333.132-.078.342-.117.63-.117h.288c.312 0 .53.04.656.117.126.078.189.189.189.333v10.53h4.626c.264 0 .396.216.396.648v.36c0 .432-.132.648-.396.648h-5.994z"/><path d="m91.312 67.643c-.9 0-1.617-.231-2.151-.693s-.801-1.125-.801-1.989c0-.552.09-1.032.271-1.44.18-.408.482-.75.908-1.026s1.011-.483 1.755-.621 1.675-.207 2.79-.207v-.774c0-.264-.057-.498-.171-.702s-.303-.369-.566-.495c-.265-.126-.618-.189-1.062-.189-.504 0-.954.057-1.35.171s-.72.228-.972.342c-.253.114-.421.171-.505.171-.071 0-.138-.039-.197-.117-.061-.078-.117-.177-.171-.297-.055-.12-.1-.24-.136-.36s-.054-.222-.054-.306c0-.12.102-.243.306-.369s.478-.246.819-.36c.342-.114.72-.21 1.134-.288s.825-.117 1.233-.117c.588 0 1.104.069 1.548.207.443.138.812.333 1.107.585.294.252.516.555.666.909.149.354.225.747.225 1.179v3.834c0 .528.018.951.054 1.269s.069.561.1.729c.029.168.045.3.045.396 0 .072-.049.135-.145.189s-.216.099-.359.135c-.145.036-.291.063-.441.081s-.279.027-.387.027c-.133 0-.231-.048-.297-.144s-.12-.237-.162-.423c-.043-.186-.094-.411-.153-.675-.168.205-.384.411-.648.621s-.582.387-.953.531c-.372.144-.799.216-1.278.216zm.306-1.548c.372 0 .708-.057 1.008-.171s.57-.261.811-.441c.24-.18.456-.378.647-.594v-1.8c-.756 0-1.38.03-1.871.09-.492.06-.88.159-1.161.297-.282.138-.483.318-.604.54s-.18.489-.18.801c0 .408.113.723.342.945.228.222.563.333 1.008.333z"/><path d="m99.592 67.554c-.301 0-.511-.039-.63-.117-.12-.078-.181-.189-.181-.333v-6.174c0-.504-.015-.912-.045-1.224s-.06-.558-.09-.738-.045-.318-.045-.414c0-.072.051-.138.153-.198s.225-.108.368-.144c.145-.036.291-.06.441-.072s.272-.018.369-.018c.12 0 .213.036.279.108.065.072.122.195.171.369.048.174.102.423.162.747.216-.276.471-.513.765-.711s.608-.357.945-.477c.335-.12.678-.18 1.025-.18.612 0 1.131.114 1.558.342.426.229.749.558.972.99.222.432.333.96.333 1.584v6.21c0 .144-.061.255-.18.333-.12.078-.331.117-.631.117h-.252c-.3 0-.51-.039-.63-.117s-.18-.189-.18-.333v-5.994c0-.504-.132-.888-.396-1.152s-.665-.396-1.205-.396c-.265 0-.522.048-.774.144s-.486.234-.702.414-.396.39-.54.63v6.354c0 .144-.06.255-.18.333s-.33.117-.63.117h-.252z"/><path d="m111.957 71.333c-.78 0-1.458-.081-2.033-.243-.576-.162-1.021-.42-1.332-.774-.312-.354-.469-.813-.469-1.377 0-.336.066-.648.198-.936s.318-.542.558-.765c.24-.222.517-.393.828-.513l.019-.054c-.216-.156-.391-.354-.522-.594-.132-.24-.198-.522-.198-.846 0-.372.087-.696.262-.972.174-.276.423-.516.747-.72-.492-.252-.87-.597-1.135-1.035-.264-.438-.396-.938-.396-1.503 0-.624.146-1.158.441-1.602.294-.444.713-.792 1.26-1.044.546-.252 1.197-.378 1.953-.378.203 0 .401.012.594.036.191.024.378.054.558.09h3.168c.145 0 .249.051.315.153.065.103.099.268.099.495v.234c0 .42-.132.63-.396.63-.072 0-.187-.006-.342-.018-.156-.012-.315-.027-.478-.045s-.297-.039-.405-.063l-.018.036c.132.144.236.294.315.45.077.156.132.318.161.486.03.168.045.348.045.54 0 .6-.144 1.122-.432 1.566s-.696.79-1.224 1.035c-.528.246-1.17.369-1.926.369-.349 0-.637.033-.864.099-.229.066-.394.168-.495.306-.103.138-.153.321-.153.549 0 .24.078.426.234.558.155.132.369.234.639.306.271.072.573.126.909.162s.678.078 1.026.126c.516.072.992.192 1.431.36.438.168.786.414 1.044.738s.387.774.387 1.35-.168 1.074-.504 1.494-.831.744-1.484.972c-.654.228-1.449.342-2.386.342zm.198-1.494c.816 0 1.422-.102 1.818-.306s.594-.516.594-.936c0-.228-.075-.414-.225-.558s-.354-.255-.612-.333-.546-.135-.864-.171-.647-.075-.99-.117c-.342-.042-.669-.099-.98-.171-.288.132-.531.309-.729.531-.197.222-.297.5-.297.837 0 .276.075.507.226.693.149.186.393.321.729.405s.78.126 1.332.126zm-.036-7.308c.348 0 .663-.048.945-.144.281-.096.51-.258.684-.486s.262-.534.262-.918-.088-.69-.262-.918-.402-.39-.684-.486-.598-.144-.945-.144-.663.048-.944.144c-.282.096-.508.258-.676.486s-.252.534-.252.918c0 .576.184.979.549 1.206.366.228.808.342 1.323.342z"/><path d="m119.446 67.554c-.301 0-.511-.039-.63-.117-.12-.078-.181-.189-.181-.333v-12.672c0-.156.061-.273.181-.351.119-.078.329-.117.63-.117h.252c.3 0 .51.039.63.117s.18.195.18.351v7.704h.09l3.042-3.762c.061-.096.129-.162.207-.198s.171-.063.279-.081.258-.027.45-.027h.342c.228 0 .405.018.531.054s.188.108.188.216c0 .048-.018.108-.054.18s-.09.15-.162.234l-3.456 4.194v-.828l3.834 4.824c.061.084.105.153.135.207s.045.099.045.135c0 .108-.068.18-.206.216-.139.036-.352.054-.64.054h-.288c-.312 0-.543-.03-.692-.09-.15-.06-.297-.18-.441-.36l-3.114-3.978h-.09v3.978c0 .144-.06.255-.18.333s-.33.117-.63.117z"/><path d="m130.353 67.643c-.899 0-1.617-.231-2.15-.693-.534-.462-.801-1.125-.801-1.989 0-.552.09-1.032.27-1.44s.483-.75.909-1.026 1.011-.483 1.755-.621 1.674-.207 2.79-.207v-.774c0-.264-.058-.498-.171-.702-.114-.204-.304-.369-.567-.495s-.618-.189-1.062-.189c-.504 0-.954.057-1.351.171-.396.114-.72.228-.972.342s-.42.171-.504.171c-.072 0-.139-.039-.198-.117s-.117-.177-.171-.297-.099-.24-.135-.36-.054-.222-.054-.306c0-.12.102-.243.306-.369s.477-.246.819-.36.72-.21 1.134-.288.824-.117 1.232-.117c.588 0 1.104.069 1.548.207s.813.333 1.107.585.516.555.666.909.225.747.225 1.179v3.834c0 .528.019.951.055 1.269s.068.561.099.729c.03.168.045.3.045.396 0 .072-.048.135-.144.189-.097.054-.216.099-.36.135s-.291.063-.441.081c-.149.018-.278.027-.387.027-.132 0-.231-.048-.297-.144s-.12-.237-.162-.423-.093-.411-.152-.675c-.169.205-.385.411-.648.621s-.582.387-.954.531-.798.216-1.278.216zm.307-1.548c.371 0 .708-.057 1.008-.171s.569-.261.81-.441c.24-.18.456-.378.648-.594v-1.8c-.756 0-1.38.03-1.872.09s-.879.159-1.161.297-.483.318-.603.54-.181.489-.181.801c0 .408.114.723.343.945.228.222.563.333 1.008.333z"/><path d="m138.633 67.554c-.3 0-.51-.039-.63-.117s-.18-.189-.18-.333v-12.672c0-.156.06-.273.18-.351s.33-.117.63-.117h.234c.3 0 .513.039.639.117s.189.195.189.351v4.806c.191-.24.426-.453.702-.639.275-.186.578-.336.908-.45s.669-.171 1.018-.171c.611 0 1.131.114 1.557.342.426.229.75.558.972.99.223.432.333.96.333 1.584v6.21c0 .144-.06.255-.18.333s-.33.117-.63.117h-.252c-.3 0-.51-.039-.63-.117s-.18-.189-.18-.333v-5.994c0-.504-.133-.888-.396-1.152-.264-.264-.666-.396-1.206-.396-.264 0-.521.048-.774.144-.252.096-.485.234-.701.414-.217.18-.396.39-.54.63v6.354c0 .144-.061.255-.181.333s-.33.117-.63.117z"/><path d="m153.123 71.243c-.301 0-.511-.039-.63-.117-.12-.078-.181-.189-.181-.333v-9.864c0-.504-.015-.912-.045-1.224s-.06-.558-.09-.738-.045-.318-.045-.414c0-.072.051-.138.153-.198s.225-.108.368-.144c.145-.036.291-.06.441-.072s.272-.018.369-.018c.12 0 .21.033.27.099.061.066.114.18.162.342s.103.381.162.657c.24-.264.504-.489.792-.675s.594-.327.918-.423.654-.144.99-.144c.731 0 1.355.186 1.872.558.516.372.915.912 1.197 1.62.281.708.423 1.578.423 2.61 0 .96-.142 1.803-.423 2.529-.282.727-.693 1.299-1.233 1.719s-1.182.63-1.926.63c-.324 0-.637-.042-.937-.126s-.582-.198-.846-.342-.498-.306-.702-.486v4.104c0 .144-.06.255-.18.333s-.33.117-.63.117h-.252zm3.168-5.148c.659 0 1.163-.288 1.512-.864.348-.576.522-1.397.522-2.466 0-1.092-.189-1.899-.567-2.421s-.897-.783-1.557-.783c-.372 0-.732.096-1.08.288-.349.192-.66.456-.937.792v4.464c.312.324.648.57 1.008.738s.727.252 1.099.252z"/><path d="m166.497 67.643c-1.452 0-2.551-.384-3.294-1.152-.744-.768-1.116-1.98-1.116-3.636 0-1.08.171-1.98.513-2.7s.831-1.263 1.467-1.629 1.398-.549 2.286-.549c.853 0 1.554.189 2.106.567s.96.916 1.224 1.611.396 1.518.396 2.466c0 .12-.036.249-.108.387s-.165.255-.279.351-.23.144-.351.144h-5.328c.023.912.249 1.575.675 1.989s1.047.621 1.863.621c.527 0 .98-.066 1.359-.198.378-.132.684-.258.918-.378.233-.12.387-.18.459-.18.096 0 .186.061.27.18.084.12.153.261.207.423s.081.291.081.387c0 .132-.097.27-.288.414-.192.144-.447.285-.765.423s-.675.249-1.071.333-.804.126-1.224.126zm-2.502-5.58h4.248c0-.852-.175-1.491-.522-1.917-.349-.426-.853-.639-1.512-.639-.444 0-.828.096-1.152.288s-.579.474-.765.846c-.187.372-.285.846-.297 1.422z"/><path d="m173.21 67.554c-.288 0-.498-.039-.63-.117s-.197-.189-.197-.333v-6.174c0-.504-.016-.912-.046-1.224-.029-.312-.06-.558-.09-.738s-.045-.318-.045-.414c0-.072.051-.138.153-.198s.225-.108.369-.144.291-.06.44-.072c.15-.012.273-.018.369-.018.12 0 .216.039.288.117s.135.21.189.396.104.441.152.765c.168-.312.372-.573.612-.783s.504-.369.792-.477.588-.162.9-.162c.239 0 .414.054.521.162.108.108.162.27.162.486 0 .12-.012.255-.036.405s-.054.294-.09.432-.081.252-.135.342c-.055.09-.123.135-.207.135-.097 0-.204-.027-.324-.081s-.306-.081-.558-.081c-.36 0-.682.096-.963.288-.282.192-.478.457-.586.792v6.246c0 .144-.065.255-.197.333-.133.078-.349.117-.648.117h-.198z"/><path d="m181.364 67.643c-.504 0-.927-.096-1.27-.288-.342-.192-.597-.471-.765-.837s-.252-.819-.252-1.359v-5.526h-.81c-.276 0-.414-.216-.414-.648v-.234c0-.432.138-.648.414-.648h.81l.234-1.836c.023-.156.09-.27.197-.342.108-.072.264-.108.469-.108h.27c.252 0 .432.036.54.108s.162.186.162.342v1.836h1.404c.275 0 .414.216.414.648v.234c0 .432-.139.648-.414.648h-1.404v5.49c0 .348.057.594.171.738s.315.216.603.216c.265 0 .453-.03.567-.09s.213-.09.297-.09c.072 0 .129.045.171.135s.078.198.108.324c.029.126.048.246.054.36s.009.195.009.243c0 .132-.087.25-.261.351-.174.102-.381.183-.621.243s-.468.09-.684.09z"/><path d="m187.233 67.643c-.9 0-1.617-.231-2.151-.693s-.801-1.125-.801-1.989c0-.552.09-1.032.271-1.44.18-.408.482-.75.908-1.026s1.011-.483 1.755-.621 1.675-.207 2.79-.207v-.774c0-.264-.057-.498-.171-.702s-.303-.369-.566-.495c-.265-.126-.618-.189-1.062-.189-.504 0-.954.057-1.35.171s-.72.228-.972.342c-.253.114-.421.171-.505.171-.071 0-.138-.039-.197-.117-.061-.078-.117-.177-.171-.297-.055-.12-.1-.24-.136-.36s-.054-.222-.054-.306c0-.12.102-.243.306-.369s.478-.246.819-.36c.342-.114.72-.21 1.134-.288s.825-.117 1.233-.117c.588 0 1.104.069 1.548.207.443.138.812.333 1.107.585.294.252.516.555.666.909.149.354.225.747.225 1.179v3.834c0 .528.018.951.054 1.269s.069.561.1.729c.029.168.045.3.045.396 0 .072-.049.135-.145.189s-.216.099-.359.135c-.145.036-.291.063-.441.081s-.279.027-.387.027c-.133 0-.231-.048-.297-.144s-.12-.237-.162-.423c-.043-.186-.094-.411-.153-.675-.168.205-.384.411-.648.621s-.582.387-.953.531c-.372.144-.799.216-1.278.216zm.306-1.548c.372 0 .708-.057 1.008-.171s.57-.261.811-.441c.24-.18.456-.378.647-.594v-1.8c-.756 0-1.38.03-1.871.09-.492.06-.88.159-1.161.297-.282.138-.483.318-.604.54s-.18.489-.18.801c0 .408.113.723.342.945.228.222.563.333 1.008.333z"/><path d="m195.513 67.554c-.301 0-.511-.039-.63-.117-.12-.078-.181-.189-.181-.333v-6.174c0-.504-.015-.912-.045-1.224s-.06-.558-.09-.738-.045-.318-.045-.414c0-.072.051-.138.153-.198s.225-.108.368-.144c.145-.036.291-.06.441-.072s.272-.018.369-.018c.12 0 .213.036.279.108.065.072.122.195.171.369.048.174.102.423.162.747.216-.276.465-.513.747-.711.281-.198.587-.357.918-.477.329-.12.668-.18 1.017-.18.42 0 .795.057 1.125.171s.618.282.864.504c.245.223.435.501.566.837.216-.3.471-.561.766-.783.294-.222.614-.399.963-.531.348-.132.702-.198 1.062-.198.601 0 1.11.114 1.53.342.42.229.738.558.954.99s.324.96.324 1.584v6.21c0 .144-.061.255-.181.333s-.33.117-.63.117h-.252c-.3 0-.51-.039-.63-.117s-.18-.189-.18-.333v-5.994c0-.504-.126-.888-.378-1.152s-.643-.396-1.17-.396c-.181 0-.366.027-.559.081s-.375.141-.549.261-.345.261-.513.423c-.169.162-.324.357-.469.585v-.846c.072.132.117.27.136.414.018.144.026.288.026.432v6.192c0 .144-.062.255-.188.333s-.34.117-.64.117h-.233c-.3 0-.513-.039-.639-.117-.127-.078-.189-.189-.189-.333v-5.994c0-.504-.126-.888-.378-1.152s-.637-.396-1.152-.396c-.252 0-.501.048-.747.144s-.474.234-.684.414-.387.384-.531.612v6.372c0 .144-.06.255-.18.333s-.33.117-.63.117h-.252z"/><path d="m212.306 67.643c-.899 0-1.617-.231-2.15-.693-.534-.462-.801-1.125-.801-1.989 0-.552.09-1.032.27-1.44s.483-.75.909-1.026 1.011-.483 1.755-.621 1.674-.207 2.79-.207v-.774c0-.264-.058-.498-.171-.702-.114-.204-.304-.369-.567-.495s-.618-.189-1.062-.189c-.504 0-.954.057-1.351.171-.396.114-.72.228-.972.342s-.42.171-.504.171c-.072 0-.139-.039-.198-.117s-.117-.177-.171-.297-.099-.24-.135-.36-.054-.222-.054-.306c0-.12.102-.243.306-.369s.477-.246.819-.36.72-.21 1.134-.288.824-.117 1.232-.117c.588 0 1.104.069 1.548.207s.813.333 1.107.585.516.555.666.909.225.747.225 1.179v3.834c0 .528.019.951.055 1.269s.068.561.099.729c.03.168.045.3.045.396 0 .072-.048.135-.144.189-.097.054-.216.099-.36.135s-.291.063-.441.081c-.149.018-.278.027-.387.027-.132 0-.231-.048-.297-.144s-.12-.237-.162-.423-.093-.411-.152-.675c-.169.205-.385.411-.648.621s-.582.387-.954.531-.798.216-1.278.216zm.307-1.548c.371 0 .708-.057 1.008-.171s.569-.261.81-.441c.24-.18.456-.378.648-.594v-1.8c-.756 0-1.38.03-1.872.09s-.879.159-1.161.297-.483.318-.603.54-.181.489-.181.801c0 .408.114.723.343.945.228.222.563.333 1.008.333z"/><path d="m83.121 85.643c-.695 0-1.299-.186-1.809-.558s-.903-.915-1.179-1.629-.414-1.581-.414-2.601c0-.96.141-1.803.423-2.529s.684-1.299 1.206-1.719c.521-.42 1.143-.63 1.863-.63.479 0 .933.075 1.358.225s.783.333 1.071.549v-4.32c0-.156.065-.273.198-.351.132-.078.348-.117.647-.117h.198c.288 0 .498.039.63.117s.198.195.198.351v10.26c0 .504.015.912.045 1.224.029.312.06.558.09.738s.045.318.045.414c0 .084-.051.156-.153.216s-.225.105-.368.135c-.145.03-.291.054-.441.072s-.273.027-.369.027c-.12 0-.213-.036-.279-.108-.065-.072-.123-.201-.171-.387s-.102-.435-.161-.747c-.205.276-.45.516-.738.72s-.592.363-.909.477c-.318.114-.646.171-.981.171zm.559-1.584c.372 0 .731-.111 1.08-.333.348-.222.642-.507.882-.855v-4.536c-.3-.264-.627-.465-.981-.603s-.705-.207-1.053-.207c-.636 0-1.122.288-1.458.864s-.504 1.398-.504 2.466c0 1.092.18 1.899.54 2.421s.857.783 1.494.783z"/><path d="m92.77 85.643c-.9 0-1.617-.231-2.151-.693s-.801-1.125-.801-1.989c0-.552.09-1.032.271-1.44.18-.408.482-.75.908-1.026s1.011-.483 1.755-.621 1.675-.207 2.79-.207v-.774c0-.264-.057-.498-.171-.702s-.303-.369-.566-.495c-.265-.126-.618-.189-1.062-.189-.504 0-.954.057-1.35.171s-.72.228-.972.342c-.253.114-.421.171-.505.171-.071 0-.138-.039-.197-.117-.061-.078-.117-.177-.171-.297-.055-.12-.1-.24-.136-.36s-.054-.222-.054-.306c0-.12.102-.243.306-.369s.478-.246.819-.36c.342-.114.72-.21 1.134-.288s.825-.117 1.233-.117c.588 0 1.104.069 1.548.207.443.138.812.333 1.107.585.294.252.516.555.666.909.149.354.225.747.225 1.179v3.834c0 .528.018.951.054 1.269s.069.561.1.729c.029.168.045.3.045.396 0 .072-.049.135-.145.189s-.216.099-.359.135c-.145.036-.291.063-.441.081s-.279.027-.387.027c-.133 0-.231-.048-.297-.144s-.12-.237-.162-.423c-.043-.186-.094-.411-.153-.675-.168.205-.384.411-.648.621s-.582.387-.953.531c-.372.144-.799.216-1.278.216zm.306-1.548c.372 0 .708-.057 1.008-.171s.57-.261.811-.441c.24-.18.456-.378.647-.594v-1.8c-.756 0-1.38.03-1.871.09-.492.06-.88.159-1.161.297-.282.138-.483.318-.604.54s-.18.489-.18.801c0 .408.113.723.342.945.228.222.563.333 1.008.333z"/><path d="m101.121 85.554c-.288 0-.498-.039-.63-.117-.133-.078-.198-.189-.198-.333v-6.174c0-.504-.016-.912-.045-1.224-.03-.312-.061-.558-.09-.738-.03-.18-.045-.318-.045-.414 0-.072.051-.138.152-.198.103-.06.226-.108.369-.144.145-.036.291-.06.441-.072.149-.012.272-.018.369-.018.119 0 .216.039.288.117.071.078.135.21.188.396s.105.441.153.765c.168-.312.372-.573.611-.783.24-.21.505-.369.793-.477.287-.108.587-.162.899-.162.24 0 .414.054.522.162.107.108.162.27.162.486 0 .12-.013.255-.036.405-.024.15-.055.294-.091.432-.035.138-.08.252-.135.342-.054.09-.123.135-.207.135-.096 0-.204-.027-.323-.081-.12-.054-.307-.081-.559-.081-.36 0-.681.096-.963.288s-.477.457-.585.792v6.246c0 .144-.066.255-.198.333s-.348.117-.647.117h-.198z"/><path d="m107.764 74.915c-.349 0-.595-.039-.738-.117-.144-.078-.216-.189-.216-.333v-1.17c0-.144.072-.255.216-.333s.39-.117.738-.117c.336 0 .576.039.72.117s.216.189.216.333v1.17c0 .144-.072.255-.216.333-.144.079-.384.117-.72.117zm-.126 10.638c-.301 0-.511-.039-.63-.117-.12-.078-.181-.189-.181-.333v-8.586c0-.144.061-.255.181-.333.119-.078.329-.117.63-.117h.252c.3 0 .51.039.63.117s.18.189.18.333v8.586c0 .144-.06.255-.18.333s-.33.117-.63.117z"/><path d="m116.728 85.554c-.301 0-.511-.039-.63-.117-.12-.078-.181-.189-.181-.333v-12.672c0-.156.061-.273.181-.351.119-.078.329-.117.63-.117h.252c.3 0 .51.039.63.117s.18.195.18.351v7.704h.09l3.042-3.762c.061-.096.129-.162.207-.198s.171-.063.279-.081.258-.027.45-.027h.342c.228 0 .405.018.531.054s.188.108.188.216c0 .048-.018.108-.054.18s-.09.15-.162.234l-3.456 4.194v-.828l3.834 4.824c.061.084.105.153.135.207s.045.099.045.135c0 .108-.068.18-.206.216-.139.036-.352.054-.64.054h-.288c-.312 0-.543-.03-.692-.09-.15-.06-.297-.18-.441-.36l-3.114-3.978h-.09v3.978c0 .144-.06.255-.18.333s-.33.117-.63.117z"/><path d="m126.232 74.915c-.349 0-.595-.039-.738-.117-.144-.078-.216-.189-.216-.333v-1.17c0-.144.072-.255.216-.333s.39-.117.738-.117c.336 0 .576.039.72.117s.216.189.216.333v1.17c0 .144-.072.255-.216.333-.144.079-.384.117-.72.117zm-.126 10.638c-.301 0-.511-.039-.63-.117-.12-.078-.181-.189-.181-.333v-8.586c0-.144.061-.255.181-.333.119-.078.329-.117.63-.117h.252c.3 0 .51.039.63.117s.18.189.18.333v8.586c0 .144-.06.255-.18.333s-.33.117-.63.117z"/><path d="m132.694 85.643c-.504 0-.927-.096-1.27-.288-.342-.192-.597-.471-.765-.837s-.252-.819-.252-1.359v-5.526h-.81c-.276 0-.414-.216-.414-.648v-.234c0-.432.138-.648.414-.648h.81l.234-1.836c.023-.156.09-.27.197-.342.108-.072.264-.108.469-.108h.27c.252 0 .432.036.54.108s.162.186.162.342v1.836h1.404c.275 0 .414.216.414.648v.234c0 .432-.139.648-.414.648h-1.404v5.49c0 .348.057.594.171.738s.315.216.603.216c.265 0 .453-.03.567-.09s.213-.09.297-.09c.072 0 .129.045.171.135s.078.198.108.324c.029.126.048.246.054.36s.009.195.009.243c0 .132-.087.25-.261.351-.174.102-.381.183-.621.243s-.468.09-.684.09z"/><path d="m138.561 85.643c-.899 0-1.617-.231-2.15-.693-.534-.462-.801-1.125-.801-1.989 0-.552.09-1.032.27-1.44s.483-.75.909-1.026 1.011-.483 1.755-.621 1.674-.207 2.79-.207v-.774c0-.264-.058-.498-.171-.702-.114-.204-.304-.369-.567-.495s-.618-.189-1.062-.189c-.504 0-.954.057-1.351.171-.396.114-.72.228-.972.342s-.42.171-.504.171c-.072 0-.139-.039-.198-.117s-.117-.177-.171-.297-.099-.24-.135-.36-.054-.222-.054-.306c0-.12.102-.243.306-.369s.477-.246.819-.36.72-.21 1.134-.288.824-.117 1.232-.117c.588 0 1.104.069 1.548.207s.813.333 1.107.585.516.555.666.909.225.747.225 1.179v3.834c0 .528.019.951.055 1.269s.068.561.099.729c.03.168.045.3.045.396 0 .072-.048.135-.144.189-.097.054-.216.099-.36.135s-.291.063-.441.081c-.149.018-.278.027-.387.027-.132 0-.231-.048-.297-.144s-.12-.237-.162-.423-.093-.411-.152-.675c-.169.205-.385.411-.648.621s-.582.387-.954.531-.798.216-1.278.216zm.307-1.548c.371 0 .708-.057 1.008-.171s.569-.261.81-.441c.24-.18.456-.378.648-.594v-1.8c-.756 0-1.38.03-1.872.09s-.879.159-1.161.297-.483.318-.603.54-.181.489-.181.801c0 .408.114.723.343.945.228.222.563.333 1.008.333z"/><path d="m147.039 85.554c-.288 0-.501-.039-.639-.117-.139-.078-.207-.189-.207-.333v-1.314c0-.156.068-.27.207-.342.138-.072.351-.108.639-.108h.36c.3 0 .516.036.647.108.132.072.198.186.198.342v1.314c0 .144-.066.255-.198.333s-.348.117-.647.117zm.072-3.78c-.24 0-.408-.039-.504-.117-.097-.078-.145-.189-.145-.333v-7.974c0-.156.066-.273.198-.351s.342-.117.63-.117h.486c.275 0 .482.04.621.117.138.078.194.201.171.369l-.595 7.956c-.012.144-.062.255-.152.333s-.262.117-.514.117h-.197z"/></g></svg>