<svg viewBox="0 40 342 395" xmlns="http://www.w3.org/2000/svg" xmlns:xlink="http://www.w3.org/1999/xlink"><filter id="a" filterUnits="userSpaceOnUse"><feOffset dx="8" dy="7"/><feGaussianBlur result="blur" stdDeviation="5"/><feFlood flood-opacity=".42"/><feComposite in2="blur" operator="in"/><feComposite in="SourceGraphic"/></filter><linearGradient id="b" gradientUnits="userSpaceOnUse" x1="225.401" x2="259.401" y1="393.856" y2="476.348"><stop offset="0" stop-color="#86ddcf"/><stop offset="1" stop-color="#00b68e"/></linearGradient><linearGradient id="c" x1="131.864" x2="227.315" xlink:href="#b" y1="-8.966" y2="222.619"/><linearGradient id="d" gradientUnits="userSpaceOnUse" x1="117.279" x2="181.999" y1="116.923" y2="283.943"><stop offset="0" stop-color="#d8f2ff" stop-opacity="0"/><stop offset=".106" stop-color="#cef0ff" stop-opacity=".194"/><stop offset=".237" stop-color="#c4eeff" stop-opacity=".405"/><stop offset=".369" stop-color="#bcedff" stop-opacity=".587"/><stop offset=".5" stop-color="#b5ecff" stop-opacity=".736"/><stop offset=".629" stop-color="#afebff" stop-opacity=".852"/><stop offset=".756" stop-color="#aceaff" stop-opacity=".934"/><stop offset=".881" stop-color="#a9eaff" stop-opacity=".983"/><stop offset="1" stop-color="#a9eaff"/></linearGradient><linearGradient id="e" gradientUnits="userSpaceOnUse" x1="183.433" x2="205.499" y1="129.399" y2="165.3"><stop offset="0" stop-color="#aaa0ff"/><stop offset="1" stop-color="#6b55ff"/></linearGradient><linearGradient id="f" x1="188.288" x2="205.851" xlink:href="#e" y1="181.651" y2="180.746"/><linearGradient id="g" gradientTransform="matrix(-1 0 0 1 -2560.342 0)" x1="-2749.06" x2="-2767.971" xlink:href="#e" y1="162.332" y2="204.495"/><linearGradient id="h" gradientUnits="userSpaceOnUse" x1="184.101" x2="191.847" y1="152.156" y2="162.661"><stop offset="0" stop-color="#fee18e"/><stop offset="1" stop-color="#fb8e31"/></linearGradient><linearGradient id="i" gradientTransform="matrix(-1 0 0 1 -2738.368 0)" gradientUnits="userSpaceOnUse" x1="-2933.769" x2="-2921.287" y1="159.067" y2="181.317"><stop offset="0" stop-color="#fee18e"/><stop offset="1" stop-color="#fec800"/></linearGradient><linearGradient id="j" gradientTransform="matrix(-1 0 0 1 -2738.368 0)" gradientUnits="userSpaceOnUse" x1="-2930.719" x2="-2932.158" y1="153.119" y2="150.042"><stop offset="0" stop-color="#fcc198"/><stop offset=".214" stop-color="#fbbd96"/><stop offset=".424" stop-color="#f8b192"/><stop offset=".632" stop-color="#f39d8a"/><stop offset=".839" stop-color="#ec8280"/><stop offset="1" stop-color="#e66776"/></linearGradient><linearGradient id="k" x1="-2932.22" x2="-2928.232" xlink:href="#j" y1="146.813" y2="153.922"/><linearGradient id="l" x1="193.034" x2="220.546" xlink:href="#e" y1="151.387" y2="149.969"/><linearGradient id="m" x1="175.908" x2="179.437" xlink:href="#j" y1="146.437" y2="152.179"/><linearGradient id="n" x1="176.853" x2="180.382" xlink:href="#j" y1="142.134" y2="147.875"/><linearGradient id="o" x1="188.819" x2="191.926" xlink:href="#h" y1="148.906" y2="169.75"/><linearGradient id="p" x1="107.051" x2="200.028" xlink:href="#b" y1="181.959" y2="234.307"/><linearGradient id="q" gradientUnits="userSpaceOnUse" x1="166.094" x2="181.052" y1="159.441" y2="203.931"><stop offset="0" stop-color="#5cf79f"/><stop offset=".183" stop-color="#5bf298"/><stop offset=".434" stop-color="#58e587"/><stop offset=".723" stop-color="#54d06a"/><stop offset="1" stop-color="#50b848"/></linearGradient><linearGradient id="r" x1="164.834" x2="173.934" xlink:href="#i" y1="154.442" y2="165.466"/><linearGradient id="s" gradientTransform="matrix(-.05543624 -.7168597 .99702322 -.07710186 -1662.42 -837.693)" x1="-1590.318" x2="-1580.717" xlink:href="#e" y1="1747.725" y2="1759.357"/><linearGradient id="t" x1="175.35" x2="178.983" xlink:href="#i" y1="161.823" y2="166.223"/><linearGradient id="u" x1="166.882" x2="172.595" xlink:href="#q" y1="161.255" y2="172.292"/><linearGradient id="v" gradientTransform="matrix(.91914221 -.39392587 .39392587 .91914221 -182.026 -545.712)" x1="41.082" x2="51.625" xlink:href="#e" y1="786.626" y2="806.993"/><linearGradient id="w" gradientTransform="matrix(.60507168 .796171 -.796171 .60507168 -419.586 1195.975)" x1="-458.971" x2="-452.649" xlink:href="#i" y1="-1103.342" y2="-1091.128"/><linearGradient id="x" x1="224.901" x2="194.672" xlink:href="#q" y1="216.104" y2="304.68"/><linearGradient id="y" x1="155.258" x2="125.029" xlink:href="#q" y1="216.104" y2="304.68"/><linearGradient id="z" gradientTransform="matrix(-1 0 0 -1 272.242 440.987)" x1="133.419" x2="137.376" xlink:href="#i" y1="206.28" y2="227.095"/><linearGradient id="A" x1="128.193" x2="119.295" xlink:href="#e" y1="219.337" y2="249.188"/><linearGradient id="B" x1="126.459" x2="107.548" xlink:href="#e" y1="222.965" y2="265.127"/><linearGradient id="C" gradientTransform="translate(-179.333)" x1="295.711" x2="298.367" xlink:href="#j" y1="212.31" y2="209.217"/><linearGradient id="D" x1="120.846" x2="116.912" xlink:href="#j" y1="206.315" y2="209.79"/><linearGradient id="E" x1="112.619" x2="123.599" xlink:href="#b" y1="212.261" y2="235.106"/><linearGradient id="F" x1="123.455" x2="108.452" xlink:href="#j" y1="218.917" y2="231.374"/><linearGradient id="G" x1="234.222" x2="250.082" xlink:href="#i" y1="241.557" y2="280.038"/><linearGradient id="H" x1="238.967" x2="251.197" xlink:href="#e" y1="231.785" y2="263.346"/><linearGradient id="I" x1="248.585" x2="259.806" xlink:href="#q" y1="233.594" y2="262.55"/><linearGradient id="J" gradientTransform="matrix(-1 0 0 1 -2975.416 0)" x1="-3083.121" x2="-3067.224" xlink:href="#i" y1="246.249" y2="284.816"/><linearGradient id="K" gradientTransform="matrix(-1 0 0 1 -2975.416 0)" x1="-3077.601" x2="-3065.376" xlink:href="#e" y1="236.198" y2="267.744"/><linearGradient id="L" gradientTransform="matrix(-1 0 0 1 -2975.416 0)" x1="-3067.661" x2="-3056.453" xlink:href="#q" y1="237.887" y2="266.812"/><path d="m77.973 31.158h186.416c9.271 0 16.799 7.527 16.799 16.799v370.162c0 9.271-7.527 16.799-16.799 16.799h-186.416c-9.271 0-16.798-7.527-16.798-16.798v-370.163c0-9.271 7.527-16.799 16.799-16.799z" fill="#fff" filter="url(#a)" opacity=".22"/><path d="m77.973 31.158h186.416c9.271 0 16.799 7.527 16.799 16.799v370.162c0 9.271-7.527 16.799-16.799 16.799h-186.416c-9.271 0-16.798-7.527-16.798-16.798v-370.163c0-9.271 7.527-16.799 16.799-16.799z" fill="#fff"/><path d="m271.32 400.878c-13.374-11.706-34.186-10.878-46.486 1.851l-32.069 33.188h69.867c10.8 0 19.556-8.333 19.556-18.613v-6.913z" fill="url(#b)"/><path d="m60.175 48.771v33.479l65.191 57.064c13.374 11.706 34.186 10.878 46.486-1.851l77.362-80.062c7.37-7.628 10.006-17.797 8.061-27.242h-177.544c-10.8 0-19.556 8.333-19.556 18.613z" fill="url(#c)"/><text fill="#fff" font-family="Asap-Medium, Asap" font-size="24.376" font-weight="500" transform="matrix(1.051 0 0 1 87.028 73.486)"><tspan x="0" y="0">EcoApps</tspan></text><text fill="#fff" font-family="Asap-Regular, Asap" font-size="7.756" transform="matrix(1.051 0 0 1 88.714 87.731)"><tspan x="0" y="0">Le</tspan><tspan letter-spacing=".01em" x="7.934" y="0">t</tspan><tspan x="10.665" y="0">’s sa</tspan><tspan letter-spacing="-.01em" x="24.804" y="0">v</tspan><tspan x="28.487" y="0">e the ea</tspan><tspan letter-spacing="-.01em" x="56.013" y="0">r</tspan><tspan x="58.774" y="0">th</tspan></text><path d="m257.053 261.643c-2.807-17.741-19.275-19.821-35.754-29.802-17.816-10.791-14.037-37.51-36.821-58.958s-54.416-12.979-66.294 3.464c-11.877 16.443-2.159 44.19-19.435 57.035-17.276 12.846-9.717 28.261-9.717 28.261h168.022z" fill="url(#d)"/><path d="m220.778 260.322 1.042-.271-25.194-88.036-1.042.27 2.412 8.429h-11.838l-2.489-8.699-1.042.27 25.194 88.037 1.042-.271-.684-2.39h11.837l.762 2.662zm-15.883-14.137h11.838l1.373 4.796h-11.838zm-3.32-52.967h-11.838l-1.421-4.967h11.838zm.294 1.028 1.373 4.796h-11.838l-1.372-4.796h11.838zm1.667 5.824 1.495 5.224h-11.838l-1.495-5.224zm1.789 6.251 1.397 4.882h-11.838l-1.397-4.882zm1.691 5.909 1.372 4.795h-11.838l-1.372-4.795zm1.666 5.823 1.372 4.796h-11.838l-1.372-4.796zm1.64 5.824v-.092l1.35 4.716h-11.838l-1.324-4.624h11.811zm1.62 5.652v-.085l1.139 3.982h-11.837l-1.115-3.897zm1.434 4.924 1.397 4.881h-11.828v.032l-1.406-4.914h11.838zm1.691 5.909 1.372 4.795h-11.838l-1.372-4.795h11.837zm-16.801-58.62v-.091l1.594 5.572h-11.838l-1.568-5.481zm9.62 74.891-1.324-4.624h11.838l1.323 4.624z" fill="#404a69"/><path d="m190.953 144.725s-1.215-.321-1.957 1.67.27 1.927.742 3.533-1.282 3.083.472 4.881c1.755 1.798 3.937-.878 4.814.728s1.89 4.303 4.319 4.625c2.43.321 6.928-.921 8.683-3.875 1.754-2.955-11.202-10.148-11.202-10.148l-5.871-1.413z" fill="url(#e)"/><path d="m197.848 196.514s.781 1.577.333 2.845c-.438 1.16-7.34 1.942-7.382 1.071s3.857-2.53 3.857-2.53l.429-1.052s.185-.854 2.763-.334z" fill="#32326b"/><path d="m193.725 169.84s.883 13.161 5.112 25.409c.131.378.008.792-.32 1.039-.658.497-2.033 1.161-4.566.976-.315-.023-.61-.186-.775-.443-1.887-2.936-7.152-20.808-6.873-29.72.454-4.325 7.422 2.739 7.422 2.739z" fill="url(#f)"/><path d="m202.572 196.514s.781 1.577.333 2.845c-.438 1.16-7.341 1.942-7.382 1.071-.042-.871 3.857-2.53 3.857-2.53l.429-1.052s.185-.854 2.763-.334z" fill="#32326b"/><path d="m198.449 169.84s.883 13.161 5.112 25.409c.131.378.008.792-.32 1.039-.658.497-2.033 1.161-4.567.976-.315-.023-.61-.186-.775-.443-1.887-2.936-7.152-20.808-6.873-29.72.454-4.325 7.422 2.739 7.422 2.739z" fill="url(#g)"/><path d="m190.09 152.893s-1.473 2.265-5.099 2.912c-3.677.656-5.308-5.235-5.308-5.235s-.68-.108-1.36.539c-.68.863-.16 5.628 4.599 8.324s8.753-.933 9.66-2.334c.906-1.402.68-5.824-2.493-4.206z" fill="url(#h)"/><path d="m196.729 152.876s1.907 2.117 1.589 4.537-.477 3.629.159 7.108c.636 3.478 1.112 5.142.477 6.351-.636 1.21-8.898 2.117-12.552-.151-1.271-1.512.636-16.332 2.383-17.844 1.748-1.512 4.925-1.815 7.944 0z" fill="url(#i)"/><path d="m194.053 151.115s-.506.096-.236.771c0 0 .236.193.641.257 0 0-.169.963-1.62.899s-1.518-.514-1.687-.931c.101-.193.371-.225 1.046-.418s0-.739 0-.739z" fill="url(#j)"/><path d="m189.767 148c0 1.797 1.531 3.254 3.419 3.254s3.419-1.457 3.419-3.254-1.531-3.254-3.419-3.254-3.419 1.457-3.419 3.254z" fill="url(#k)"/><path d="m191.021 144.403s-.877 1.028.135 2.633c1.012 1.606 2.362.385 3.172 2.119s-.337 2.441 1.215 3.468c1.552 1.028 2.767.385 4.049 1.927s1.552 4.56 4.319 4.368c2.767-.193 6.546-3.276 3.779-7.836s-4.117-2.248-7.491-5.074-7.558-3.661-9.178-1.606z" fill="url(#l)"/><path d="m179.549 150.826s-.81-1.67-1.485-2.248-.945 1.028-.675 1.863 1.485 1.028 1.485 1.028l.675-.642z" fill="url(#m)"/><path d="m176.624 143.461s2.024-1.028 4.049.385c1.619 1.542 1.485 3.468 3.779 4.368 2.294.899 2.294 1.798 1.485 2.441-.81.642-1.35 1.285-1.215 3.083s0 2.569-.945 3.725-1.485 2.184-1.35 3.34-.81 2.055-1.62 1.413.405-.642-.54-1.542c-.945-.899-2.025-.514-3.914-1.413-1.89-.899-3.644-1.798-5.129-1.927s-1.62.771-2.025.128c-.405-.642.54-1.028.945-1.798.405-.771 0-1.156 1.35-3.854s2.699-3.982 2.969-5.395 1.215-2.955 2.159-2.955z" fill="#404a69"/><path d="m180.494 146.523s-.81-1.67-1.485-2.248-.945 1.028-.675 1.863 1.485 1.028 1.485 1.028l.675-.642z" fill="url(#n)"/><path d="m196.42 158.919s-12.282-2.698-17.546-11.818l1.754-1.028s4.589 3.597 9.043 5.395 8.233 1.028 9.583 3.725c1.35 2.698-1.485 4.239-2.834 3.725z" fill="url(#o)"/><path d="m140.787 180.437 1.936 76.455c.067 2.656 2.349 4.776 5.14 4.776h51.579c2.791 0 5.073-2.12 5.14-4.776l1.936-76.455z" fill="url(#p)"/><rect fill="url(#q)" height="10.628" rx="1.542" width="75.775" x="135.266" y="175.123"/><g fill="#f7f7f7"><path d="m160.357 218.252-2.131-1.156 6.884-.101 3.559 5.802-2.131-1.095-2.85 4.782c-.699 1.172-1.1 2.489-1.133 3.836-.001.051-.002.103-.002.155l-3.879-6.38s-1.684-2.759 1.684-5.842z"/><path d="m179.406 233.867-.04 2.335-3.404-5.696 3.633-5.76.016 2.305 5.776.079c1.416.019 2.822-.279 4.079-.899.048-.024.096-.048.144-.073l-4.012 6.305s-1.732 2.732-6.192 1.404z"/><path d="m184.355 210.415 1.903-1.053-3.366 5.717-7.059.015 2.066-1.204-2.793-4.528s1.043-2.558 3.927-3.09c2.971-.548 5.322 4.142 5.322 4.142z"/><path d="m173.209 226.985v6.785h-6.234s-2.729-.06-3.165-3.012c-.362-2.452 1.087-3.773 1.087-3.773z"/><path d="m181.105 219.299 6.134-3.457 3.177 5.105s.767 2.534-1.731 4.333c-2.04 1.47-3.344.826-3.344.826z"/><path d="m163.448 212.856 3.208-5.345s1.023-1.613 2.621-1.613h7.534s-1.556 1.126-3.122 3.479c-1.594 2.395-4.028 6.806-4.028 6.806z"/></g><path d="m170.562 163.437c-.515 0-.933-.398-.933-.889v-2.334c0-.491.418-.889.933-.889.516 0 .934.398.934.889v2.334c0 .491-.418.889-.934.889z" fill="url(#r)"/><path d="m177.284 161.809c.028.352-.248.659-.617.686l-2.968.218c-.369.027-.692-.236-.721-.587-.029-.352.248-.659.617-.686l2.968-.218c.369-.027.692.236.721.587z" fill="url(#s)"/><path d="m178.379 164.593c0 .39-.332.707-.742.707s-.742-.316-.742-.707.332-.707.742-.707.742.316.742.707z" fill="url(#t)"/><path d="m170.416 166.648c0 .39-.332.706-.742.706s-.742-.316-.742-.706.332-.707.742-.707.742.316.742.707z" fill="url(#u)"/><path d="m175.54 168.706-1.82.742-.78-1.732 1.82-.742z" fill="url(#v)"/><path d="m178.172 169.801-.744-.931.978-.708.744.931z" fill="url(#w)"/><path d="m236.64 261.686c.156-.76-1.305-3.725-3.735-3.725-5.122 0-3.239 2.055-7.288 2.312s-5.129-8.735-10.527-9.249c-5.399-.514-6.478 5.909-9.448 7.194-2.969 1.285-5.963-4.413-8.785-2.335s-2.012 4.647-5.252 4.133c-3.239-.514-5.668-1.284-7.558-.257-1.02.555-1.637 1.327-1.998 1.927z" fill="url(#x)"/><path d="m166.997 261.686c.156-.76-1.305-3.725-3.735-3.725-5.122 0-3.239 2.055-7.288 2.312s-5.129-8.735-10.528-9.249-6.478 5.909-9.448 7.194c-2.969 1.285-5.963-4.413-8.785-2.335s-2.012 4.647-5.252 4.133c-3.239-.514-5.669-1.284-7.558-.257-1.02.555-1.637 1.327-1.998 1.927h54.591z" fill="url(#y)"/><path d="m124.349 212.027s.578.433 1.201.796 1.965 1.098 2.542 2.394-.239 3.386-2.16 3.825-3.284-.38-3.746-1.345-.188-2.604.404-3.602.845-1.577.713-1.866-.321-.543-.321-.543-.505-.39-.4-.593c.105-.202 1.369-.521 1.559-.386s-.163.84-.025 1.017.233.304.233.304z" fill="#00b68e"/><path d="m131.514 213.124s.099.463.253.908.508 1.38.211 2.286-1.674 1.643-2.863 1.072-1.516-1.558-1.311-2.246c.204-.689 1.096-1.418 1.858-1.686s1.157-.461 1.222-.664.084-.413.084-.413-.081-.41.066-.471.943.3.979.448-.469.365-.479.513-.019.253-.019.253z" fill="#86ddcf"/><path d="m131.613 214.852-.877-.771-1.215-.353-1.215-.193-1.181-.257-.978.289-.979.386-.776.257-.405.546-.405.931 5.129.642s2.227-.353 2.261-.45c.034-.096.641-1.028.641-1.028z" fill="#254da1"/><path d="m138.294 215.205s-.945-1.22-1.822-1.606c-.877-.385-1.957.128-1.957.128l-1.215-.385-1.215.257c-.54.385-1.889.514-1.889.514l-.945.514-1.147 1.092h9.245z" fill="#404a69"/><path d="m116.992 214.559h16.012v11.868h-16.012z" fill="#feb700"/><path d="m133.004 214.559h6.235v11.868h-6.235z" fill="url(#z)" transform="matrix(-1 0 0 -1 272.242 440.987)"/><path d="m127.627 256.088s.352 1.412 1.334 2.016c.917.538 5.834-2.361 5.387-2.948-.448-.587-3.888.258-3.888.258l-.853-.473s-.586-.464-1.98 1.147z" fill="#32326b"/><path d="m112.488 229.607s7.415 10.655 13.128 26.27c.225.615.902.967 1.566.808.908-.217 2.14-.714 3.03-1.851.21-.268.263-.618.192-.945-.644-2.975-4.105-18.073-9.282-24.426-3.029-2.595-8.331-2.451-8.634.144z" fill="url(#A)"/><path d="m112.829 256.998s-.909 1.514-.568 2.811c.341 1.189 7.157 2.487 7.271 1.622.113-.865-3.635-2.811-3.635-2.811l-.341-1.081s-.114-.865-2.726-.541z" fill="#32326b"/><path d="m116.729 230.472s-.883 13.161-5.112 25.409c-.131.378-.008.792.32 1.039.658.497 2.033 1.161 4.567.976.315-.023.61-.186.775-.443 1.887-2.936 7.152-20.808 6.873-29.72-.454-4.325-7.422 2.739-7.422 2.739z" fill="url(#B)"/><path d="m117.202 208.328-.16 2.83h2.921l-.478-2.022z" fill="url(#C)"/><path d="m116.48 206.308c.222-.763.873-1.387 1.674-1.601 1.582-.423 3.022.6 3.197 1.993.007.017.014.031.02.048 0 0 .141 1.643.051 2.973-.043.635-.654 1.112-1.314 1.01-.416-.064-.906-.215-1.44-.461-.599-.276-.99-.834-1.239-1.352-.808-.549-1.26-1.543-.95-2.609z" fill="url(#D)"/><path d="m116.701 210.463s3.569.486 3.96.789c.167.243.223.607.223.607h-4.74l.558-1.396z" fill="#f1f2f2"/><path d="m121.857 204.824c-.086-.549-.941-.71-1.345-.573-.22.075-.23.066-.602 0-.812-.295-1.609-.402-2.36-.021-.612.309-.927.691-1.089 1.021-.621.247-.191.482-.586.921-.425.472-.248.775.071 1.786s.92 1.752 1.133 1.988c.212.236.637.135.885.27s.85-.135 1.168-.573.531-1.078.531-1.449c0-.145-.076-.342-.167-.56.057-.15.146-.299.273-.282.248.034.319.337.496.64s.071.708.071.708h.319s.035-.472 0-.775-.212-.573-.602-1.078c-.14-.182-.233-.345-.296-.481.232.043.456.068.648.046.162-.018.319-.051.463-.098.033-.004.066-.005.1-.012 1.067-.22.978-.928.891-1.477z" fill="#254da1"/><path d="m114.533 212.163s5.301-2.163 8.028 1.874c2.272 3.748 2.12 14.705 1.666 16.002-.757 1.298-9.391 2.307-11.663.721s-1.06-17.588 1.969-18.597z" fill="url(#E)"/><path d="m116.992 216.459s4.148 6.498 6.692 7.597c2.545 1.099 9.788-4.616 9.788-4.616s1.317-.08 1.734-.955c.449-.942-1.992-.292-1.992-.292s.34-1.07-.071-.923-.623.948-.623.948-5.479 2.015-6.513 2.217c-1.246.111-3.158-5.177-4.912-6.503-1.755-1.326-4.812.437-4.104 2.528z" fill="url(#F)"/><path d="m117.903 213.417s-2.492 1.114-.807 4.195c1.357 2.696 3.189 4.217 3.189 4.217s3.95-1.133 4.405-3.696c0 0-2.425-4.212-3.633-4.896s-3.154.179-3.154.179z" fill="#f1f2f2"/><path d="m238.239 261.643h7.834c-.061-1.611-.627-4.088-2.909-7.707-4.049-6.423-7.018-9.506-9.718-9.249-2.699.257 1.08 1.285 2.969 7.964.867 3.065 1.447 6.338 1.824 8.992z" fill="url(#G)"/><path d="m249.369 261.643c-.32-5.669-.483-16.721 2.432-23.379 0-3.34-5.399 2.055-7.558 8.735-1.838 5.687-3.672 9.147-4.178 14.644z" fill="url(#H)"/><path d="m255.347 261.643c1.135-12.39 11.342-24.455 9.141-24.921-12.556 4.527-17.867 17.594-19.911 24.921z" fill="url(#I)"/><path d="m104.966 261.638c.278-1.365.597-2.756.98-4.111 1.889-6.68 5.669-7.707 2.969-7.964-2.699-.257-5.669 2.826-9.718 9.249-.654 1.037-1.154 1.97-1.554 2.826z" fill="url(#J)"/><path d="m93.153 261.638h8.256c-.83-3.11-2.054-5.936-3.292-9.763-2.159-6.68-7.558-12.075-7.558-8.735 2.216 5.061 2.652 12.654 2.594 18.498z" fill="url(#K)"/><path d="m96.164 261.638c-2.798-7.256-8.203-16.403-18.291-20.039-1.909.404 5.515 9.537 8.259 20.039z" fill="url(#L)"/><text fill="#404a69" font-family="Asap-Medium, Asap" font-size="16.62" font-weight="500" transform="matrix(1.051 0 0 1 111.565 292.485)"><tspan x="0" y="0">Mulai Seka</tspan><tspan letter-spacing="-.02em" x="80.64" y="0">r</tspan><tspan letter-spacing="0em" x="86.39" y="0">ang</tspan></text></svg>