<svg viewBox="0 30 320 390" xmlns="http://www.w3.org/2000/svg" xmlns:xlink="http://www.w3.org/1999/xlink"><filter id="a" filterUnits="userSpaceOnUse"><feOffset dx="8" dy="7"/><feGaussianBlur result="blur" stdDeviation="5"/><feFlood flood-opacity=".42"/><feComposite in2="blur" operator="in"/><feComposite in="SourceGraphic"/></filter><linearGradient id="b" gradientUnits="userSpaceOnUse" x1="110.677" x2="180.994" y1="137.79" y2="318.243"><stop offset="0" stop-color="#86ddcf"/><stop offset="1" stop-color="#00b68e"/></linearGradient><linearGradient id="c" x1="215.586" x2="153.749" xlink:href="#b" y1="170.584" y2="340.848"/><linearGradient id="d" gradientUnits="userSpaceOnUse" x1="196.417" x2="216.021" y1="152.451" y2="213.263"><stop offset="0" stop-color="#fee18e"/><stop offset="1" stop-color="#fec800"/></linearGradient><linearGradient id="e" x1="203.208" x2="227.451" xlink:href="#d" y1="226.083" y2="301.283"/><linearGradient id="f" x1="87.46" x2="99.092" xlink:href="#d" y1="176.98" y2="213.063"/><linearGradient id="g" x1="106.008" x2="135.231" xlink:href="#b" y1="154.476" y2="207.302"/><linearGradient id="h" x1="208.753" x2="227.066" xlink:href="#b" y1="173.93" y2="207.035"/><linearGradient id="i" x1="91.117" x2="109.431" xlink:href="#b" y1="229.659" y2="262.764"/><linearGradient id="j" x1="223.97" x2="242.284" xlink:href="#b" y1="211.944" y2="245.05"/><linearGradient id="k" x1="92.562" x2="129.089" xlink:href="#d" y1="170.857" y2="284.167"/><linearGradient id="l" gradientTransform="matrix(-1 0 0 1 -435.66 0)" x1="-564.199" x2="-464.471" xlink:href="#b" y1="385.131" y2="531.245"/><linearGradient id="m" x1="156.65" x2="438.388" xlink:href="#b" y1="-29.794" y2="382.985"/><path d="m70.005 26.802h185.9c9.271 0 16.798 7.527 16.798 16.798v375.518c0 9.271-7.527 16.799-16.799 16.799h-185.899c-9.271 0-16.799-7.527-16.799-16.799v-375.517c0-9.271 7.527-16.799 16.799-16.799z" fill="#fff" filter="url(#a)" opacity=".22"/><path d="m70.005 27.925h185.9c9.271 0 16.798 7.527 16.798 16.798v375.518c0 9.271-7.527 16.799-16.799 16.799h-185.899c-9.271 0-16.799-7.527-16.799-16.799v-375.518c0-9.271 7.527-16.799 16.799-16.799z" fill="#fff"/><text fill="#8e94a6" font-family="Asap-Regular, Asap" font-size="7.859" transform="matrix(1.034 0 0 1 79.143 311.386)"><tspan x="0" y="0">den</tspan><tspan letter-spacing="-.02em" x="13.054" y="0">g</tspan><tspan x="17.188" xml:space="preserve" y="0">an  meminimalisir sampah </tspan><tspan letter-spacing="-.01em" x="110.488" y="0">y</tspan><tspan x="114.189" y="0">ang ada, kita </tspan><tspan x="15.408" y="9.431">sudah satu langkah </tspan><tspan letter-spacing="-.01em" x="84.55" y="9.431">l</tspan><tspan x="86.807" y="9.431">ebih maju untuk </tspan><tspan x="33.943" y="18.861">men</tspan><tspan letter-spacing="-.01em" x="49.221" y="18.861">y</tspan><tspan x="52.922" y="18.861">elamatkan bumi kita</tspan></text><ellipse cx="161.189" cy="222.715" fill="#a9eaff" rx="50.511" ry="48.827"/><path d="m160.627 247.07-6.912-4.454-2.688-7.053-6.144-1.485-6.912 1.485-2.688 5.568-4.608-.742-5.376-2.97-1.92-4.826s3.072-5.568 5.76-4.454c1.059.439 0 3.341 1.152 4.083s1.92-3.341 1.92-3.341l3.456-4.083s7.296-3.341 8.064-5.568 1.152-8.538-1.152-12.25-6.528-4.826-8.448-3.341-8.064 7.053-9.216 5.197-4.224-4.083-3.456-5.939 3.456-4.826 5.376-3.341 5.376-1.113 6.144-3.341c.768-2.227-1.92-4.454-1.536-6.682.384-2.227 3.456-3.712 7.296-2.227s1.152 6.682 1.152 8.538 3.072 5.939 4.992 6.682c1.92.742 3.84-2.599 5.376-5.197s7.296-2.227 8.448-4.455c1.152-2.227 2.304-8.538.768-12.25s-8.064-5.568-8.064-5.568l-.053-.241c-22.413 4.275-39.5 22.88-40.619 45.532 1.341 2.542 2.685 5.048 3.04 5.564.768 1.114 2.688 6.682 2.688 6.682l4.992 7.424 5.76 1.856 5.376 1.114v6.311c0 1.485 6.912 4.454 8.064 5.939s3.84 7.795 5.76 10.394c1.92 2.598 4.608 3.712 5.76 4.454s1.92-1.856 2.304-2.97.768-6.311.768-6.311l2.688-4.826 5.76-.742s1.92-3.341 1.92-4.454-4.992-3.712-4.992-3.712z" fill="url(#b)"/><path d="m191.731 187.678-1.92 4.083 3.84 4.083-.768 6.311 2.304 3.712c2.688 0 1.92 2.97 1.92 2.97l-7.296 3.712-.768 4.826 1.92 3.341c3.84-.371 8.448-2.599 8.448-2.599l4.224-1.485 3.072 4.083 1.536 4.083-4.224-.742c-3.456-2.227-8.064 0-8.064 0l-2.304 3.341-8.832 2.227-3.072 4.454-.384 7.795 3.84 4.083 6.912 1.485 4.224-2.97c0 2.97-2.304 7.424-2.304 7.424l-3.072 4.454-1.92 3.712v2.598h1.196c12.979-8.837 21.46-23.433 21.46-39.946 0-13.458-5.633-25.644-14.744-34.476l-5.224-.561z" fill="url(#c)"/><path d="m206.28 180.803-.699 2.508c-.144.519-.906.519-1.05 0l-.699-2.508c-.05-.181-.197-.322-.384-.371l-2.594-.675c-.537-.14-.537-.875 0-1.015l2.594-.675c.187-.049.333-.19.384-.371l.699-2.508c.144-.519.906-.519 1.05 0l.699 2.508c.05.181.197.322.384.371l2.594.675c.537.14.537.876 0 1.015l-2.594.675c-.187.049-.333.19-.384.371z" fill="url(#d)"/><path d="m215.404 261.143-.864 3.102c-.179.641-1.12.641-1.299 0l-.864-3.102c-.062-.224-.243-.398-.474-.459l-3.208-.835c-.664-.173-.664-1.083 0-1.255l3.208-.835c.231-.06.412-.235.474-.459l.864-3.101c.179-.641 1.12-.641 1.299 0l.864 3.101c.062.224.243.398.474.459l3.208.835c.664.173.664 1.083 0 1.255l-3.208.835c-.231.06-.412.235-.474.459z" fill="url(#e)"/><path d="m93.312 193.803-.415 1.488c-.086.308-.537.308-.623 0l-.415-1.488c-.03-.107-.117-.191-.228-.22l-1.539-.401c-.318-.083-.318-.519 0-.602l1.539-.401c.111-.029.198-.113.228-.22l.415-1.488c.086-.308.537-.308.623 0l.415 1.488c.03.107.117.191.228.22l1.539.401c.318.083.318.52 0 .602l-1.539.401c-.111.029-.198.113-.228.22z" fill="url(#f)"/><path d="m120.126 179.517-.508 1.825c-.105.377-.659.377-.764 0l-.508-1.825c-.037-.132-.143-.234-.279-.27l-1.887-.491c-.39-.101-.39-.637 0-.739l1.887-.491c.136-.035.243-.138.279-.27l.508-1.824c.105-.377.659-.377.764 0l.508 1.824c.037.132.143.234.279.27l1.887.491c.39.102.39.637 0 .739l-1.887.491c-.136.035-.243.138-.279.27z" fill="url(#g)"/><path d="m217.6 189.623-.318 1.143c-.066.236-.413.236-.479 0l-.319-1.143c-.023-.083-.09-.147-.175-.169l-1.183-.308c-.245-.064-.245-.399 0-.463l1.183-.308c.085-.022.152-.087.175-.169l.319-1.143c.066-.237.413-.237.479 0l.318 1.143c.023.082.09.147.175.169l1.183.308c.245.064.245.399 0 .463l-1.183.308c-.085.022-.152.087-.175.169z" fill="url(#h)"/><path d="m99.964 245.351-.318 1.143c-.066.237-.413.237-.479 0l-.318-1.143c-.023-.082-.09-.147-.175-.169l-1.183-.308c-.245-.064-.245-.399 0-.463l1.183-.308c.085-.022.152-.087.175-.169l.318-1.143c.066-.236.413-.236.479 0l.318 1.143c.023.082.09.147.175.169l1.183.308c.245.064.245.399 0 .463l-1.183.308c-.085.022-.152.087-.175.169z" fill="url(#i)"/><path d="m232.817 227.637-.318 1.143c-.066.236-.413.236-.479 0l-.318-1.143c-.023-.082-.09-.147-.175-.169l-1.183-.308c-.245-.064-.245-.399 0-.463l1.183-.308c.085-.022.152-.087.175-.169l.318-1.143c.066-.236.413-.236.479 0l.318 1.143c.023.083.09.147.175.169l1.183.308c.245.064.245.399 0 .463l-1.183.308c-.085.022-.152.087-.175.169z" fill="url(#j)"/><path d="m110.938 223.684-1.302 4.673c-.269.966-1.688.966-1.957 0l-1.302-4.673c-.094-.337-.366-.6-.715-.691l-4.834-1.258c-1-.26-1-1.631 0-1.892l4.834-1.258c.349-.091.621-.354.715-.691l1.302-4.673c.269-.966 1.688-.966 1.957 0l1.302 4.673c.094.337.366.6.715.691l4.834 1.258c1 .26 1 1.631 0 1.892l-4.834 1.258c-.349.091-.621.354-.715.691z" fill="url(#k)"/><path d="m151.681 164.07c.158-.782-1.322-3.833-3.784-3.833-5.189 0-3.282 2.115-7.384 2.379s-5.196-8.988-10.666-9.517-6.564 6.08-9.572 7.402-6.041-4.541-8.901-2.402-2.039 4.782-5.32 4.253c-3.282-.529-5.743-1.322-7.658-.264-1.033.571-1.659 1.366-2.024 1.983h55.308z" fill="#a9eaff"/><path d="m242.272 283.826c.158-.782-1.322-3.833-3.784-3.833-5.189 0-3.282 2.115-7.384 2.379s-5.196-8.988-10.666-9.517-6.564 6.08-9.572 7.402-6.041-4.541-8.901-2.403c-2.859 2.138-2.039 4.782-5.32 4.253-3.282-.529-5.743-1.322-7.658-.264-1.033.571-1.659 1.366-2.024 1.983h55.308z" fill="#a9eaff"/><path d="m71.344 438.04c-10.775 0-19.51-8.444-19.51-18.86v-55.006c11.509 1.892 27.183 7.147 36.614 21.473 16.26 24.7 34.068 36.675 68.137 38.921 11.282.744 20.1 6.332 26.851 13.472h-112.091z" fill="url(#l)"/><path d="m254.193 26.925h-122.6c2.52 13.711 10.703 29.687 32.734 40.868 46.457 23.577 61.555 28.068 76.654 63.994 7.5 17.846 21.015 26.268 32.722 30.23v-116.232c0-10.416-8.735-18.86-19.51-18.86z" fill="url(#m)"/><text fill="#00a95e" font-family="Asap-Medium, Asap" font-size="20.209" font-weight="500" transform="matrix(1.034 0 0 1 80.073 132.786)"><tspan x="0" y="0">Selamatkan Bumi!</tspan></text></svg>